<?xml version="1.0" encoding="utf-8" standalone="no"?>
<!DOCTYPE svg PUBLIC "-//W3C//DTD SVG 1.1//EN"
  "http://www.w3.org/Graphics/SVG/1.1/DTD/svg11.dtd">
<svg xmlns:xlink="http://www.w3.org/1999/xlink" width="720pt" height="46.8pt" viewBox="0 0 720 46.8" xmlns="http://www.w3.org/2000/svg" version="1.1">
 <metadata>
  <rdf:RDF xmlns:dc="http://purl.org/dc/elements/1.1/" xmlns:cc="http://creativecommons.org/ns#" xmlns:rdf="http://www.w3.org/1999/02/22-rdf-syntax-ns#">
   <cc:Work>
    <dc:type rdf:resource="http://purl.org/dc/dcmitype/StillImage"/>
    <dc:date>2024-07-06T02:19:40.680955</dc:date>
    <dc:format>image/svg+xml</dc:format>
    <dc:creator>
     <cc:Agent>
      <dc:title>Matplotlib v3.7.1, https://matplotlib.org/</dc:title>
     </cc:Agent>
    </dc:creator>
   </cc:Work>
  </rdf:RDF>
 </metadata>
 <defs>
  <style type="text/css">*{stroke-linejoin: round; stroke-linecap: butt}</style>
 </defs>
 <g id="figure_1">
  <g id="patch_1">
   <path d="M 0 46.8 
L 720 46.8 
L 720 0 
L 0 0 
z
" style="fill: #ffffff"/>
  </g>
  <g id="axes_1">
   <g id="patch_2">
    <path d="M 0 44.672727 
L 187.982215 44.672727 
L 187.982215 2.127273 
L 0 2.127273 
z
" clip-path="url(#p309d331875)" style="fill: #e4aebb"/>
   </g>
   <g id="patch_3">
    <path d="M 187.982215 44.672727 
L 353.863911 44.672727 
L 353.863911 2.127273 
L 187.982215 2.127273 
z
" clip-path="url(#p309d331875)" style="fill: #dfa8b6"/>
   </g>
   <g id="patch_4">
    <path d="M 353.863911 44.672727 
L 441.757894 44.672727 
L 441.757894 2.127273 
L 353.863911 2.127273 
z
" clip-path="url(#p309d331875)" style="fill: #e8b5c2"/>
   </g>
   <g id="patch_5">
    <path d="M 441.757894 44.672727 
L 514.209567 44.672727 
L 514.209567 2.127273 
L 441.757894 2.127273 
z
" clip-path="url(#p309d331875)" style="fill: #d8a1ae"/>
   </g>
   <g id="patch_6">
    <path d="M 514.209567 44.672727 
L 557.428706 44.672727 
L 557.428706 2.127273 
L 514.209567 2.127273 
z
" clip-path="url(#p309d331875)" style="fill: #ce99a6"/>
   </g>
   <g id="patch_7">
    <path d="M 557.428706 44.672727 
L 587.191154 44.672727 
L 587.191154 2.127273 
L 557.428706 2.127273 
z
" clip-path="url(#p309d331875)" style="fill: #c28f9c"/>
   </g>
   <g id="patch_8">
    <path d="M 587.191154 44.672727 
L 609.31661 44.672727 
L 609.31661 2.127273 
L 587.191154 2.127273 
z
" clip-path="url(#p309d331875)" style="fill: #b28491"/>
   </g>
   <g id="patch_9">
    <path d="M 609.31661 44.672727 
L 625.927847 44.672727 
L 625.927847 2.127273 
L 609.31661 2.127273 
z
" clip-path="url(#p309d331875)" style="fill: #a07886"/>
   </g>
   <g id="patch_10">
    <path d="M 625.927847 44.672727 
L 641.613293 44.672727 
L 641.613293 2.127273 
L 625.927847 2.127273 
z
" clip-path="url(#p309d331875)" style="fill: #282229"/>
   </g>
   <g id="patch_11">
    <path d="M 641.613293 44.672727 
L 656.750122 44.672727 
L 656.750122 2.127273 
L 641.613293 2.127273 
z
" clip-path="url(#p309d331875)" style="fill: #352c35"/>
   </g>
   <g id="patch_12">
    <path d="M 656.750122 44.672727 
L 670.337733 44.672727 
L 670.337733 2.127273 
L 656.750122 2.127273 
z
" clip-path="url(#p309d331875)" style="fill: #443640"/>
   </g>
   <g id="patch_13">
    <path d="M 670.337733 44.672727 
L 683.594928 44.672727 
L 683.594928 2.127273 
L 670.337733 2.127273 
z
" clip-path="url(#p309d331875)" style="fill: #8d6b78"/>
   </g>
   <g id="patch_14">
    <path d="M 683.594928 44.672727 
L 696.699382 44.672727 
L 696.699382 2.127273 
L 683.594928 2.127273 
z
" clip-path="url(#p309d331875)" style="fill: #55424d"/>
   </g>
   <g id="patch_15">
    <path d="M 696.699382 44.672727 
L 708.765829 44.672727 
L 708.765829 2.127273 
L 696.699382 2.127273 
z
" clip-path="url(#p309d331875)" style="fill: #664e5a"/>
   </g>
   <g id="patch_16">
    <path d="M 708.765829 44.672727 
L 720 44.672727 
L 720 2.127273 
L 708.765829 2.127273 
z
" clip-path="url(#p309d331875)" style="fill: #795d69"/>
   </g>
  </g>
 </g>
 <defs>
  <clipPath id="p309d331875">
   <rect x="0" y="0" width="720" height="46.8"/>
  </clipPath>
 </defs>
</svg>
