<?xml version="1.0" encoding="utf-8" standalone="no"?>
<!DOCTYPE svg PUBLIC "-//W3C//DTD SVG 1.1//EN"
  "http://www.w3.org/Graphics/SVG/1.1/DTD/svg11.dtd">
<svg xmlns:xlink="http://www.w3.org/1999/xlink" width="720pt" height="46.8pt" viewBox="0 0 720 46.8" xmlns="http://www.w3.org/2000/svg" version="1.1">
 <metadata>
  <rdf:RDF xmlns:dc="http://purl.org/dc/elements/1.1/" xmlns:cc="http://creativecommons.org/ns#" xmlns:rdf="http://www.w3.org/1999/02/22-rdf-syntax-ns#">
   <cc:Work>
    <dc:type rdf:resource="http://purl.org/dc/dcmitype/StillImage"/>
    <dc:date>2024-07-06T02:28:04.602869</dc:date>
    <dc:format>image/svg+xml</dc:format>
    <dc:creator>
     <cc:Agent>
      <dc:title>Matplotlib v3.7.1, https://matplotlib.org/</dc:title>
     </cc:Agent>
    </dc:creator>
   </cc:Work>
  </rdf:RDF>
 </metadata>
 <defs>
  <style type="text/css">*{stroke-linejoin: round; stroke-linecap: butt}</style>
 </defs>
 <g id="figure_1">
  <g id="patch_1">
   <path d="M 0 46.8 
L 720 46.8 
L 720 0 
L 0 0 
z
" style="fill: #ffffff"/>
  </g>
  <g id="axes_1">
   <g id="patch_2">
    <path d="M 0 44.672727 
L 78.021938 44.672727 
L 78.021938 2.127273 
L 0 2.127273 
z
" clip-path="url(#p09dab2b517)" style="fill: #4bbabc"/>
   </g>
   <g id="patch_3">
    <path d="M 78.021938 44.672727 
L 148.051652 44.672727 
L 148.051652 2.127273 
L 78.021938 2.127273 
z
" clip-path="url(#p09dab2b517)" style="fill: #79ced8"/>
   </g>
   <g id="patch_4">
    <path d="M 148.051652 44.672727 
L 212.803858 44.672727 
L 212.803858 2.127273 
L 148.051652 2.127273 
z
" clip-path="url(#p09dab2b517)" style="fill: #03a9b0"/>
   </g>
   <g id="patch_5">
    <path d="M 212.803858 44.672727 
L 273.516367 44.672727 
L 273.516367 2.127273 
L 212.803858 2.127273 
z
" clip-path="url(#p09dab2b517)" style="fill: #49bfc8"/>
   </g>
   <g id="patch_6">
    <path d="M 273.516367 44.672727 
L 334.134235 44.672727 
L 334.134235 2.127273 
L 273.516367 2.127273 
z
" clip-path="url(#p09dab2b517)" style="fill: #2eb4bd"/>
   </g>
   <g id="patch_7">
    <path d="M 334.134235 44.672727 
L 388.470897 44.672727 
L 388.470897 2.127273 
L 334.134235 2.127273 
z
" clip-path="url(#p09dab2b517)" style="fill: #21b0b8"/>
   </g>
   <g id="patch_8">
    <path d="M 388.470897 44.672727 
L 439.365598 44.672727 
L 439.365598 2.127273 
L 388.470897 2.127273 
z
" clip-path="url(#p09dab2b517)" style="fill: #6fc9cf"/>
   </g>
   <g id="patch_9">
    <path d="M 439.365598 44.672727 
L 490.168148 44.672727 
L 490.168148 2.127273 
L 439.365598 2.127273 
z
" clip-path="url(#p09dab2b517)" style="fill: #56c4ce"/>
   </g>
   <g id="patch_10">
    <path d="M 490.168148 44.672727 
L 538.166321 44.672727 
L 538.166321 2.127273 
L 490.168148 2.127273 
z
" clip-path="url(#p09dab2b517)" style="fill: #3bb9c3"/>
   </g>
   <g id="patch_11">
    <path d="M 538.166321 44.672727 
L 585.312722 44.672727 
L 585.312722 2.127273 
L 538.166321 2.127273 
z
" clip-path="url(#p09dab2b517)" style="fill: #42b5b5"/>
   </g>
   <g id="patch_12">
    <path d="M 585.312722 44.672727 
L 631.139122 44.672727 
L 631.139122 2.127273 
L 585.312722 2.127273 
z
" clip-path="url(#p09dab2b517)" style="fill: #12adb5"/>
   </g>
   <g id="patch_13">
    <path d="M 631.139122 44.672727 
L 659.100698 44.672727 
L 659.100698 2.127273 
L 631.139122 2.127273 
z
" clip-path="url(#p09dab2b517)" style="fill: #62c3c7"/>
   </g>
   <g id="patch_14">
    <path d="M 659.100698 44.672727 
L 681.00771 44.672727 
L 681.00771 2.127273 
L 659.100698 2.127273 
z
" clip-path="url(#p09dab2b517)" style="fill: #57bdbf"/>
   </g>
   <g id="patch_15">
    <path d="M 681.00771 44.672727 
L 701.821364 44.672727 
L 701.821364 2.127273 
L 681.00771 2.127273 
z
" clip-path="url(#p09dab2b517)" style="fill: #62c8d2"/>
   </g>
   <g id="patch_16">
    <path d="M 701.821364 44.672727 
L 720 44.672727 
L 720 2.127273 
L 701.821364 2.127273 
z
" clip-path="url(#p09dab2b517)" style="fill: #03a0a2"/>
   </g>
  </g>
 </g>
 <defs>
  <clipPath id="p09dab2b517">
   <rect x="0" y="0" width="720" height="46.8"/>
  </clipPath>
 </defs>
</svg>
