<?xml version="1.0" encoding="utf-8" standalone="no"?>
<!DOCTYPE svg PUBLIC "-//W3C//DTD SVG 1.1//EN"
  "http://www.w3.org/Graphics/SVG/1.1/DTD/svg11.dtd">
<svg xmlns:xlink="http://www.w3.org/1999/xlink" width="720pt" height="46.8pt" viewBox="0 0 720 46.8" xmlns="http://www.w3.org/2000/svg" version="1.1">
 <metadata>
  <rdf:RDF xmlns:dc="http://purl.org/dc/elements/1.1/" xmlns:cc="http://creativecommons.org/ns#" xmlns:rdf="http://www.w3.org/1999/02/22-rdf-syntax-ns#">
   <cc:Work>
    <dc:type rdf:resource="http://purl.org/dc/dcmitype/StillImage"/>
    <dc:date>2024-07-06T02:28:04.795343</dc:date>
    <dc:format>image/svg+xml</dc:format>
    <dc:creator>
     <cc:Agent>
      <dc:title>Matplotlib v3.7.1, https://matplotlib.org/</dc:title>
     </cc:Agent>
    </dc:creator>
   </cc:Work>
  </rdf:RDF>
 </metadata>
 <defs>
  <style type="text/css">*{stroke-linejoin: round; stroke-linecap: butt}</style>
 </defs>
 <g id="figure_1">
  <g id="patch_1">
   <path d="M 0 46.8 
L 720 46.8 
L 720 0 
L 0 0 
z
" style="fill: #ffffff"/>
  </g>
  <g id="axes_1">
   <g id="patch_2">
    <path d="M 0 44.672727 
L 123.792759 44.672727 
L 123.792759 2.127273 
L 0 2.127273 
z
" clip-path="url(#p8dffa63cec)" style="fill: #dfedf5"/>
   </g>
   <g id="patch_3">
    <path d="M 123.792759 44.672727 
L 244.704941 44.672727 
L 244.704941 2.127273 
L 123.792759 2.127273 
z
" clip-path="url(#p8dffa63cec)" style="fill: #d9e8ee"/>
   </g>
   <g id="patch_4">
    <path d="M 244.704941 44.672727 
L 320.176035 44.672727 
L 320.176035 2.127273 
L 244.704941 2.127273 
z
" clip-path="url(#p8dffa63cec)" style="fill: #ccdbe2"/>
   </g>
   <g id="patch_5">
    <path d="M 320.176035 44.672727 
L 391.182236 44.672727 
L 391.182236 2.127273 
L 320.176035 2.127273 
z
" clip-path="url(#p8dffa63cec)" style="fill: #d2e1e8"/>
   </g>
   <g id="patch_6">
    <path d="M 391.182236 44.672727 
L 460.676135 44.672727 
L 460.676135 2.127273 
L 391.182236 2.127273 
z
" clip-path="url(#p8dffa63cec)" style="fill: #c5d6dd"/>
   </g>
   <g id="patch_7">
    <path d="M 460.676135 44.672727 
L 506.189238 44.672727 
L 506.189238 2.127273 
L 460.676135 2.127273 
z
" clip-path="url(#p8dffa63cec)" style="fill: #bdd0d6"/>
   </g>
   <g id="patch_8">
    <path d="M 506.189238 44.672727 
L 543.060612 44.672727 
L 543.060612 2.127273 
L 506.189238 2.127273 
z
" clip-path="url(#p8dffa63cec)" style="fill: #b2c7cc"/>
   </g>
   <g id="patch_9">
    <path d="M 543.060612 44.672727 
L 574.314863 44.672727 
L 574.314863 2.127273 
L 543.060612 2.127273 
z
" clip-path="url(#p8dffa63cec)" style="fill: #9bb4b7"/>
   </g>
   <g id="patch_10">
    <path d="M 574.314863 44.672727 
L 604.992999 44.672727 
L 604.992999 2.127273 
L 574.314863 2.127273 
z
" clip-path="url(#p8dffa63cec)" style="fill: #a7bec2"/>
   </g>
   <g id="patch_11">
    <path d="M 604.992999 44.672727 
L 632.142428 44.672727 
L 632.142428 2.127273 
L 604.992999 2.127273 
z
" clip-path="url(#p8dffa63cec)" style="fill: #90a8ab"/>
   </g>
   <g id="patch_12">
    <path d="M 632.142428 44.672727 
L 653.818764 44.672727 
L 653.818764 2.127273 
L 632.142428 2.127273 
z
" clip-path="url(#p8dffa63cec)" style="fill: #6a8385"/>
   </g>
   <g id="patch_13">
    <path d="M 653.818764 44.672727 
L 675.135027 44.672727 
L 675.135027 2.127273 
L 653.818764 2.127273 
z
" clip-path="url(#p8dffa63cec)" style="fill: #5c7375"/>
   </g>
   <g id="patch_14">
    <path d="M 675.135027 44.672727 
L 695.227045 44.672727 
L 695.227045 2.127273 
L 675.135027 2.127273 
z
" clip-path="url(#p8dffa63cec)" style="fill: #769092"/>
   </g>
   <g id="patch_15">
    <path d="M 695.227045 44.672727 
L 715.103021 44.672727 
L 715.103021 2.127273 
L 695.227045 2.127273 
z
" clip-path="url(#p8dffa63cec)" style="fill: #809d9f"/>
   </g>
   <g id="patch_16">
    <path d="M 715.103021 44.672727 
L 720 44.672727 
L 720 2.127273 
L 715.103021 2.127273 
z
" clip-path="url(#p8dffa63cec)" style="fill: #89c6c6"/>
   </g>
  </g>
 </g>
 <defs>
  <clipPath id="p8dffa63cec">
   <rect x="0" y="0" width="720" height="46.8"/>
  </clipPath>
 </defs>
</svg>
