<?xml version="1.0" encoding="utf-8" standalone="no"?>
<!DOCTYPE svg PUBLIC "-//W3C//DTD SVG 1.1//EN"
  "http://www.w3.org/Graphics/SVG/1.1/DTD/svg11.dtd">
<svg xmlns:xlink="http://www.w3.org/1999/xlink" width="398.50625pt" height="294.23625pt" viewBox="0 0 398.50625 294.23625" xmlns="http://www.w3.org/2000/svg" version="1.1">
 <metadata>
  <rdf:RDF xmlns:dc="http://purl.org/dc/elements/1.1/" xmlns:cc="http://creativecommons.org/ns#" xmlns:rdf="http://www.w3.org/1999/02/22-rdf-syntax-ns#">
   <cc:Work>
    <dc:type rdf:resource="http://purl.org/dc/dcmitype/StillImage"/>
    <dc:date>2024-07-07T02:08:12.414840</dc:date>
    <dc:format>image/svg+xml</dc:format>
    <dc:creator>
     <cc:Agent>
      <dc:title>Matplotlib v3.7.1, https://matplotlib.org/</dc:title>
     </cc:Agent>
    </dc:creator>
   </cc:Work>
  </rdf:RDF>
 </metadata>
 <defs>
  <style type="text/css">*{stroke-linejoin: round; stroke-linecap: butt}</style>
 </defs>
 <g id="figure_1">
  <g id="patch_1">
   <path d="M 0 294.23625 
L 398.50625 294.23625 
L 398.50625 0 
L 0 0 
z
" style="fill: #ffffff"/>
  </g>
  <g id="axes_1">
   <g id="patch_2">
    <path d="M 56.50625 256.68 
L 391.30625 256.68 
L 391.30625 7.2 
L 56.50625 7.2 
z
" style="fill: #ffffff"/>
   </g>
   <g id="matplotlib.axis_1">
    <g id="xtick_1">
     <g id="line2d_1">
      <defs>
       <path id="m632057723b" d="M 0 0 
L 0 3.5 
" style="stroke: #000000; stroke-width: 0.8"/>
      </defs>
      <g>
       <use xlink:href="#m632057723b" x="71.724432" y="256.68" style="stroke: #000000; stroke-width: 0.8"/>
      </g>
     </g>
     <g id="text_1">
      <!-- 0 -->
      <g transform="translate(68.543182 271.278438) scale(0.1 -0.1)">
       <defs>
        <path id="DejaVuSans-30" d="M 2034 4250 
Q 1547 4250 1301 3770 
Q 1056 3291 1056 2328 
Q 1056 1369 1301 889 
Q 1547 409 2034 409 
Q 2525 409 2770 889 
Q 3016 1369 3016 2328 
Q 3016 3291 2770 3770 
Q 2525 4250 2034 4250 
z
M 2034 4750 
Q 2819 4750 3233 4129 
Q 3647 3509 3647 2328 
Q 3647 1150 3233 529 
Q 2819 -91 2034 -91 
Q 1250 -91 836 529 
Q 422 1150 422 2328 
Q 422 3509 836 4129 
Q 1250 4750 2034 4750 
z
" transform="scale(0.015625)"/>
       </defs>
       <use xlink:href="#DejaVuSans-30"/>
      </g>
     </g>
    </g>
    <g id="xtick_2">
     <g id="line2d_2">
      <g>
       <use xlink:href="#m632057723b" x="131.403576" y="256.68" style="stroke: #000000; stroke-width: 0.8"/>
      </g>
     </g>
     <g id="text_2">
      <!-- 50 -->
      <g transform="translate(125.041076 271.278438) scale(0.1 -0.1)">
       <defs>
        <path id="DejaVuSans-35" d="M 691 4666 
L 3169 4666 
L 3169 4134 
L 1269 4134 
L 1269 2991 
Q 1406 3038 1543 3061 
Q 1681 3084 1819 3084 
Q 2600 3084 3056 2656 
Q 3513 2228 3513 1497 
Q 3513 744 3044 326 
Q 2575 -91 1722 -91 
Q 1428 -91 1123 -41 
Q 819 9 494 109 
L 494 744 
Q 775 591 1075 516 
Q 1375 441 1709 441 
Q 2250 441 2565 725 
Q 2881 1009 2881 1497 
Q 2881 1984 2565 2268 
Q 2250 2553 1709 2553 
Q 1456 2553 1204 2497 
Q 953 2441 691 2322 
L 691 4666 
z
" transform="scale(0.015625)"/>
       </defs>
       <use xlink:href="#DejaVuSans-35"/>
       <use xlink:href="#DejaVuSans-30" x="63.623047"/>
      </g>
     </g>
    </g>
    <g id="xtick_3">
     <g id="line2d_3">
      <g>
       <use xlink:href="#m632057723b" x="191.082721" y="256.68" style="stroke: #000000; stroke-width: 0.8"/>
      </g>
     </g>
     <g id="text_3">
      <!-- 100 -->
      <g transform="translate(181.538971 271.278438) scale(0.1 -0.1)">
       <defs>
        <path id="DejaVuSans-31" d="M 794 531 
L 1825 531 
L 1825 4091 
L 703 3866 
L 703 4441 
L 1819 4666 
L 2450 4666 
L 2450 531 
L 3481 531 
L 3481 0 
L 794 0 
L 794 531 
z
" transform="scale(0.015625)"/>
       </defs>
       <use xlink:href="#DejaVuSans-31"/>
       <use xlink:href="#DejaVuSans-30" x="63.623047"/>
       <use xlink:href="#DejaVuSans-30" x="127.246094"/>
      </g>
     </g>
    </g>
    <g id="xtick_4">
     <g id="line2d_4">
      <g>
       <use xlink:href="#m632057723b" x="250.761865" y="256.68" style="stroke: #000000; stroke-width: 0.8"/>
      </g>
     </g>
     <g id="text_4">
      <!-- 150 -->
      <g transform="translate(241.218115 271.278438) scale(0.1 -0.1)">
       <use xlink:href="#DejaVuSans-31"/>
       <use xlink:href="#DejaVuSans-35" x="63.623047"/>
       <use xlink:href="#DejaVuSans-30" x="127.246094"/>
      </g>
     </g>
    </g>
    <g id="xtick_5">
     <g id="line2d_5">
      <g>
       <use xlink:href="#m632057723b" x="310.441009" y="256.68" style="stroke: #000000; stroke-width: 0.8"/>
      </g>
     </g>
     <g id="text_5">
      <!-- 200 -->
      <g transform="translate(300.897259 271.278438) scale(0.1 -0.1)">
       <defs>
        <path id="DejaVuSans-32" d="M 1228 531 
L 3431 531 
L 3431 0 
L 469 0 
L 469 531 
Q 828 903 1448 1529 
Q 2069 2156 2228 2338 
Q 2531 2678 2651 2914 
Q 2772 3150 2772 3378 
Q 2772 3750 2511 3984 
Q 2250 4219 1831 4219 
Q 1534 4219 1204 4116 
Q 875 4013 500 3803 
L 500 4441 
Q 881 4594 1212 4672 
Q 1544 4750 1819 4750 
Q 2544 4750 2975 4387 
Q 3406 4025 3406 3419 
Q 3406 3131 3298 2873 
Q 3191 2616 2906 2266 
Q 2828 2175 2409 1742 
Q 1991 1309 1228 531 
z
" transform="scale(0.015625)"/>
       </defs>
       <use xlink:href="#DejaVuSans-32"/>
       <use xlink:href="#DejaVuSans-30" x="63.623047"/>
       <use xlink:href="#DejaVuSans-30" x="127.246094"/>
      </g>
     </g>
    </g>
    <g id="xtick_6">
     <g id="line2d_6">
      <g>
       <use xlink:href="#m632057723b" x="370.120154" y="256.68" style="stroke: #000000; stroke-width: 0.8"/>
      </g>
     </g>
     <g id="text_6">
      <!-- 250 -->
      <g transform="translate(360.576404 271.278438) scale(0.1 -0.1)">
       <use xlink:href="#DejaVuSans-32"/>
       <use xlink:href="#DejaVuSans-35" x="63.623047"/>
       <use xlink:href="#DejaVuSans-30" x="127.246094"/>
      </g>
     </g>
    </g>
    <g id="text_7">
     <!-- Channel -->
     <g transform="translate(203.378906 284.956563) scale(0.1 -0.1)">
      <defs>
       <path id="DejaVuSans-43" d="M 4122 4306 
L 4122 3641 
Q 3803 3938 3442 4084 
Q 3081 4231 2675 4231 
Q 1875 4231 1450 3742 
Q 1025 3253 1025 2328 
Q 1025 1406 1450 917 
Q 1875 428 2675 428 
Q 3081 428 3442 575 
Q 3803 722 4122 1019 
L 4122 359 
Q 3791 134 3420 21 
Q 3050 -91 2638 -91 
Q 1578 -91 968 557 
Q 359 1206 359 2328 
Q 359 3453 968 4101 
Q 1578 4750 2638 4750 
Q 3056 4750 3426 4639 
Q 3797 4528 4122 4306 
z
" transform="scale(0.015625)"/>
       <path id="DejaVuSans-68" d="M 3513 2113 
L 3513 0 
L 2938 0 
L 2938 2094 
Q 2938 2591 2744 2837 
Q 2550 3084 2163 3084 
Q 1697 3084 1428 2787 
Q 1159 2491 1159 1978 
L 1159 0 
L 581 0 
L 581 4863 
L 1159 4863 
L 1159 2956 
Q 1366 3272 1645 3428 
Q 1925 3584 2291 3584 
Q 2894 3584 3203 3211 
Q 3513 2838 3513 2113 
z
" transform="scale(0.015625)"/>
       <path id="DejaVuSans-61" d="M 2194 1759 
Q 1497 1759 1228 1600 
Q 959 1441 959 1056 
Q 959 750 1161 570 
Q 1363 391 1709 391 
Q 2188 391 2477 730 
Q 2766 1069 2766 1631 
L 2766 1759 
L 2194 1759 
z
M 3341 1997 
L 3341 0 
L 2766 0 
L 2766 531 
Q 2569 213 2275 61 
Q 1981 -91 1556 -91 
Q 1019 -91 701 211 
Q 384 513 384 1019 
Q 384 1609 779 1909 
Q 1175 2209 1959 2209 
L 2766 2209 
L 2766 2266 
Q 2766 2663 2505 2880 
Q 2244 3097 1772 3097 
Q 1472 3097 1187 3025 
Q 903 2953 641 2809 
L 641 3341 
Q 956 3463 1253 3523 
Q 1550 3584 1831 3584 
Q 2591 3584 2966 3190 
Q 3341 2797 3341 1997 
z
" transform="scale(0.015625)"/>
       <path id="DejaVuSans-6e" d="M 3513 2113 
L 3513 0 
L 2938 0 
L 2938 2094 
Q 2938 2591 2744 2837 
Q 2550 3084 2163 3084 
Q 1697 3084 1428 2787 
Q 1159 2491 1159 1978 
L 1159 0 
L 581 0 
L 581 3500 
L 1159 3500 
L 1159 2956 
Q 1366 3272 1645 3428 
Q 1925 3584 2291 3584 
Q 2894 3584 3203 3211 
Q 3513 2838 3513 2113 
z
" transform="scale(0.015625)"/>
       <path id="DejaVuSans-65" d="M 3597 1894 
L 3597 1613 
L 953 1613 
Q 991 1019 1311 708 
Q 1631 397 2203 397 
Q 2534 397 2845 478 
Q 3156 559 3463 722 
L 3463 178 
Q 3153 47 2828 -22 
Q 2503 -91 2169 -91 
Q 1331 -91 842 396 
Q 353 884 353 1716 
Q 353 2575 817 3079 
Q 1281 3584 2069 3584 
Q 2775 3584 3186 3129 
Q 3597 2675 3597 1894 
z
M 3022 2063 
Q 3016 2534 2758 2815 
Q 2500 3097 2075 3097 
Q 1594 3097 1305 2825 
Q 1016 2553 972 2059 
L 3022 2063 
z
" transform="scale(0.015625)"/>
       <path id="DejaVuSans-6c" d="M 603 4863 
L 1178 4863 
L 1178 0 
L 603 0 
L 603 4863 
z
" transform="scale(0.015625)"/>
      </defs>
      <use xlink:href="#DejaVuSans-43"/>
      <use xlink:href="#DejaVuSans-68" x="69.824219"/>
      <use xlink:href="#DejaVuSans-61" x="133.203125"/>
      <use xlink:href="#DejaVuSans-6e" x="194.482422"/>
      <use xlink:href="#DejaVuSans-6e" x="257.861328"/>
      <use xlink:href="#DejaVuSans-65" x="321.240234"/>
      <use xlink:href="#DejaVuSans-6c" x="382.763672"/>
     </g>
    </g>
   </g>
   <g id="matplotlib.axis_2">
    <g id="ytick_1">
     <g id="line2d_7">
      <defs>
       <path id="m3b5da1a15c" d="M 0 0 
L -3.5 0 
" style="stroke: #000000; stroke-width: 0.8"/>
      </defs>
      <g>
       <use xlink:href="#m3b5da1a15c" x="56.50625" y="256.68" style="stroke: #000000; stroke-width: 0.8"/>
      </g>
     </g>
     <g id="text_8">
      <!-- 0.000 -->
      <g transform="translate(20.878125 260.479219) scale(0.1 -0.1)">
       <defs>
        <path id="DejaVuSans-2e" d="M 684 794 
L 1344 794 
L 1344 0 
L 684 0 
L 684 794 
z
" transform="scale(0.015625)"/>
       </defs>
       <use xlink:href="#DejaVuSans-30"/>
       <use xlink:href="#DejaVuSans-2e" x="63.623047"/>
       <use xlink:href="#DejaVuSans-30" x="95.410156"/>
       <use xlink:href="#DejaVuSans-30" x="159.033203"/>
       <use xlink:href="#DejaVuSans-30" x="222.65625"/>
      </g>
     </g>
    </g>
    <g id="ytick_2">
     <g id="line2d_8">
      <g>
       <use xlink:href="#m3b5da1a15c" x="56.50625" y="212.952201" style="stroke: #000000; stroke-width: 0.8"/>
      </g>
     </g>
     <g id="text_9">
      <!-- 0.005 -->
      <g transform="translate(20.878125 216.75142) scale(0.1 -0.1)">
       <use xlink:href="#DejaVuSans-30"/>
       <use xlink:href="#DejaVuSans-2e" x="63.623047"/>
       <use xlink:href="#DejaVuSans-30" x="95.410156"/>
       <use xlink:href="#DejaVuSans-30" x="159.033203"/>
       <use xlink:href="#DejaVuSans-35" x="222.65625"/>
      </g>
     </g>
    </g>
    <g id="ytick_3">
     <g id="line2d_9">
      <g>
       <use xlink:href="#m3b5da1a15c" x="56.50625" y="169.224402" style="stroke: #000000; stroke-width: 0.8"/>
      </g>
     </g>
     <g id="text_10">
      <!-- 0.010 -->
      <g transform="translate(20.878125 173.02362) scale(0.1 -0.1)">
       <use xlink:href="#DejaVuSans-30"/>
       <use xlink:href="#DejaVuSans-2e" x="63.623047"/>
       <use xlink:href="#DejaVuSans-30" x="95.410156"/>
       <use xlink:href="#DejaVuSans-31" x="159.033203"/>
       <use xlink:href="#DejaVuSans-30" x="222.65625"/>
      </g>
     </g>
    </g>
    <g id="ytick_4">
     <g id="line2d_10">
      <g>
       <use xlink:href="#m3b5da1a15c" x="56.50625" y="125.496603" style="stroke: #000000; stroke-width: 0.8"/>
      </g>
     </g>
     <g id="text_11">
      <!-- 0.015 -->
      <g transform="translate(20.878125 129.295821) scale(0.1 -0.1)">
       <use xlink:href="#DejaVuSans-30"/>
       <use xlink:href="#DejaVuSans-2e" x="63.623047"/>
       <use xlink:href="#DejaVuSans-30" x="95.410156"/>
       <use xlink:href="#DejaVuSans-31" x="159.033203"/>
       <use xlink:href="#DejaVuSans-35" x="222.65625"/>
      </g>
     </g>
    </g>
    <g id="ytick_5">
     <g id="line2d_11">
      <g>
       <use xlink:href="#m3b5da1a15c" x="56.50625" y="81.768803" style="stroke: #000000; stroke-width: 0.8"/>
      </g>
     </g>
     <g id="text_12">
      <!-- 0.020 -->
      <g transform="translate(20.878125 85.568022) scale(0.1 -0.1)">
       <use xlink:href="#DejaVuSans-30"/>
       <use xlink:href="#DejaVuSans-2e" x="63.623047"/>
       <use xlink:href="#DejaVuSans-30" x="95.410156"/>
       <use xlink:href="#DejaVuSans-32" x="159.033203"/>
       <use xlink:href="#DejaVuSans-30" x="222.65625"/>
      </g>
     </g>
    </g>
    <g id="ytick_6">
     <g id="line2d_12">
      <g>
       <use xlink:href="#m3b5da1a15c" x="56.50625" y="38.041004" style="stroke: #000000; stroke-width: 0.8"/>
      </g>
     </g>
     <g id="text_13">
      <!-- 0.025 -->
      <g transform="translate(20.878125 41.840223) scale(0.1 -0.1)">
       <use xlink:href="#DejaVuSans-30"/>
       <use xlink:href="#DejaVuSans-2e" x="63.623047"/>
       <use xlink:href="#DejaVuSans-30" x="95.410156"/>
       <use xlink:href="#DejaVuSans-32" x="159.033203"/>
       <use xlink:href="#DejaVuSans-35" x="222.65625"/>
      </g>
     </g>
    </g>
    <g id="text_14">
     <!-- Probability -->
     <g transform="translate(14.798437 158.368906) rotate(-90) scale(0.1 -0.1)">
      <defs>
       <path id="DejaVuSans-50" d="M 1259 4147 
L 1259 2394 
L 2053 2394 
Q 2494 2394 2734 2622 
Q 2975 2850 2975 3272 
Q 2975 3691 2734 3919 
Q 2494 4147 2053 4147 
L 1259 4147 
z
M 628 4666 
L 2053 4666 
Q 2838 4666 3239 4311 
Q 3641 3956 3641 3272 
Q 3641 2581 3239 2228 
Q 2838 1875 2053 1875 
L 1259 1875 
L 1259 0 
L 628 0 
L 628 4666 
z
" transform="scale(0.015625)"/>
       <path id="DejaVuSans-72" d="M 2631 2963 
Q 2534 3019 2420 3045 
Q 2306 3072 2169 3072 
Q 1681 3072 1420 2755 
Q 1159 2438 1159 1844 
L 1159 0 
L 581 0 
L 581 3500 
L 1159 3500 
L 1159 2956 
Q 1341 3275 1631 3429 
Q 1922 3584 2338 3584 
Q 2397 3584 2469 3576 
Q 2541 3569 2628 3553 
L 2631 2963 
z
" transform="scale(0.015625)"/>
       <path id="DejaVuSans-6f" d="M 1959 3097 
Q 1497 3097 1228 2736 
Q 959 2375 959 1747 
Q 959 1119 1226 758 
Q 1494 397 1959 397 
Q 2419 397 2687 759 
Q 2956 1122 2956 1747 
Q 2956 2369 2687 2733 
Q 2419 3097 1959 3097 
z
M 1959 3584 
Q 2709 3584 3137 3096 
Q 3566 2609 3566 1747 
Q 3566 888 3137 398 
Q 2709 -91 1959 -91 
Q 1206 -91 779 398 
Q 353 888 353 1747 
Q 353 2609 779 3096 
Q 1206 3584 1959 3584 
z
" transform="scale(0.015625)"/>
       <path id="DejaVuSans-62" d="M 3116 1747 
Q 3116 2381 2855 2742 
Q 2594 3103 2138 3103 
Q 1681 3103 1420 2742 
Q 1159 2381 1159 1747 
Q 1159 1113 1420 752 
Q 1681 391 2138 391 
Q 2594 391 2855 752 
Q 3116 1113 3116 1747 
z
M 1159 2969 
Q 1341 3281 1617 3432 
Q 1894 3584 2278 3584 
Q 2916 3584 3314 3078 
Q 3713 2572 3713 1747 
Q 3713 922 3314 415 
Q 2916 -91 2278 -91 
Q 1894 -91 1617 61 
Q 1341 213 1159 525 
L 1159 0 
L 581 0 
L 581 4863 
L 1159 4863 
L 1159 2969 
z
" transform="scale(0.015625)"/>
       <path id="DejaVuSans-69" d="M 603 3500 
L 1178 3500 
L 1178 0 
L 603 0 
L 603 3500 
z
M 603 4863 
L 1178 4863 
L 1178 4134 
L 603 4134 
L 603 4863 
z
" transform="scale(0.015625)"/>
       <path id="DejaVuSans-74" d="M 1172 4494 
L 1172 3500 
L 2356 3500 
L 2356 3053 
L 1172 3053 
L 1172 1153 
Q 1172 725 1289 603 
Q 1406 481 1766 481 
L 2356 481 
L 2356 0 
L 1766 0 
Q 1100 0 847 248 
Q 594 497 594 1153 
L 594 3053 
L 172 3053 
L 172 3500 
L 594 3500 
L 594 4494 
L 1172 4494 
z
" transform="scale(0.015625)"/>
       <path id="DejaVuSans-79" d="M 2059 -325 
Q 1816 -950 1584 -1140 
Q 1353 -1331 966 -1331 
L 506 -1331 
L 506 -850 
L 844 -850 
Q 1081 -850 1212 -737 
Q 1344 -625 1503 -206 
L 1606 56 
L 191 3500 
L 800 3500 
L 1894 763 
L 2988 3500 
L 3597 3500 
L 2059 -325 
z
" transform="scale(0.015625)"/>
      </defs>
      <use xlink:href="#DejaVuSans-50"/>
      <use xlink:href="#DejaVuSans-72" x="58.552734"/>
      <use xlink:href="#DejaVuSans-6f" x="97.416016"/>
      <use xlink:href="#DejaVuSans-62" x="158.597656"/>
      <use xlink:href="#DejaVuSans-61" x="222.074219"/>
      <use xlink:href="#DejaVuSans-62" x="283.353516"/>
      <use xlink:href="#DejaVuSans-69" x="346.830078"/>
      <use xlink:href="#DejaVuSans-6c" x="374.613281"/>
      <use xlink:href="#DejaVuSans-69" x="402.396484"/>
      <use xlink:href="#DejaVuSans-74" x="430.179688"/>
      <use xlink:href="#DejaVuSans-79" x="469.388672"/>
     </g>
    </g>
   </g>
   <g id="line2d_13">
    <path d="M 71.724432 227.392117 
L 72.918015 236.024435 
L 74.111598 242.625992 
L 75.30518 247.759833 
L 76.498763 250.518126 
L 77.692346 251.198209 
L 78.885929 251.492385 
L 80.079512 252.007983 
L 86.047426 252.782962 
L 87.241009 253.175197 
L 89.628175 253.380803 
L 90.821758 253.140402 
L 92.015341 253.156218 
L 93.208924 252.982243 
L 94.402507 252.646946 
L 95.59609 252.144 
L 96.789672 252.181958 
L 97.983255 252.431849 
L 100.370421 251.932067 
L 101.564004 251.381674 
L 102.757587 251.312084 
L 103.95117 251.720134 
L 105.144753 251.495548 
L 106.338336 250.859749 
L 107.531918 249.401523 
L 108.725501 246.997506 
L 109.919084 242.708234 
L 111.112667 235.584753 
L 112.30625 225.658695 
L 113.499833 220.474243 
L 115.886999 228.708 
L 117.080582 233.784904 
L 118.274164 236.511565 
L 119.467747 238.852318 
L 120.66133 238.861808 
L 121.854913 239.592502 
L 123.048496 241.275314 
L 124.242079 242.433038 
L 125.435662 242.65446 
L 126.629245 243.381992 
L 127.822828 243.970343 
L 129.01641 244.391046 
L 130.209993 245.2799 
L 131.403576 245.659481 
L 133.790742 246.92159 
L 134.984325 247.854728 
L 136.177908 247.535247 
L 137.371491 247.940134 
L 138.565074 248.471548 
L 139.758656 248.047682 
L 142.145822 247.674427 
L 143.339405 247.867381 
L 144.532988 247.471983 
L 145.726571 246.320586 
L 146.920154 246.130795 
L 148.113737 246.715983 
L 149.30732 246.222527 
L 151.694485 244.014628 
L 152.888068 242.616502 
L 155.275234 239.187615 
L 156.468817 239.532402 
L 157.6624 238.839665 
L 158.855983 239.263531 
L 160.049566 237.795816 
L 161.243148 236.717172 
L 162.436731 236.61595 
L 163.630314 238.507531 
L 164.823897 236.998695 
L 166.01748 237.821121 
L 167.211063 241.294293 
L 168.404646 243.423113 
L 169.598229 245.27041 
L 170.791811 246.668536 
L 171.985394 247.212603 
L 173.178977 247.218929 
L 175.566143 246.016921 
L 176.759726 246.219364 
L 177.953309 245.428569 
L 179.146892 245.937841 
L 180.340475 246.668536 
L 181.534057 247.905339 
L 182.72764 248.708787 
L 183.921223 249.12949 
L 185.114806 249.126326 
L 186.308389 249.841205 
L 187.501972 249.86651 
L 189.889138 249.683046 
L 191.082721 250.00569 
L 193.469886 250.14487 
L 194.663469 250.388435 
L 195.857052 250.230276 
L 197.050635 250.233439 
L 198.244218 250.559247 
L 199.437801 250.584552 
L 200.631384 248.819498 
L 201.824967 248.718276 
L 204.212132 247.6681 
L 205.405715 246.649556 
L 206.599298 247.086075 
L 207.792881 249.069389 
L 208.986464 248.044519 
L 210.180047 246.864653 
L 211.37363 245.213473 
L 212.567213 244.587163 
L 213.760795 244.156971 
L 214.954378 246.175079 
L 216.147961 247.59851 
L 217.341544 247.326477 
L 218.535127 246.595782 
L 219.72871 246.924753 
L 220.922293 249.233874 
L 222.115876 251.195046 
L 223.309459 251.786561 
L 224.503041 251.754929 
L 225.696624 252.286343 
L 226.890207 252.416033 
L 228.08379 252.745004 
L 229.277373 253.425088 
L 230.470956 253.874259 
L 232.858122 254.326594 
L 234.051705 254.184251 
L 238.826036 254.456285 
L 240.019619 254.434142 
L 241.213202 254.604954 
L 249.568282 254.510059 
L 250.761865 254.703013 
L 251.955448 254.665054 
L 254.342614 254.310778 
L 255.536197 254.304452 
L 256.729779 254.424653 
L 260.310528 254.415163 
L 261.504111 254.522711 
L 262.697694 254.336084 
L 265.08486 254.427816 
L 268.665608 254.298126 
L 269.859191 254.34241 
L 272.246357 254.253841 
L 273.43994 254.415163 
L 277.020689 254.184251 
L 278.214271 254.361389 
L 279.407854 254.190577 
L 281.79502 254.269657 
L 282.988603 253.950176 
L 285.375769 254.155782 
L 286.569352 253.991297 
L 287.762934 254.206393 
L 288.956517 253.947013 
L 290.1501 254.041908 
L 291.343683 253.991297 
L 292.537266 254.076703 
L 293.730849 253.836301 
L 294.924432 253.757222 
L 296.118015 253.848954 
L 297.311598 253.576921 
L 298.50518 253.687632 
L 300.892346 253.621205 
L 302.085929 253.383967 
L 308.053844 253.203665 
L 309.247426 252.963264 
L 310.441009 253.213155 
L 311.634592 252.947448 
L 312.828175 252.811431 
L 317.602507 252.688067 
L 318.79609 252.514092 
L 321.183255 252.548887 
L 322.376838 252.349607 
L 324.764004 252.169305 
L 325.957587 251.878293 
L 327.15117 251.751766 
L 328.344753 251.824519 
L 329.538336 251.641054 
L 330.731918 251.25831 
L 331.925501 251.429121 
L 333.119084 250.938828 
L 335.50625 250.632 
L 339.086999 250.451699 
L 340.280582 250.594042 
L 341.474164 250.312519 
L 342.667747 250.21446 
L 343.86133 250.420067 
L 347.442079 250.065791 
L 348.635662 249.733657 
L 349.829245 249.853858 
L 351.022828 249.670393 
L 354.603576 247.759833 
L 356.990742 245.580402 
L 358.184325 244.071565 
L 359.377908 242.923331 
L 360.571491 241.294293 
L 361.765074 238.662527 
L 364.152239 236.780435 
L 365.345822 234.366929 
L 366.539405 232.867582 
L 367.732988 229.04646 
L 368.926571 218.864184 
L 370.120154 195.181456 
L 372.50732 99.704033 
L 373.700902 75.581623 
L 374.894485 84.742192 
L 376.088068 29.88 
L 376.088068 29.88 
" clip-path="url(#p4b3636eeaa)" style="fill: none; stroke: #ff0000; stroke-width: 1.5; stroke-linecap: square"/>
   </g>
   <g id="line2d_14">
    <path d="M 71.724432 256.68 
L 100.370421 256.578778 
L 105.144753 256.221339 
L 107.531918 255.667782 
L 108.725501 255.079431 
L 109.919084 254.000787 
L 111.112667 251.675849 
L 112.30625 246.507213 
L 114.693416 227.003046 
L 115.886999 226.471632 
L 117.080582 229.141356 
L 119.467747 238.703649 
L 120.66133 242.65446 
L 121.854913 244.903481 
L 123.048496 246.162427 
L 126.629245 248.819498 
L 127.822828 249.392033 
L 129.01641 249.411013 
L 130.209993 250.15436 
L 132.597159 250.464351 
L 133.790742 250.951481 
L 134.984325 251.618912 
L 136.177908 251.546159 
L 137.371491 251.909925 
L 138.565074 251.894109 
L 142.145822 252.697556 
L 143.339405 252.722862 
L 144.532988 252.906326 
L 148.113737 253.137238 
L 149.30732 253.44723 
L 151.694485 253.172033 
L 152.888068 253.304887 
L 154.081651 253.602226 
L 155.275234 253.548452 
L 156.468817 253.656 
L 157.6624 253.545289 
L 158.855983 253.867933 
L 160.049566 253.807833 
L 161.243148 253.953339 
L 163.630314 253.757222 
L 164.823897 253.769874 
L 166.01748 254.070377 
L 167.211063 254.146293 
L 168.404646 253.956502 
L 169.598229 253.988134 
L 170.791811 254.139967 
L 171.985394 253.921707 
L 173.178977 253.871096 
L 174.37256 254.105172 
L 175.566143 254.222209 
L 176.759726 253.972318 
L 177.953309 254.28231 
L 179.146892 254.310778 
L 180.340475 254.190577 
L 183.921223 254.184251 
L 185.114806 254.06405 
L 186.308389 254.076703 
L 187.501972 254.241188 
L 189.889138 254.092519 
L 192.276303 254.20323 
L 194.663469 254.389858 
L 198.244218 254.102008 
L 199.437801 254.332921 
L 203.018549 254.393021 
L 204.212132 254.120987 
L 206.599298 254.298126 
L 207.792881 254.263331 
L 208.986464 254.111498 
L 210.180047 254.190577 
L 211.37363 254.124151 
L 214.954378 254.260167 
L 216.147961 254.026092 
L 217.341544 254.3519 
L 218.535127 254.127314 
L 219.72871 254.184251 
L 220.922293 254.029255 
L 222.115876 254.184251 
L 223.309459 254.000787 
L 224.503041 254.225372 
L 225.696624 254.14313 
L 226.890207 253.921707 
L 228.08379 254.083029 
L 230.470956 253.965992 
L 231.664539 254.029255 
L 232.858122 253.915381 
L 234.051705 253.975481 
L 235.245287 253.792017 
L 237.632453 253.852117 
L 238.826036 253.371314 
L 240.019619 253.763548 
L 241.213202 253.747732 
L 242.406785 253.554778 
L 243.600368 253.684469 
L 244.793951 253.409272 
L 245.987533 253.342845 
L 247.181116 253.437741 
L 248.374699 253.156218 
L 249.568282 253.222644 
L 251.955448 252.865205 
L 253.149031 252.988569 
L 254.342614 252.634293 
L 255.536197 252.817757 
L 256.729779 252.580519 
L 257.923362 252.466644 
L 259.116945 252.036452 
L 260.310528 252.175632 
L 261.504111 252.162979 
L 262.697694 251.827682 
L 263.891277 251.612586 
L 265.08486 250.799649 
L 266.278443 249.74631 
L 267.472025 249.1801 
L 269.859191 245.324184 
L 271.052774 241.325925 
L 272.246357 240.437071 
L 273.43994 237.681941 
L 274.633523 235.85995 
L 275.827106 234.910996 
L 277.020689 233.326243 
L 278.214271 230.466728 
L 279.407854 229.726544 
L 280.601437 230.893757 
L 281.79502 232.253925 
L 282.988603 232.848603 
L 284.182186 231.387213 
L 285.375769 230.726109 
L 286.569352 227.996285 
L 290.1501 218.551029 
L 291.343683 217.91523 
L 293.730849 219.620184 
L 294.924432 222.783364 
L 296.118015 224.829941 
L 297.311598 224.054962 
L 298.50518 225.699816 
L 299.698763 226.77846 
L 300.892346 225.494209 
L 302.085929 225.699816 
L 304.473095 228.337908 
L 305.666678 227.556603 
L 306.860261 225.231665 
L 308.053844 224.703414 
L 309.247426 225.06718 
L 310.441009 226.661423 
L 311.634592 224.839431 
L 312.828175 224.545255 
L 314.021758 227.012536 
L 315.215341 225.595431 
L 316.408924 221.954611 
L 317.602507 217.102293 
L 318.79609 219.708753 
L 319.989672 225.190544 
L 321.183255 228.065874 
L 322.376838 226.196435 
L 323.570421 226.585506 
L 324.764004 226.228067 
L 325.957587 228.815548 
L 327.15117 222.615715 
L 328.344753 215.024084 
L 329.538336 215.710494 
L 330.731918 220.3319 
L 331.925501 230.726109 
L 333.119084 232.611364 
L 334.312667 230.953858 
L 335.50625 225.519515 
L 336.699833 219.376619 
L 337.893416 224.754025 
L 339.086999 225.190544 
L 340.280582 205.164452 
L 341.474164 218.060736 
L 342.667747 229.05595 
L 343.86133 229.786644 
L 345.054913 227.442728 
L 346.248496 227.287732 
L 347.442079 226.901824 
L 348.635662 228.628921 
L 349.829245 228.49923 
L 351.022828 226.468469 
L 352.21641 228.448619 
L 353.409993 232.415247 
L 354.603576 234.037958 
L 355.797159 235.464552 
L 356.990742 238.966192 
L 358.184325 239.206594 
L 359.377908 239.643113 
L 360.571491 239.08323 
L 361.765074 242.806293 
L 362.958656 249.233874 
L 364.152239 254.14313 
L 365.345822 255.351464 
L 366.539405 255.841757 
L 367.732988 256.170728 
L 368.926571 256.183381 
L 370.120154 255.955632 
L 372.50732 255.806962 
L 373.700902 255.873389 
L 374.894485 256.101138 
L 376.088068 256.060017 
L 376.088068 256.060017 
" clip-path="url(#p4b3636eeaa)" style="fill: none; stroke: #008000; stroke-width: 1.5; stroke-linecap: square"/>
   </g>
   <g id="line2d_15">
    <path d="M 71.724432 256.006243 
L 72.918015 256.490209 
L 76.498763 256.382661 
L 78.885929 256.322561 
L 80.079512 256.218176 
L 81.273095 256.27195 
L 88.434592 255.743699 
L 97.983255 254.778929 
L 99.176838 254.326594 
L 100.370421 254.022929 
L 101.564004 253.943849 
L 102.757587 253.750895 
L 107.531918 251.799213 
L 108.725501 250.774343 
L 109.919084 250.043649 
L 111.112667 248.588586 
L 112.30625 246.687515 
L 113.499833 243.793205 
L 114.693416 238.697322 
L 115.886999 230.593255 
L 117.080582 223.517222 
L 118.274164 223.384368 
L 119.467747 225.756753 
L 120.66133 230.058678 
L 121.854913 232.27923 
L 123.048496 236.173105 
L 124.242079 237.833774 
L 125.435662 240.127079 
L 126.629245 241.224703 
L 127.822828 241.819381 
L 129.01641 243.445255 
L 130.209993 243.736268 
L 132.597159 245.026845 
L 133.790742 244.960418 
L 134.984325 245.257757 
L 136.177908 245.191331 
L 137.371491 245.295715 
L 138.565074 245.523464 
L 142.145822 245.40959 
L 143.339405 245.706929 
L 144.532988 245.880904 
L 145.726571 245.763866 
L 146.920154 245.178678 
L 148.113737 245.099598 
L 149.30732 244.45431 
L 150.500902 244.23605 
L 151.694485 244.277172 
L 152.888068 244.587163 
L 154.081651 244.65359 
L 155.275234 244.10636 
L 156.468817 244.179113 
L 157.6624 243.530661 
L 160.049566 242.850577 
L 161.243148 241.996519 
L 162.436731 241.958561 
L 163.630314 242.534259 
L 164.823897 242.208452 
L 166.01748 242.097741 
L 167.211063 242.360285 
L 168.404646 240.800837 
L 169.598229 242.423548 
L 170.791811 239.766477 
L 171.985394 241.405004 
L 173.178977 240.487682 
L 174.37256 240.250444 
L 175.566143 240.633188 
L 176.759726 240.275749 
L 177.953309 241.35123 
L 179.146892 241.120318 
L 180.340475 241.414494 
L 183.921223 243.451582 
L 185.114806 243.992485 
L 186.308389 243.021389 
L 187.501972 244.447983 
L 188.695555 244.413188 
L 189.889138 244.498594 
L 191.082721 246.86149 
L 192.276303 245.694276 
L 193.469886 247.332803 
L 194.663469 247.671264 
L 195.857052 249.335096 
L 197.050635 248.85113 
L 198.244218 250.458025 
L 199.437801 250.208134 
L 200.631384 250.847096 
L 201.824967 250.850259 
L 203.018549 251.584117 
L 205.405715 251.947883 
L 206.599298 252.245222 
L 207.792881 252.877858 
L 208.986464 252.817757 
L 210.180047 253.058159 
L 212.567213 253.31754 
L 213.760795 253.551615 
L 214.954378 253.478862 
L 216.147961 253.750895 
L 217.341544 253.792017 
L 218.535127 253.709774 
L 226.890207 254.035582 
L 229.277373 253.703448 
L 231.664539 253.975481 
L 232.858122 253.839464 
L 234.051705 253.921707 
L 235.245287 253.883749 
L 236.43887 253.991297 
L 238.826036 253.85528 
L 240.019619 253.975481 
L 241.213202 253.915381 
L 242.406785 253.706611 
L 248.374699 253.551615 
L 250.761865 253.361824 
L 251.955448 253.523146 
L 253.149031 253.545289 
L 255.536197 253.355498 
L 260.310528 253.083464 
L 265.08486 252.280017 
L 266.278443 251.941556 
L 267.472025 251.79605 
L 268.665608 251.324736 
L 269.859191 250.688937 
L 272.246357 250.413741 
L 274.633523 249.461623 
L 275.827106 248.269105 
L 277.020689 248.050845 
L 278.214271 247.105054 
L 280.601437 244.840218 
L 281.79502 241.6201 
L 282.988603 239.541891 
L 284.182186 237.836937 
L 285.375769 235.258946 
L 286.569352 233.111146 
L 287.762934 230.700803 
L 288.956517 226.411531 
L 290.1501 224.089757 
L 291.343683 223.283146 
L 292.537266 221.230243 
L 293.730849 218.658577 
L 294.924432 220.335063 
L 296.118015 220.692502 
L 298.50518 226.303983 
L 299.698763 227.379464 
L 300.892346 227.120084 
L 302.085929 228.935749 
L 303.279512 231.026611 
L 304.473095 232.203314 
L 305.666678 231.687715 
L 306.860261 231.924954 
L 308.053844 229.963782 
L 310.441009 225.060854 
L 311.634592 223.548854 
L 312.828175 222.561941 
L 314.021758 222.416435 
L 315.215341 220.771582 
L 316.408924 220.082008 
L 317.602507 217.757071 
L 318.79609 217.725439 
L 319.989672 216.899849 
L 322.376838 221.372586 
L 323.570421 226.364084 
L 324.764004 216.033138 
L 325.957587 225.022895 
L 327.15117 223.254678 
L 328.344753 220.202209 
L 329.538336 224.693925 
L 330.731918 225.525841 
L 331.925501 226.054092 
L 333.119084 227.553439 
L 334.312667 227.411096 
L 335.50625 234.376418 
L 336.699833 237.134711 
L 337.893416 243.714126 
L 339.086999 235.85046 
L 340.280582 245.694276 
L 341.474164 252.877858 
L 342.667747 253.959665 
L 343.86133 254.721992 
L 346.248496 255.319833 
L 348.635662 255.787983 
L 353.409993 255.762678 
L 354.603576 255.493808 
L 355.797159 255.512787 
L 356.990742 255.199632 
L 358.184325 255.215448 
L 359.377908 255.035146 
L 361.765074 255.414728 
L 373.700902 256.651531 
L 376.088068 256.661021 
L 376.088068 256.661021 
" clip-path="url(#p4b3636eeaa)" style="fill: none; stroke: #0000ff; stroke-width: 1.5; stroke-linecap: square"/>
   </g>
   <g id="patch_3">
    <path d="M 56.50625 256.68 
L 56.50625 7.2 
" style="fill: none; stroke: #000000; stroke-width: 0.8; stroke-linejoin: miter; stroke-linecap: square"/>
   </g>
   <g id="patch_4">
    <path d="M 391.30625 256.68 
L 391.30625 7.2 
" style="fill: none; stroke: #000000; stroke-width: 0.8; stroke-linejoin: miter; stroke-linecap: square"/>
   </g>
   <g id="patch_5">
    <path d="M 56.50625 256.68 
L 391.30625 256.68 
" style="fill: none; stroke: #000000; stroke-width: 0.8; stroke-linejoin: miter; stroke-linecap: square"/>
   </g>
   <g id="patch_6">
    <path d="M 56.50625 7.2 
L 391.30625 7.2 
" style="fill: none; stroke: #000000; stroke-width: 0.8; stroke-linejoin: miter; stroke-linecap: square"/>
   </g>
  </g>
 </g>
 <defs>
  <clipPath id="p4b3636eeaa">
   <rect x="56.50625" y="7.2" width="334.8" height="249.48"/>
  </clipPath>
 </defs>
</svg>
