<?xml version="1.0" encoding="utf-8" standalone="no"?>
<!DOCTYPE svg PUBLIC "-//W3C//DTD SVG 1.1//EN"
  "http://www.w3.org/Graphics/SVG/1.1/DTD/svg11.dtd">
<svg xmlns:xlink="http://www.w3.org/1999/xlink" width="720pt" height="46.8pt" viewBox="0 0 720 46.8" xmlns="http://www.w3.org/2000/svg" version="1.1">
 <metadata>
  <rdf:RDF xmlns:dc="http://purl.org/dc/elements/1.1/" xmlns:cc="http://creativecommons.org/ns#" xmlns:rdf="http://www.w3.org/1999/02/22-rdf-syntax-ns#">
   <cc:Work>
    <dc:type rdf:resource="http://purl.org/dc/dcmitype/StillImage"/>
    <dc:date>2024-07-07T03:10:07.135293</dc:date>
    <dc:format>image/svg+xml</dc:format>
    <dc:creator>
     <cc:Agent>
      <dc:title>Matplotlib v3.7.1, https://matplotlib.org/</dc:title>
     </cc:Agent>
    </dc:creator>
   </cc:Work>
  </rdf:RDF>
 </metadata>
 <defs>
  <style type="text/css">*{stroke-linejoin: round; stroke-linecap: butt}</style>
 </defs>
 <g id="figure_1">
  <g id="patch_1">
   <path d="M 0 46.8 
L 720 46.8 
L 720 0 
L 0 0 
z
" style="fill: #ffffff"/>
  </g>
  <g id="axes_1">
   <g id="patch_2">
    <path d="M 0 44.672727 
L 240.351562 44.672727 
L 240.351562 2.127273 
L 0 2.127273 
z
" clip-path="url(#p753a8bb935)" style="fill: #a0c8c0"/>
   </g>
   <g id="patch_3">
    <path d="M 240.351562 44.672727 
L 335.223437 44.672727 
L 335.223437 2.127273 
L 240.351562 2.127273 
z
" clip-path="url(#p753a8bb935)" style="fill: #d99299"/>
   </g>
   <g id="patch_4">
    <path d="M 335.223437 44.672727 
L 416.574219 44.672727 
L 416.574219 2.127273 
L 335.223437 2.127273 
z
" clip-path="url(#p753a8bb935)" style="fill: #dab847"/>
   </g>
   <g id="patch_5">
    <path d="M 416.574219 44.672727 
L 475.776562 44.672727 
L 475.776562 2.127273 
L 416.574219 2.127273 
z
" clip-path="url(#p753a8bb935)" style="fill: #2c2822"/>
   </g>
   <g id="patch_6">
    <path d="M 475.776562 44.672727 
L 527.346875 44.672727 
L 527.346875 2.127273 
L 475.776562 2.127273 
z
" clip-path="url(#p753a8bb935)" style="fill: #cc898e"/>
   </g>
   <g id="patch_7">
    <path d="M 527.346875 44.672727 
L 567.301562 44.672727 
L 567.301562 2.127273 
L 527.346875 2.127273 
z
" clip-path="url(#p753a8bb935)" style="fill: #c9aa40"/>
   </g>
   <g id="patch_8">
    <path d="M 567.301562 44.672727 
L 603.030469 44.672727 
L 603.030469 2.127273 
L 567.301562 2.127273 
z
" clip-path="url(#p753a8bb935)" style="fill: #403930"/>
   </g>
   <g id="patch_9">
    <path d="M 603.030469 44.672727 
L 625.621875 44.672727 
L 625.621875 2.127273 
L 603.030469 2.127273 
z
" clip-path="url(#p753a8bb935)" style="fill: #605340"/>
   </g>
   <g id="patch_10">
    <path d="M 625.621875 44.672727 
L 648.114062 44.672727 
L 648.114062 2.127273 
L 625.621875 2.127273 
z
" clip-path="url(#p753a8bb935)" style="fill: #b17c7f"/>
   </g>
   <g id="patch_11">
    <path d="M 648.114063 44.672727 
L 669.992188 44.672727 
L 669.992188 2.127273 
L 648.114063 2.127273 
z
" clip-path="url(#p753a8bb935)" style="fill: #ad943c"/>
   </g>
   <g id="patch_12">
    <path d="M 669.992188 44.672727 
L 687.665625 44.672727 
L 687.665625 2.127273 
L 669.992188 2.127273 
z
" clip-path="url(#p753a8bb935)" style="fill: #7ca89d"/>
   </g>
   <g id="patch_13">
    <path d="M 687.665625 44.672727 
L 701.60625 44.672727 
L 701.60625 2.127273 
L 687.665625 2.127273 
z
" clip-path="url(#p753a8bb935)" style="fill: #887639"/>
   </g>
   <g id="patch_14">
    <path d="M 701.60625 44.672727 
L 712.024219 44.672727 
L 712.024219 2.127273 
L 701.60625 2.127273 
z
" clip-path="url(#p753a8bb935)" style="fill: #8c6a69"/>
   </g>
   <g id="patch_15">
    <path d="M 712.024219 44.672727 
L 717.150781 44.672727 
L 717.150781 2.127273 
L 712.024219 2.127273 
z
" clip-path="url(#p753a8bb935)" style="fill: #6c8880"/>
   </g>
   <g id="patch_16">
    <path d="M 717.150781 44.672727 
L 720 44.672727 
L 720 2.127273 
L 717.150781 2.127273 
z
" clip-path="url(#p753a8bb935)" style="fill: #a03324"/>
   </g>
  </g>
 </g>
 <defs>
  <clipPath id="p753a8bb935">
   <rect x="0" y="0" width="720" height="46.8"/>
  </clipPath>
 </defs>
</svg>
