<?xml version="1.0" encoding="utf-8" standalone="no"?>
<!DOCTYPE svg PUBLIC "-//W3C//DTD SVG 1.1//EN"
  "http://www.w3.org/Graphics/SVG/1.1/DTD/svg11.dtd">
<svg xmlns:xlink="http://www.w3.org/1999/xlink" width="720pt" height="46.8pt" viewBox="0 0 720 46.8" xmlns="http://www.w3.org/2000/svg" version="1.1">
 <metadata>
  <rdf:RDF xmlns:dc="http://purl.org/dc/elements/1.1/" xmlns:cc="http://creativecommons.org/ns#" xmlns:rdf="http://www.w3.org/1999/02/22-rdf-syntax-ns#">
   <cc:Work>
    <dc:type rdf:resource="http://purl.org/dc/dcmitype/StillImage"/>
    <dc:date>2024-06-29T20:29:26.033940</dc:date>
    <dc:format>image/svg+xml</dc:format>
    <dc:creator>
     <cc:Agent>
      <dc:title>Matplotlib v3.7.1, https://matplotlib.org/</dc:title>
     </cc:Agent>
    </dc:creator>
   </cc:Work>
  </rdf:RDF>
 </metadata>
 <defs>
  <style type="text/css">*{stroke-linejoin: round; stroke-linecap: butt}</style>
 </defs>
 <g id="figure_1">
  <g id="patch_1">
   <path d="M 0 46.8 
L 720 46.8 
L 720 0 
L 0 0 
z
" style="fill: #ffffff"/>
  </g>
  <g id="axes_1">
   <g id="patch_2">
    <path d="M 0 44.672727 
L 100.125 44.672727 
L 100.125 2.127273 
L 0 2.127273 
z
" clip-path="url(#p4535eff5bc)" style="fill: #f9dbd8"/>
   </g>
   <g id="patch_3">
    <path d="M 100.125 44.672727 
L 189.651563 44.672727 
L 189.651563 2.127273 
L 100.125 2.127273 
z
" clip-path="url(#p4535eff5bc)" style="fill: #4dbdc2"/>
   </g>
   <g id="patch_4">
    <path d="M 189.651563 44.672727 
L 258.941406 44.672727 
L 258.941406 2.127273 
L 189.651563 2.127273 
z
" clip-path="url(#p4535eff5bc)" style="fill: #fde54d"/>
   </g>
   <g id="patch_5">
    <path d="M 258.941406 44.672727 
L 325.063281 44.672727 
L 325.063281 2.127273 
L 258.941406 2.127273 
z
" clip-path="url(#p4535eff5bc)" style="fill: #262827"/>
   </g>
   <g id="patch_6">
    <path d="M 325.063281 44.672727 
L 378.457813 44.672727 
L 378.457813 2.127273 
L 325.063281 2.127273 
z
" clip-path="url(#p4535eff5bc)" style="fill: #f3cbc5"/>
   </g>
   <g id="patch_7">
    <path d="M 378.457813 44.672727 
L 429.8375 44.672727 
L 429.8375 2.127273 
L 378.457813 2.127273 
z
" clip-path="url(#p4535eff5bc)" style="fill: #71cad2"/>
   </g>
   <g id="patch_8">
    <path d="M 429.8375 44.672727 
L 478.15625 44.672727 
L 478.15625 2.127273 
L 429.8375 2.127273 
z
" clip-path="url(#p4535eff5bc)" style="fill: #fceb67"/>
   </g>
   <g id="patch_9">
    <path d="M 478.15625 44.672727 
L 525.115625 44.672727 
L 525.115625 2.127273 
L 478.15625 2.127273 
z
" clip-path="url(#p4535eff5bc)" style="fill: #2cb3bb"/>
   </g>
   <g id="patch_10">
    <path d="M 525.115625 44.672727 
L 565.8875 44.672727 
L 565.8875 2.127273 
L 525.115625 2.127273 
z
" clip-path="url(#p4535eff5bc)" style="fill: #08a9b0"/>
   </g>
   <g id="patch_11">
    <path d="M 565.8875 44.672727 
L 592.802344 44.672727 
L 592.802344 2.127273 
L 565.8875 2.127273 
z
" clip-path="url(#p4535eff5bc)" style="fill: #f9d82d"/>
   </g>
   <g id="patch_12">
    <path d="M 592.802344 44.672727 
L 614.439844 44.672727 
L 614.439844 2.127273 
L 592.802344 2.127273 
z
" clip-path="url(#p4535eff5bc)" style="fill: #dab4a8"/>
   </g>
   <g id="patch_13">
    <path d="M 614.439844 44.672727 
L 635.886719 44.672727 
L 635.886719 2.127273 
L 614.439844 2.127273 
z
" clip-path="url(#p4535eff5bc)" style="fill: #403e32"/>
   </g>
   <g id="patch_14">
    <path d="M 635.886719 44.672727 
L 650.340625 44.672727 
L 650.340625 2.127273 
L 635.886719 2.127273 
z
" clip-path="url(#p4535eff5bc)" style="fill: #dabb4b"/>
   </g>
   <g id="patch_15">
    <path d="M 650.340625 44.672727 
L 664.678125 44.672727 
L 664.678125 2.127273 
L 650.340625 2.127273 
z
" clip-path="url(#p4535eff5bc)" style="fill: #5f5849"/>
   </g>
   <g id="patch_16">
    <path d="M 664.678125 44.672727 
L 677.567969 44.672727 
L 677.567969 2.127273 
L 664.678125 2.127273 
z
" clip-path="url(#p4535eff5bc)" style="fill: #877966"/>
   </g>
   <g id="patch_17">
    <path d="M 677.567969 44.672727 
L 690.396094 44.672727 
L 690.396094 2.127273 
L 677.567969 2.127273 
z
" clip-path="url(#p4535eff5bc)" style="fill: #b79785"/>
   </g>
   <g id="patch_18">
    <path d="M 690.396094 44.672727 
L 701.841406 44.672727 
L 701.841406 2.127273 
L 690.396094 2.127273 
z
" clip-path="url(#p4535eff5bc)" style="fill: #b3973a"/>
   </g>
   <g id="patch_19">
    <path d="M 701.841406 44.672727 
L 711.060938 44.672727 
L 711.060938 2.127273 
L 701.841406 2.127273 
z
" clip-path="url(#p4535eff5bc)" style="fill: #88632b"/>
   </g>
   <g id="patch_20">
    <path d="M 711.060938 44.672727 
L 717.207813 44.672727 
L 717.207813 2.127273 
L 711.060938 2.127273 
z
" clip-path="url(#p4535eff5bc)" style="fill: #90bba1"/>
   </g>
   <g id="patch_21">
    <path d="M 717.207813 44.672727 
L 720 44.672727 
L 720 2.127273 
L 717.207813 2.127273 
z
" clip-path="url(#p4535eff5bc)" style="fill: #268479"/>
   </g>
  </g>
 </g>
 <defs>
  <clipPath id="p4535eff5bc">
   <rect x="0" y="0" width="720" height="46.8"/>
  </clipPath>
 </defs>
</svg>
