<?xml version="1.0" encoding="utf-8" standalone="no"?>
<!DOCTYPE svg PUBLIC "-//W3C//DTD SVG 1.1//EN"
  "http://www.w3.org/Graphics/SVG/1.1/DTD/svg11.dtd">
<svg xmlns:xlink="http://www.w3.org/1999/xlink" width="720pt" height="46.8pt" viewBox="0 0 720 46.8" xmlns="http://www.w3.org/2000/svg" version="1.1">
 <metadata>
  <rdf:RDF xmlns:dc="http://purl.org/dc/elements/1.1/" xmlns:cc="http://creativecommons.org/ns#" xmlns:rdf="http://www.w3.org/1999/02/22-rdf-syntax-ns#">
   <cc:Work>
    <dc:type rdf:resource="http://purl.org/dc/dcmitype/StillImage"/>
    <dc:date>2024-06-29T20:33:53.703376</dc:date>
    <dc:format>image/svg+xml</dc:format>
    <dc:creator>
     <cc:Agent>
      <dc:title>Matplotlib v3.7.1, https://matplotlib.org/</dc:title>
     </cc:Agent>
    </dc:creator>
   </cc:Work>
  </rdf:RDF>
 </metadata>
 <defs>
  <style type="text/css">*{stroke-linejoin: round; stroke-linecap: butt}</style>
 </defs>
 <g id="figure_1">
  <g id="patch_1">
   <path d="M 0 46.8 
L 720 46.8 
L 720 0 
L 0 0 
z
" style="fill: #ffffff"/>
  </g>
  <g id="axes_1">
   <g id="patch_2">
    <path d="M 0 44.672727 
L 248.721094 44.672727 
L 248.721094 2.127273 
L 0 2.127273 
z
" clip-path="url(#pb2acbc92ae)" style="fill: #568cc7"/>
   </g>
   <g id="patch_3">
    <path d="M 248.721094 44.672727 
L 318.098438 44.672727 
L 318.098438 2.127273 
L 248.721094 2.127273 
z
" clip-path="url(#pb2acbc92ae)" style="fill: #f9d46f"/>
   </g>
   <g id="patch_4">
    <path d="M 318.098438 44.672727 
L 385.2 44.672727 
L 385.2 2.127273 
L 318.098438 2.127273 
z
" clip-path="url(#pb2acbc92ae)" style="fill: #d594a4"/>
   </g>
   <g id="patch_5">
    <path d="M 385.2 44.672727 
L 436.575 44.672727 
L 436.575 2.127273 
L 385.2 2.127273 
z
" clip-path="url(#pb2acbc92ae)" style="fill: #dfa0b0"/>
   </g>
   <g id="patch_6">
    <path d="M 436.575 44.672727 
L 487.152344 44.672727 
L 487.152344 2.127273 
L 436.575 2.127273 
z
" clip-path="url(#pb2acbc92ae)" style="fill: #0b0709"/>
   </g>
   <g id="patch_7">
    <path d="M 487.152344 44.672727 
L 530.445312 44.672727 
L 530.445312 2.127273 
L 487.152344 2.127273 
z
" clip-path="url(#pb2acbc92ae)" style="fill: #edc15d"/>
   </g>
   <g id="patch_8">
    <path d="M 530.445312 44.672727 
L 563.815625 44.672727 
L 563.815625 2.127273 
L 530.445312 2.127273 
z
" clip-path="url(#pb2acbc92ae)" style="fill: #1f1315"/>
   </g>
   <g id="patch_9">
    <path d="M 563.815625 44.672727 
L 592.775781 44.672727 
L 592.775781 2.127273 
L 563.815625 2.127273 
z
" clip-path="url(#pb2acbc92ae)" style="fill: #c68894"/>
   </g>
   <g id="patch_10">
    <path d="M 592.775781 44.672727 
L 609.994531 44.672727 
L 609.994531 2.127273 
L 592.775781 2.127273 
z
" clip-path="url(#pb2acbc92ae)" style="fill: #73a2ad"/>
   </g>
   <g id="patch_11">
    <path d="M 609.994531 44.672727 
L 627.183594 44.672727 
L 627.183594 2.127273 
L 609.994531 2.127273 
z
" clip-path="url(#pb2acbc92ae)" style="fill: #d5a24f"/>
   </g>
   <g id="patch_12">
    <path d="M 627.183594 44.672727 
L 642.735938 44.672727 
L 642.735938 2.127273 
L 627.183594 2.127273 
z
" clip-path="url(#pb2acbc92ae)" style="fill: #aa767f"/>
   </g>
   <g id="patch_13">
    <path d="M 642.735938 44.672727 
L 655.390625 44.672727 
L 655.390625 2.127273 
L 642.735938 2.127273 
z
" clip-path="url(#pb2acbc92ae)" style="fill: #392a2f"/>
   </g>
   <g id="patch_14">
    <path d="M 655.390625 44.672727 
L 666.273438 44.672727 
L 666.273438 2.127273 
L 655.390625 2.127273 
z
" clip-path="url(#pb2acbc92ae)" style="fill: #53210a"/>
   </g>
   <g id="patch_15">
    <path d="M 666.273438 44.672727 
L 676.586719 44.672727 
L 676.586719 2.127273 
L 666.273438 2.127273 
z
" clip-path="url(#pb2acbc92ae)" style="fill: #865f64"/>
   </g>
   <g id="patch_16">
    <path d="M 676.586719 44.672727 
L 686.846875 44.672727 
L 686.846875 2.127273 
L 676.586719 2.127273 
z
" clip-path="url(#pb2acbc92ae)" style="fill: #ac773b"/>
   </g>
   <g id="patch_17">
    <path d="M 686.846875 44.672727 
L 696.894531 44.672727 
L 696.894531 2.127273 
L 686.846875 2.127273 
z
" clip-path="url(#pb2acbc92ae)" style="fill: #7e4922"/>
   </g>
   <g id="patch_18">
    <path d="M 696.894531 44.672727 
L 706.819531 44.672727 
L 706.819531 2.127273 
L 696.894531 2.127273 
z
" clip-path="url(#pb2acbc92ae)" style="fill: #5c474c"/>
   </g>
   <g id="patch_19">
    <path d="M 706.819531 44.672727 
L 713.217187 44.672727 
L 713.217187 2.127273 
L 706.819531 2.127273 
z
" clip-path="url(#pb2acbc92ae)" style="fill: #627f8f"/>
   </g>
   <g id="patch_20">
    <path d="M 713.217187 44.672727 
L 718.011719 44.672727 
L 718.011719 2.127273 
L 713.217187 2.127273 
z
" clip-path="url(#pb2acbc92ae)" style="fill: #e7d8b8"/>
   </g>
   <g id="patch_21">
    <path d="M 718.011719 44.672727 
L 720 44.672727 
L 720 2.127273 
L 718.011719 2.127273 
z
" clip-path="url(#pb2acbc92ae)" style="fill: #9b2529"/>
   </g>
  </g>
 </g>
 <defs>
  <clipPath id="pb2acbc92ae">
   <rect x="0" y="0" width="720" height="46.8"/>
  </clipPath>
 </defs>
</svg>
