<?xml version="1.0" encoding="utf-8" standalone="no"?>
<!DOCTYPE svg PUBLIC "-//W3C//DTD SVG 1.1//EN"
  "http://www.w3.org/Graphics/SVG/1.1/DTD/svg11.dtd">
<svg xmlns:xlink="http://www.w3.org/1999/xlink" width="720pt" height="46.8pt" viewBox="0 0 720 46.8" xmlns="http://www.w3.org/2000/svg" version="1.1">
 <metadata>
  <rdf:RDF xmlns:dc="http://purl.org/dc/elements/1.1/" xmlns:cc="http://creativecommons.org/ns#" xmlns:rdf="http://www.w3.org/1999/02/22-rdf-syntax-ns#">
   <cc:Work>
    <dc:type rdf:resource="http://purl.org/dc/dcmitype/StillImage"/>
    <dc:date>2024-06-29T20:20:31.359055</dc:date>
    <dc:format>image/svg+xml</dc:format>
    <dc:creator>
     <cc:Agent>
      <dc:title>Matplotlib v3.7.1, https://matplotlib.org/</dc:title>
     </cc:Agent>
    </dc:creator>
   </cc:Work>
  </rdf:RDF>
 </metadata>
 <defs>
  <style type="text/css">*{stroke-linejoin: round; stroke-linecap: butt}</style>
 </defs>
 <g id="figure_1">
  <g id="patch_1">
   <path d="M 0 46.8 
L 720 46.8 
L 720 0 
L 0 0 
z
" style="fill: #ffffff"/>
  </g>
  <g id="axes_1">
   <g id="patch_2">
    <path d="M 0 44.672727 
L 252.992188 44.672727 
L 252.992188 2.127273 
L 0 2.127273 
z
" clip-path="url(#p4700e114bc)" style="fill: #e27b54"/>
   </g>
   <g id="patch_3">
    <path d="M 252.992188 44.672727 
L 338.116406 44.672727 
L 338.116406 2.127273 
L 252.992188 2.127273 
z
" clip-path="url(#p4700e114bc)" style="fill: #e4b0bd"/>
   </g>
   <g id="patch_4">
    <path d="M 338.116406 44.672727 
L 410.044531 44.672727 
L 410.044531 2.127273 
L 338.116406 2.127273 
z
" clip-path="url(#p4700e114bc)" style="fill: #f5c65c"/>
   </g>
   <g id="patch_5">
    <path d="M 410.044531 44.672727 
L 462.010938 44.672727 
L 462.010938 2.127273 
L 410.044531 2.127273 
z
" clip-path="url(#p4700e114bc)" style="fill: #dba4b1"/>
   </g>
   <g id="patch_6">
    <path d="M 462.010938 44.672727 
L 509.18125 44.672727 
L 509.18125 2.127273 
L 462.010938 2.127273 
z
" clip-path="url(#p4700e114bc)" style="fill: #ebba53"/>
   </g>
   <g id="patch_7">
    <path d="M 509.18125 44.672727 
L 543.099219 44.672727 
L 543.099219 2.127273 
L 509.18125 2.127273 
z
" clip-path="url(#p4700e114bc)" style="fill: #05080b"/>
   </g>
   <g id="patch_8">
    <path d="M 543.099219 44.672727 
L 568.933594 44.672727 
L 568.933594 2.127273 
L 543.099219 2.127273 
z
" clip-path="url(#p4700e114bc)" style="fill: #171a1c"/>
   </g>
   <g id="patch_9">
    <path d="M 568.933594 44.672727 
L 591.178125 44.672727 
L 591.178125 2.127273 
L 568.933594 2.127273 
z
" clip-path="url(#p4700e114bc)" style="fill: #2f2c29"/>
   </g>
   <g id="patch_10">
    <path d="M 591.178125 44.672727 
L 609.785156 44.672727 
L 609.785156 2.127273 
L 591.178125 2.127273 
z
" clip-path="url(#p4700e114bc)" style="fill: #d3a751"/>
   </g>
   <g id="patch_11">
    <path d="M 609.785156 44.672727 
L 627.675781 44.672727 
L 627.675781 2.127273 
L 609.785156 2.127273 
z
" clip-path="url(#p4700e114bc)" style="fill: #c2909c"/>
   </g>
   <g id="patch_12">
    <path d="M 627.675781 44.672727 
L 640.016406 44.672727 
L 640.016406 2.127273 
L 627.675781 2.127273 
z
" clip-path="url(#p4700e114bc)" style="fill: #473f43"/>
   </g>
   <g id="patch_13">
    <path d="M 640.016406 44.672727 
L 651.73125 44.672727 
L 651.73125 2.127273 
L 640.016406 2.127273 
z
" clip-path="url(#p4700e114bc)" style="fill: #a3cac9"/>
   </g>
   <g id="patch_14">
    <path d="M 651.73125 44.672727 
L 662.80625 44.672727 
L 662.80625 2.127273 
L 651.73125 2.127273 
z
" clip-path="url(#p4700e114bc)" style="fill: #b18e49"/>
   </g>
   <g id="patch_15">
    <path d="M 662.80625 44.672727 
L 672.916406 44.672727 
L 672.916406 2.127273 
L 662.80625 2.127273 
z
" clip-path="url(#p4700e114bc)" style="fill: #614c28"/>
   </g>
   <g id="patch_16">
    <path d="M 672.916406 44.672727 
L 682.985938 44.672727 
L 682.985938 2.127273 
L 672.916406 2.127273 
z
" clip-path="url(#p4700e114bc)" style="fill: #8a6e3b"/>
   </g>
   <g id="patch_17">
    <path d="M 682.985938 44.672727 
L 692.757813 44.672727 
L 692.757813 2.127273 
L 682.985938 2.127273 
z
" clip-path="url(#p4700e114bc)" style="fill: #9b7680"/>
   </g>
   <g id="patch_18">
    <path d="M 692.757813 44.672727 
L 702.479688 44.672727 
L 702.479688 2.127273 
L 692.757813 2.127273 
z
" clip-path="url(#p4700e114bc)" style="fill: #675861"/>
   </g>
   <g id="patch_19">
    <path d="M 702.479688 44.672727 
L 711.764063 44.672727 
L 711.764063 2.127273 
L 702.479688 2.127273 
z
" clip-path="url(#p4700e114bc)" style="fill: #7086a7"/>
   </g>
   <g id="patch_20">
    <path d="M 711.764063 44.672727 
L 717.564844 44.672727 
L 717.564844 2.127273 
L 711.764063 2.127273 
z
" clip-path="url(#p4700e114bc)" style="fill: #d46f3f"/>
   </g>
   <g id="patch_21">
    <path d="M 717.564844 44.672727 
L 720 44.672727 
L 720 2.127273 
L 717.564844 2.127273 
z
" clip-path="url(#p4700e114bc)" style="fill: #ac3b33"/>
   </g>
  </g>
 </g>
 <defs>
  <clipPath id="p4700e114bc">
   <rect x="0" y="0" width="720" height="46.8"/>
  </clipPath>
 </defs>
</svg>
