<?xml version="1.0" encoding="utf-8" standalone="no"?>
<!DOCTYPE svg PUBLIC "-//W3C//DTD SVG 1.1//EN"
  "http://www.w3.org/Graphics/SVG/1.1/DTD/svg11.dtd">
<svg xmlns:xlink="http://www.w3.org/1999/xlink" width="720pt" height="46.8pt" viewBox="0 0 720 46.8" xmlns="http://www.w3.org/2000/svg" version="1.1">
 <metadata>
  <rdf:RDF xmlns:dc="http://purl.org/dc/elements/1.1/" xmlns:cc="http://creativecommons.org/ns#" xmlns:rdf="http://www.w3.org/1999/02/22-rdf-syntax-ns#">
   <cc:Work>
    <dc:type rdf:resource="http://purl.org/dc/dcmitype/StillImage"/>
    <dc:date>2024-07-06T02:15:14.405017</dc:date>
    <dc:format>image/svg+xml</dc:format>
    <dc:creator>
     <cc:Agent>
      <dc:title>Matplotlib v3.7.1, https://matplotlib.org/</dc:title>
     </cc:Agent>
    </dc:creator>
   </cc:Work>
  </rdf:RDF>
 </metadata>
 <defs>
  <style type="text/css">*{stroke-linejoin: round; stroke-linecap: butt}</style>
 </defs>
 <g id="figure_1">
  <g id="patch_1">
   <path d="M 0 46.8 
L 720 46.8 
L 720 0 
L 0 0 
z
" style="fill: #ffffff"/>
  </g>
  <g id="axes_1">
   <g id="patch_2">
    <path d="M 0 44.672727 
L 152.372656 44.672727 
L 152.372656 2.127273 
L 0 2.127273 
z
" clip-path="url(#pcdf0dc462f)" style="fill: #f7d5d2"/>
   </g>
   <g id="patch_3">
    <path d="M 152.372656 44.672727 
L 257.629687 44.672727 
L 257.629687 2.127273 
L 152.372656 2.127273 
z
" clip-path="url(#pcdf0dc462f)" style="fill: #45babf"/>
   </g>
   <g id="patch_4">
    <path d="M 257.629687 44.672727 
L 362.053125 44.672727 
L 362.053125 2.127273 
L 257.629687 2.127273 
z
" clip-path="url(#pcdf0dc462f)" style="fill: #fce85b"/>
   </g>
   <g id="patch_5">
    <path d="M 362.053125 44.672727 
L 443.80625 44.672727 
L 443.80625 2.127273 
L 362.053125 2.127273 
z
" clip-path="url(#pcdf0dc462f)" style="fill: #2a2b29"/>
   </g>
   <g id="patch_6">
    <path d="M 443.80625 44.672727 
L 510.41875 44.672727 
L 510.41875 2.127273 
L 443.80625 2.127273 
z
" clip-path="url(#pcdf0dc462f)" style="fill: #6ec8cf"/>
   </g>
   <g id="patch_7">
    <path d="M 510.41875 44.672727 
L 572.352344 44.672727 
L 572.352344 2.127273 
L 510.41875 2.127273 
z
" clip-path="url(#pcdf0dc462f)" style="fill: #11abb2"/>
   </g>
   <g id="patch_8">
    <path d="M 572.352344 44.672727 
L 623.742969 44.672727 
L 623.742969 2.127273 
L 572.352344 2.127273 
z
" clip-path="url(#pcdf0dc462f)" style="fill: #f4d436"/>
   </g>
   <g id="patch_9">
    <path d="M 623.742969 44.672727 
L 657.583594 44.672727 
L 657.583594 2.127273 
L 623.742969 2.127273 
z
" clip-path="url(#pcdf0dc462f)" style="fill: #d1b1a1"/>
   </g>
   <g id="patch_10">
    <path d="M 657.583594 44.672727 
L 689.3125 44.672727 
L 689.3125 2.127273 
L 657.583594 2.127273 
z
" clip-path="url(#pcdf0dc462f)" style="fill: #655a42"/>
   </g>
   <g id="patch_11">
    <path d="M 689.3125 44.672727 
L 720 44.672727 
L 720 2.127273 
L 689.3125 2.127273 
z
" clip-path="url(#pcdf0dc462f)" style="fill: #a58d56"/>
   </g>
  </g>
 </g>
 <defs>
  <clipPath id="pcdf0dc462f">
   <rect x="0" y="0" width="720" height="46.8"/>
  </clipPath>
 </defs>
</svg>
