<?xml version="1.0" encoding="utf-8" standalone="no"?>
<!DOCTYPE svg PUBLIC "-//W3C//DTD SVG 1.1//EN"
  "http://www.w3.org/Graphics/SVG/1.1/DTD/svg11.dtd">
<svg xmlns:xlink="http://www.w3.org/1999/xlink" width="720pt" height="46.8pt" viewBox="0 0 720 46.8" xmlns="http://www.w3.org/2000/svg" version="1.1">
 <metadata>
  <rdf:RDF xmlns:dc="http://purl.org/dc/elements/1.1/" xmlns:cc="http://creativecommons.org/ns#" xmlns:rdf="http://www.w3.org/1999/02/22-rdf-syntax-ns#">
   <cc:Work>
    <dc:type rdf:resource="http://purl.org/dc/dcmitype/StillImage"/>
    <dc:date>2024-07-10T15:25:08.011751</dc:date>
    <dc:format>image/svg+xml</dc:format>
    <dc:creator>
     <cc:Agent>
      <dc:title>Matplotlib v3.7.1, https://matplotlib.org/</dc:title>
     </cc:Agent>
    </dc:creator>
   </cc:Work>
  </rdf:RDF>
 </metadata>
 <defs>
  <style type="text/css">*{stroke-linejoin: round; stroke-linecap: butt}</style>
 </defs>
 <g id="figure_1">
  <g id="patch_1">
   <path d="M 0 46.8 
L 720 46.8 
L 720 0 
L 0 0 
z
" style="fill: #ffffff"/>
  </g>
  <g id="axes_1">
   <g id="patch_2">
    <path d="M 0 44.672727 
L 71.398295 44.672727 
L 71.398295 2.127273 
L 0 2.127273 
z
" clip-path="url(#pd92863e8d1)" style="fill: #c80401"/>
   </g>
   <g id="patch_3">
    <path d="M 71.398295 44.672727 
L 141.806723 44.672727 
L 141.806723 2.127273 
L 71.398295 2.127273 
z
" clip-path="url(#pd92863e8d1)" style="fill: #b61e02"/>
   </g>
   <g id="patch_4">
    <path d="M 141.806723 44.672727 
L 206.893228 44.672727 
L 206.893228 2.127273 
L 141.806723 2.127273 
z
" clip-path="url(#pd92863e8d1)" style="fill: #be1e02"/>
   </g>
   <g id="patch_5">
    <path d="M 206.893228 44.672727 
L 271.826804 44.672727 
L 271.826804 2.127273 
L 206.893228 2.127273 
z
" clip-path="url(#pd92863e8d1)" style="fill: #bb1402"/>
   </g>
   <g id="patch_6">
    <path d="M 271.826804 44.672727 
L 330.988013 44.672727 
L 330.988013 2.127273 
L 271.826804 2.127273 
z
" clip-path="url(#pd92863e8d1)" style="fill: #ad1d02"/>
   </g>
   <g id="patch_7">
    <path d="M 330.988013 44.672727 
L 385.939508 44.672727 
L 385.939508 2.127273 
L 330.988013 2.127273 
z
" clip-path="url(#pd92863e8d1)" style="fill: #b21202"/>
   </g>
   <g id="patch_8">
    <path d="M 385.939508 44.672727 
L 439.931723 44.672727 
L 439.931723 2.127273 
L 385.939508 2.127273 
z
" clip-path="url(#pd92863e8d1)" style="fill: #aa1202"/>
   </g>
   <g id="patch_9">
    <path d="M 439.931723 44.672727 
L 488.991288 44.672727 
L 488.991288 2.127273 
L 439.931723 2.127273 
z
" clip-path="url(#pd92863e8d1)" style="fill: #d00701"/>
   </g>
   <g id="patch_10">
    <path d="M 488.991288 44.672727 
L 533.590892 44.672727 
L 533.590892 2.127273 
L 488.991288 2.127273 
z
" clip-path="url(#pd92863e8d1)" style="fill: #a31601"/>
   </g>
   <g id="patch_11">
    <path d="M 533.590892 44.672727 
L 578.082056 44.672727 
L 578.082056 2.127273 
L 533.590892 2.127273 
z
" clip-path="url(#pd92863e8d1)" style="fill: #bf0301"/>
   </g>
   <g id="patch_12">
    <path d="M 578.082056 44.672727 
L 614.92956 44.672727 
L 614.92956 2.127273 
L 578.082056 2.127273 
z
" clip-path="url(#pd92863e8d1)" style="fill: #c41804"/>
   </g>
   <g id="patch_13">
    <path d="M 614.92956 44.672727 
L 647.834281 44.672727 
L 647.834281 2.127273 
L 614.92956 2.127273 
z
" clip-path="url(#pd92863e8d1)" style="fill: #bd2604"/>
   </g>
   <g id="patch_14">
    <path d="M 647.834281 44.672727 
L 676.404165 44.672727 
L 676.404165 2.127273 
L 647.834281 2.127273 
z
" clip-path="url(#pd92863e8d1)" style="fill: #c40e02"/>
   </g>
   <g id="patch_15">
    <path d="M 676.404165 44.672727 
L 701.79869 44.672727 
L 701.79869 2.127273 
L 676.404165 2.127273 
z
" clip-path="url(#pd92863e8d1)" style="fill: #d01103"/>
   </g>
   <g id="patch_16">
    <path d="M 701.79869 44.672727 
L 720 44.672727 
L 720 2.127273 
L 701.79869 2.127273 
z
" clip-path="url(#pd92863e8d1)" style="fill: #9a1c03"/>
   </g>
  </g>
 </g>
 <defs>
  <clipPath id="pd92863e8d1">
   <rect x="0" y="0" width="720" height="46.8"/>
  </clipPath>
 </defs>
</svg>
