<?xml version="1.0" encoding="utf-8" standalone="no"?>
<!DOCTYPE svg PUBLIC "-//W3C//DTD SVG 1.1//EN"
  "http://www.w3.org/Graphics/SVG/1.1/DTD/svg11.dtd">
<svg xmlns:xlink="http://www.w3.org/1999/xlink" width="720pt" height="46.8pt" viewBox="0 0 720 46.8" xmlns="http://www.w3.org/2000/svg" version="1.1">
 <metadata>
  <rdf:RDF xmlns:dc="http://purl.org/dc/elements/1.1/" xmlns:cc="http://creativecommons.org/ns#" xmlns:rdf="http://www.w3.org/1999/02/22-rdf-syntax-ns#">
   <cc:Work>
    <dc:type rdf:resource="http://purl.org/dc/dcmitype/StillImage"/>
    <dc:date>2024-07-10T15:25:08.235193</dc:date>
    <dc:format>image/svg+xml</dc:format>
    <dc:creator>
     <cc:Agent>
      <dc:title>Matplotlib v3.7.1, https://matplotlib.org/</dc:title>
     </cc:Agent>
    </dc:creator>
   </cc:Work>
  </rdf:RDF>
 </metadata>
 <defs>
  <style type="text/css">*{stroke-linejoin: round; stroke-linecap: butt}</style>
 </defs>
 <g id="figure_1">
  <g id="patch_1">
   <path d="M 0 46.8 
L 720 46.8 
L 720 0 
L 0 0 
z
" style="fill: #ffffff"/>
  </g>
  <g id="axes_1">
   <g id="patch_2">
    <path d="M 0 44.672727 
L 175.120732 44.672727 
L 175.120732 2.127273 
L 0 2.127273 
z
" clip-path="url(#p2231ce88a0)" style="fill: #ecd404"/>
   </g>
   <g id="patch_3">
    <path d="M 175.120732 44.672727 
L 321.768208 44.672727 
L 321.768208 2.127273 
L 175.120732 2.127273 
z
" clip-path="url(#p2231ce88a0)" style="fill: #dfc804"/>
   </g>
   <g id="patch_4">
    <path d="M 321.768208 44.672727 
L 423.027831 44.672727 
L 423.027831 2.127273 
L 321.768208 2.127273 
z
" clip-path="url(#p2231ce88a0)" style="fill: #d1bc05"/>
   </g>
   <g id="patch_5">
    <path d="M 423.027831 44.672727 
L 467.65478 44.672727 
L 467.65478 2.127273 
L 423.027831 2.127273 
z
" clip-path="url(#p2231ce88a0)" style="fill: #bca509"/>
   </g>
   <g id="patch_6">
    <path d="M 467.65478 44.672727 
L 503.982828 44.672727 
L 503.982828 2.127273 
L 467.65478 2.127273 
z
" clip-path="url(#p2231ce88a0)" style="fill: #e5c81c"/>
   </g>
   <g id="patch_7">
    <path d="M 503.982828 44.672727 
L 536.162905 44.672727 
L 536.162905 2.127273 
L 503.982828 2.127273 
z
" clip-path="url(#p2231ce88a0)" style="fill: #cbb41d"/>
   </g>
   <g id="patch_8">
    <path d="M 536.162905 44.672727 
L 566.753076 44.672727 
L 566.753076 2.127273 
L 536.162905 2.127273 
z
" clip-path="url(#p2231ce88a0)" style="fill: #a18a0b"/>
   </g>
   <g id="patch_9">
    <path d="M 566.753076 44.672727 
L 593.852556 44.672727 
L 593.852556 2.127273 
L 566.753076 2.127273 
z
" clip-path="url(#p2231ce88a0)" style="fill: #7e6b0f"/>
   </g>
   <g id="patch_10">
    <path d="M 593.852556 44.672727 
L 619.516087 44.672727 
L 619.516087 2.127273 
L 593.852556 2.127273 
z
" clip-path="url(#p2231ce88a0)" style="fill: #62510e"/>
   </g>
   <g id="patch_11">
    <path d="M 619.516087 44.672727 
L 642.772551 44.672727 
L 642.772551 2.127273 
L 619.516087 2.127273 
z
" clip-path="url(#p2231ce88a0)" style="fill: #453709"/>
   </g>
   <g id="patch_12">
    <path d="M 642.772551 44.672727 
L 664.809198 44.672727 
L 664.809198 2.127273 
L 642.772551 2.127273 
z
" clip-path="url(#p2231ce88a0)" style="fill: #b09d2a"/>
   </g>
   <g id="patch_13">
    <path d="M 664.809198 44.672727 
L 685.679321 44.672727 
L 685.679321 2.127273 
L 664.809198 2.127273 
z
" clip-path="url(#p2231ce88a0)" style="fill: #281e04"/>
   </g>
   <g id="patch_14">
    <path d="M 685.679321 44.672727 
L 702.496217 44.672727 
L 702.496217 2.127273 
L 685.679321 2.127273 
z
" clip-path="url(#p2231ce88a0)" style="fill: #917f25"/>
   </g>
   <g id="patch_15">
    <path d="M 702.496217 44.672727 
L 713.702546 44.672727 
L 713.702546 2.127273 
L 702.496217 2.127273 
z
" clip-path="url(#p2231ce88a0)" style="fill: #d9bd3f"/>
   </g>
   <g id="patch_16">
    <path d="M 713.702546 44.672727 
L 720 44.672727 
L 720 2.127273 
L 713.702546 2.127273 
z
" clip-path="url(#p2231ce88a0)" style="fill: #d88e17"/>
   </g>
  </g>
 </g>
 <defs>
  <clipPath id="p2231ce88a0">
   <rect x="0" y="0" width="720" height="46.8"/>
  </clipPath>
 </defs>
</svg>
