<?xml version="1.0" encoding="utf-8" standalone="no"?>
<!DOCTYPE svg PUBLIC "-//W3C//DTD SVG 1.1//EN"
  "http://www.w3.org/Graphics/SVG/1.1/DTD/svg11.dtd">
<svg xmlns:xlink="http://www.w3.org/1999/xlink" width="720pt" height="46.8pt" viewBox="0 0 720 46.8" xmlns="http://www.w3.org/2000/svg" version="1.1">
 <metadata>
  <rdf:RDF xmlns:dc="http://purl.org/dc/elements/1.1/" xmlns:cc="http://creativecommons.org/ns#" xmlns:rdf="http://www.w3.org/1999/02/22-rdf-syntax-ns#">
   <cc:Work>
    <dc:type rdf:resource="http://purl.org/dc/dcmitype/StillImage"/>
    <dc:date>2024-07-11T14:18:33.183173</dc:date>
    <dc:format>image/svg+xml</dc:format>
    <dc:creator>
     <cc:Agent>
      <dc:title>Matplotlib v3.7.1, https://matplotlib.org/</dc:title>
     </cc:Agent>
    </dc:creator>
   </cc:Work>
  </rdf:RDF>
 </metadata>
 <defs>
  <style type="text/css">*{stroke-linejoin: round; stroke-linecap: butt}</style>
 </defs>
 <g id="figure_1">
  <g id="patch_1">
   <path d="M 0 46.8 
L 720 46.8 
L 720 0 
L 0 0 
z
" style="fill: #ffffff"/>
  </g>
  <g id="axes_1">
   <g id="patch_2">
    <path d="M 0 44.672727 
L 124.855491 44.672727 
L 124.855491 2.127273 
L 0 2.127273 
z
" clip-path="url(#p71a2cc328f)" style="fill: #83cbd1"/>
   </g>
   <g id="patch_3">
    <path d="M 124.855491 44.672727 
L 248.481345 44.672727 
L 248.481345 2.127273 
L 124.855491 2.127273 
z
" clip-path="url(#p71a2cc328f)" style="fill: #89cfd6"/>
   </g>
   <g id="patch_4">
    <path d="M 248.481345 44.672727 
L 338.339464 44.672727 
L 338.339464 2.127273 
L 248.481345 2.127273 
z
" clip-path="url(#p71a2cc328f)" style="fill: #81c5ca"/>
   </g>
   <g id="patch_5">
    <path d="M 338.339464 44.672727 
L 398.024172 44.672727 
L 398.024172 2.127273 
L 338.339464 2.127273 
z
" clip-path="url(#p71a2cc328f)" style="fill: #8ac6d0"/>
   </g>
   <g id="patch_6">
    <path d="M 398.024172 44.672727 
L 454.209143 44.672727 
L 454.209143 2.127273 
L 398.024172 2.127273 
z
" clip-path="url(#p71a2cc328f)" style="fill: #79c0c3"/>
   </g>
   <g id="patch_7">
    <path d="M 454.209143 44.672727 
L 500.557015 44.672727 
L 500.557015 2.127273 
L 454.209143 2.127273 
z
" clip-path="url(#p71a2cc328f)" style="fill: #77b9bb"/>
   </g>
   <g id="patch_8">
    <path d="M 500.557015 44.672727 
L 538.581188 44.672727 
L 538.581188 2.127273 
L 500.557015 2.127273 
z
" clip-path="url(#p71a2cc328f)" style="fill: #8dc1c6"/>
   </g>
   <g id="patch_9">
    <path d="M 538.581188 44.672727 
L 572.82186 44.672727 
L 572.82186 2.127273 
L 538.581188 2.127273 
z
" clip-path="url(#p71a2cc328f)" style="fill: #81bec1"/>
   </g>
   <g id="patch_10">
    <path d="M 572.82186 44.672727 
L 601.387283 44.672727 
L 601.387283 2.127273 
L 572.82186 2.127273 
z
" clip-path="url(#p71a2cc328f)" style="fill: #87b6bb"/>
   </g>
   <g id="patch_11">
    <path d="M 601.387283 44.672727 
L 626.547556 44.672727 
L 626.547556 2.127273 
L 601.387283 2.127273 
z
" clip-path="url(#p71a2cc328f)" style="fill: #72b3b4"/>
   </g>
   <g id="patch_12">
    <path d="M 626.547556 44.672727 
L 649.910667 44.672727 
L 649.910667 2.127273 
L 626.547556 2.127273 
z
" clip-path="url(#p71a2cc328f)" style="fill: #6cacab"/>
   </g>
   <g id="patch_13">
    <path d="M 649.910667 44.672727 
L 670.436153 44.672727 
L 670.436153 2.127273 
L 649.910667 2.127273 
z
" clip-path="url(#p71a2cc328f)" style="fill: #96cdd5"/>
   </g>
   <g id="patch_14">
    <path d="M 670.436153 44.672727 
L 688.502365 44.672727 
L 688.502365 2.127273 
L 670.436153 2.127273 
z
" clip-path="url(#p71a2cc328f)" style="fill: #7eadaf"/>
   </g>
   <g id="patch_15">
    <path d="M 688.502365 44.672727 
L 706.001051 44.672727 
L 706.001051 2.127273 
L 688.502365 2.127273 
z
" clip-path="url(#p71a2cc328f)" style="fill: #64a1a0"/>
   </g>
   <g id="patch_16">
    <path d="M 706.001051 44.672727 
L 720 44.672727 
L 720 2.127273 
L 706.001051 2.127273 
z
" clip-path="url(#p71a2cc328f)" style="fill: #75a2a2"/>
   </g>
  </g>
 </g>
 <defs>
  <clipPath id="p71a2cc328f">
   <rect x="0" y="0" width="720" height="46.8"/>
  </clipPath>
 </defs>
</svg>
