<?xml version="1.0" encoding="utf-8" standalone="no"?>
<!DOCTYPE svg PUBLIC "-//W3C//DTD SVG 1.1//EN"
  "http://www.w3.org/Graphics/SVG/1.1/DTD/svg11.dtd">
<svg xmlns:xlink="http://www.w3.org/1999/xlink" width="720pt" height="46.8pt" viewBox="0 0 720 46.8" xmlns="http://www.w3.org/2000/svg" version="1.1">
 <metadata>
  <rdf:RDF xmlns:dc="http://purl.org/dc/elements/1.1/" xmlns:cc="http://creativecommons.org/ns#" xmlns:rdf="http://www.w3.org/1999/02/22-rdf-syntax-ns#">
   <cc:Work>
    <dc:type rdf:resource="http://purl.org/dc/dcmitype/StillImage"/>
    <dc:date>2024-07-11T02:39:36.689156</dc:date>
    <dc:format>image/svg+xml</dc:format>
    <dc:creator>
     <cc:Agent>
      <dc:title>Matplotlib v3.7.1, https://matplotlib.org/</dc:title>
     </cc:Agent>
    </dc:creator>
   </cc:Work>
  </rdf:RDF>
 </metadata>
 <defs>
  <style type="text/css">*{stroke-linejoin: round; stroke-linecap: butt}</style>
 </defs>
 <g id="figure_1">
  <g id="patch_1">
   <path d="M 0 46.8 
L 720 46.8 
L 720 0 
L 0 0 
z
" style="fill: #ffffff"/>
  </g>
  <g id="axes_1">
   <g id="patch_2">
    <path d="M 0 44.672727 
L 105.419531 44.672727 
L 105.419531 2.127273 
L 0 2.127273 
z
" clip-path="url(#p66ca67bf8d)" style="fill: #f9dad8"/>
   </g>
   <g id="patch_3">
    <path d="M 105.419531 44.672727 
L 198.65 44.672727 
L 198.65 2.127273 
L 105.419531 2.127273 
z
" clip-path="url(#p66ca67bf8d)" style="fill: #fce95d"/>
   </g>
   <g id="patch_4">
    <path d="M 198.65 44.672727 
L 289.119531 44.672727 
L 289.119531 2.127273 
L 198.65 2.127273 
z
" clip-path="url(#p66ca67bf8d)" style="fill: #4dbdc1"/>
   </g>
   <g id="patch_5">
    <path d="M 289.119531 44.672727 
L 362.344531 44.672727 
L 362.344531 2.127273 
L 289.119531 2.127273 
z
" clip-path="url(#p66ca67bf8d)" style="fill: #272928"/>
   </g>
   <g id="patch_6">
    <path d="M 362.344531 44.672727 
L 415.544531 44.672727 
L 415.544531 2.127273 
L 362.344531 2.127273 
z
" clip-path="url(#p66ca67bf8d)" style="fill: #72cad1"/>
   </g>
   <g id="patch_7">
    <path d="M 415.544531 44.672727 
L 468.3625 44.672727 
L 468.3625 2.127273 
L 415.544531 2.127273 
z
" clip-path="url(#p66ca67bf8d)" style="fill: #fadc39"/>
   </g>
   <g id="patch_8">
    <path d="M 468.3625 44.672727 
L 519.850781 44.672727 
L 519.850781 2.127273 
L 468.3625 2.127273 
z
" clip-path="url(#p66ca67bf8d)" style="fill: #f1c9c3"/>
   </g>
   <g id="patch_9">
    <path d="M 519.850781 44.672727 
L 567.739844 44.672727 
L 567.739844 2.127273 
L 519.850781 2.127273 
z
" clip-path="url(#p66ca67bf8d)" style="fill: #2cb3bb"/>
   </g>
   <g id="patch_10">
    <path d="M 567.739844 44.672727 
L 609.014063 44.672727 
L 609.014063 2.127273 
L 567.739844 2.127273 
z
" clip-path="url(#p66ca67bf8d)" style="fill: #08a8ae"/>
   </g>
   <g id="patch_11">
    <path d="M 609.014063 44.672727 
L 633.651562 44.672727 
L 633.651562 2.127273 
L 609.014063 2.127273 
z
" clip-path="url(#p66ca67bf8d)" style="fill: #4e4938"/>
   </g>
   <g id="patch_12">
    <path d="M 633.651562 44.672727 
L 657.482031 44.672727 
L 657.482031 2.127273 
L 633.651562 2.127273 
z
" clip-path="url(#p66ca67bf8d)" style="fill: #d3b2a2"/>
   </g>
   <g id="patch_13">
    <path d="M 657.482031 44.672727 
L 675.7125 44.672727 
L 675.7125 2.127273 
L 657.482031 2.127273 
z
" clip-path="url(#p66ca67bf8d)" style="fill: #ceb043"/>
   </g>
   <g id="patch_14">
    <path d="M 675.7125 44.672727 
L 691.624219 44.672727 
L 691.624219 2.127273 
L 675.7125 2.127273 
z
" clip-path="url(#p66ca67bf8d)" style="fill: #a6947e"/>
   </g>
   <g id="patch_15">
    <path d="M 691.624219 44.672727 
L 706.977344 44.672727 
L 706.977344 2.127273 
L 691.624219 2.127273 
z
" clip-path="url(#p66ca67bf8d)" style="fill: #736d5d"/>
   </g>
   <g id="patch_16">
    <path d="M 706.977344 44.672727 
L 720 44.672727 
L 720 2.127273 
L 706.977344 2.127273 
z
" clip-path="url(#p66ca67bf8d)" style="fill: #977632"/>
   </g>
  </g>
 </g>
 <defs>
  <clipPath id="p66ca67bf8d">
   <rect x="0" y="0" width="720" height="46.8"/>
  </clipPath>
 </defs>
</svg>
