<?xml version="1.0" encoding="utf-8" standalone="no"?>
<!DOCTYPE svg PUBLIC "-//W3C//DTD SVG 1.1//EN"
  "http://www.w3.org/Graphics/SVG/1.1/DTD/svg11.dtd">
<svg xmlns:xlink="http://www.w3.org/1999/xlink" width="720pt" height="46.8pt" viewBox="0 0 720 46.8" xmlns="http://www.w3.org/2000/svg" version="1.1">
 <metadata>
  <rdf:RDF xmlns:dc="http://purl.org/dc/elements/1.1/" xmlns:cc="http://creativecommons.org/ns#" xmlns:rdf="http://www.w3.org/1999/02/22-rdf-syntax-ns#">
   <cc:Work>
    <dc:type rdf:resource="http://purl.org/dc/dcmitype/StillImage"/>
    <dc:date>2024-07-11T14:13:35.915435</dc:date>
    <dc:format>image/svg+xml</dc:format>
    <dc:creator>
     <cc:Agent>
      <dc:title>Matplotlib v3.7.1, https://matplotlib.org/</dc:title>
     </cc:Agent>
    </dc:creator>
   </cc:Work>
  </rdf:RDF>
 </metadata>
 <defs>
  <style type="text/css">*{stroke-linejoin: round; stroke-linecap: butt}</style>
 </defs>
 <g id="figure_1">
  <g id="patch_1">
   <path d="M 0 46.8 
L 720 46.8 
L 720 0 
L 0 0 
z
" style="fill: #ffffff"/>
  </g>
  <g id="axes_1">
   <g id="patch_2">
    <path d="M 0 44.672727 
L 551.577936 44.672727 
L 551.577936 2.127273 
L 0 2.127273 
z
" clip-path="url(#pd02a1b9713)" style="fill: #e37b53"/>
   </g>
   <g id="patch_3">
    <path d="M 551.577936 44.672727 
L 641.794735 44.672727 
L 641.794735 2.127273 
L 551.577936 2.127273 
z
" clip-path="url(#pd02a1b9713)" style="fill: #e37b56"/>
   </g>
   <g id="patch_4">
    <path d="M 641.794735 44.672727 
L 660.369361 44.672727 
L 660.369361 2.127273 
L 641.794735 2.127273 
z
" clip-path="url(#pd02a1b9713)" style="fill: #df7d53"/>
   </g>
   <g id="patch_5">
    <path d="M 660.369361 44.672727 
L 671.616624 44.672727 
L 671.616624 2.127273 
L 660.369361 2.127273 
z
" clip-path="url(#pd02a1b9713)" style="fill: #dd7d59"/>
   </g>
   <g id="patch_6">
    <path d="M 671.616624 44.672727 
L 682.244148 44.672727 
L 682.244148 2.127273 
L 671.616624 2.127273 
z
" clip-path="url(#pd02a1b9713)" style="fill: #e47a5c"/>
   </g>
   <g id="patch_7">
    <path d="M 682.244148 44.672727 
L 689.691956 44.672727 
L 689.691956 2.127273 
L 682.244148 2.127273 
z
" clip-path="url(#pd02a1b9713)" style="fill: #e57b4e"/>
   </g>
   <g id="patch_8">
    <path d="M 689.691956 44.672727 
L 696.204681 44.672727 
L 696.204681 2.127273 
L 689.691956 2.127273 
z
" clip-path="url(#pd02a1b9713)" style="fill: #eb7756"/>
   </g>
   <g id="patch_9">
    <path d="M 696.204681 44.672727 
L 701.092511 44.672727 
L 701.092511 2.127273 
L 696.204681 2.127273 
z
" clip-path="url(#pd02a1b9713)" style="fill: #dc7146"/>
   </g>
   <g id="patch_10">
    <path d="M 701.092511 44.672727 
L 705.463526 44.672727 
L 705.463526 2.127273 
L 701.092511 2.127273 
z
" clip-path="url(#pd02a1b9713)" style="fill: #d88155"/>
   </g>
   <g id="patch_11">
    <path d="M 705.463526 44.672727 
L 709.67468 44.672727 
L 709.67468 2.127273 
L 705.463526 2.127273 
z
" clip-path="url(#pd02a1b9713)" style="fill: #dc713c"/>
   </g>
   <g id="patch_12">
    <path d="M 709.67468 44.672727 
L 713.833277 44.672727 
L 713.833277 2.127273 
L 709.67468 2.127273 
z
" clip-path="url(#pd02a1b9713)" style="fill: #db7e4a"/>
   </g>
   <g id="patch_13">
    <path d="M 713.833277 44.672727 
L 716.250912 44.672727 
L 716.250912 2.127273 
L 713.833277 2.127273 
z
" clip-path="url(#pd02a1b9713)" style="fill: #d87f60"/>
   </g>
   <g id="patch_14">
    <path d="M 716.250912 44.672727 
L 718.064139 44.672727 
L 718.064139 2.127273 
L 716.250912 2.127273 
z
" clip-path="url(#pd02a1b9713)" style="fill: #cf6a39"/>
   </g>
   <g id="patch_15">
    <path d="M 718.064139 44.672727 
L 719.428439 44.672727 
L 719.428439 2.127273 
L 718.064139 2.127273 
z
" clip-path="url(#pd02a1b9713)" style="fill: #d17547"/>
   </g>
   <g id="patch_16">
    <path d="M 719.428439 44.672727 
L 720 44.672727 
L 720 2.127273 
L 719.428439 2.127273 
z
" clip-path="url(#pd02a1b9713)" style="fill: #e9915c"/>
   </g>
  </g>
 </g>
 <defs>
  <clipPath id="pd02a1b9713">
   <rect x="0" y="0" width="720" height="46.8"/>
  </clipPath>
 </defs>
</svg>
