<?xml version="1.0" encoding="utf-8" standalone="no"?>
<!DOCTYPE svg PUBLIC "-//W3C//DTD SVG 1.1//EN"
  "http://www.w3.org/Graphics/SVG/1.1/DTD/svg11.dtd">
<svg xmlns:xlink="http://www.w3.org/1999/xlink" width="720pt" height="46.8pt" viewBox="0 0 720 46.8" xmlns="http://www.w3.org/2000/svg" version="1.1">
 <metadata>
  <rdf:RDF xmlns:dc="http://purl.org/dc/elements/1.1/" xmlns:cc="http://creativecommons.org/ns#" xmlns:rdf="http://www.w3.org/1999/02/22-rdf-syntax-ns#">
   <cc:Work>
    <dc:type rdf:resource="http://purl.org/dc/dcmitype/StillImage"/>
    <dc:date>2024-07-11T14:23:41.996628</dc:date>
    <dc:format>image/svg+xml</dc:format>
    <dc:creator>
     <cc:Agent>
      <dc:title>Matplotlib v3.7.1, https://matplotlib.org/</dc:title>
     </cc:Agent>
    </dc:creator>
   </cc:Work>
  </rdf:RDF>
 </metadata>
 <defs>
  <style type="text/css">*{stroke-linejoin: round; stroke-linecap: butt}</style>
 </defs>
 <g id="figure_1">
  <g id="patch_1">
   <path d="M 0 46.8 
L 720 46.8 
L 720 0 
L 0 0 
z
" style="fill: #ffffff"/>
  </g>
  <g id="axes_1">
   <g id="patch_2">
    <path d="M 0 44.672727 
L 205.06136 44.672727 
L 205.06136 2.127273 
L 0 2.127273 
z
" clip-path="url(#p53a3b0d38f)" style="fill: #fbd6d3"/>
   </g>
   <g id="patch_3">
    <path d="M 205.06136 44.672727 
L 351.573462 44.672727 
L 351.573462 2.127273 
L 205.06136 2.127273 
z
" clip-path="url(#p53a3b0d38f)" style="fill: #fcdfdc"/>
   </g>
   <g id="patch_4">
    <path d="M 351.573462 44.672727 
L 460.546011 44.672727 
L 460.546011 2.127273 
L 351.573462 2.127273 
z
" clip-path="url(#p53a3b0d38f)" style="fill: #f7ceca"/>
   </g>
   <g id="patch_5">
    <path d="M 460.546011 44.672727 
L 533.190349 44.672727 
L 533.190349 2.127273 
L 460.546011 2.127273 
z
" clip-path="url(#p53a3b0d38f)" style="fill: #f0c5c0"/>
   </g>
   <g id="patch_6">
    <path d="M 533.190349 44.672727 
L 572.799154 44.672727 
L 572.799154 2.127273 
L 533.190349 2.127273 
z
" clip-path="url(#p53a3b0d38f)" style="fill: #e4b9b3"/>
   </g>
   <g id="patch_7">
    <path d="M 572.799154 44.672727 
L 603.14919 44.672727 
L 603.14919 2.127273 
L 572.799154 2.127273 
z
" clip-path="url(#p53a3b0d38f)" style="fill: #d8ada5"/>
   </g>
   <g id="patch_8">
    <path d="M 603.14919 44.672727 
L 624.766076 44.672727 
L 624.766076 2.127273 
L 603.14919 2.127273 
z
" clip-path="url(#p53a3b0d38f)" style="fill: #c9a097"/>
   </g>
   <g id="patch_9">
    <path d="M 624.766076 44.672727 
L 642.042065 44.672727 
L 642.042065 2.127273 
L 624.766076 2.127273 
z
" clip-path="url(#p53a3b0d38f)" style="fill: #2b2624"/>
   </g>
   <g id="patch_10">
    <path d="M 642.042065 44.672727 
L 657.351509 44.672727 
L 657.351509 2.127273 
L 642.042065 2.127273 
z
" clip-path="url(#p53a3b0d38f)" style="fill: #b8938a"/>
   </g>
   <g id="patch_11">
    <path d="M 657.351509 44.672727 
L 669.739833 44.672727 
L 669.739833 2.127273 
L 657.351509 2.127273 
z
" clip-path="url(#p53a3b0d38f)" style="fill: #a5857b"/>
   </g>
   <g id="patch_12">
    <path d="M 669.739833 44.672727 
L 680.575464 44.672727 
L 680.575464 2.127273 
L 669.739833 2.127273 
z
" clip-path="url(#p53a3b0d38f)" style="fill: #91776d"/>
   </g>
   <g id="patch_13">
    <path d="M 680.575464 44.672727 
L 691.124117 44.672727 
L 691.124117 2.127273 
L 680.575464 2.127273 
z
" clip-path="url(#p53a3b0d38f)" style="fill: #7d675e"/>
   </g>
   <g id="patch_14">
    <path d="M 691.124117 44.672727 
L 701.141109 44.672727 
L 701.141109 2.127273 
L 691.124117 2.127273 
z
" clip-path="url(#p53a3b0d38f)" style="fill: #685850"/>
   </g>
   <g id="patch_15">
    <path d="M 701.141109 44.672727 
L 710.608315 44.672727 
L 710.608315 2.127273 
L 701.141109 2.127273 
z
" clip-path="url(#p53a3b0d38f)" style="fill: #3f3531"/>
   </g>
   <g id="patch_16">
    <path d="M 710.608315 44.672727 
L 720 44.672727 
L 720 2.127273 
L 710.608315 2.127273 
z
" clip-path="url(#p53a3b0d38f)" style="fill: #544741"/>
   </g>
  </g>
 </g>
 <defs>
  <clipPath id="p53a3b0d38f">
   <rect x="0" y="0" width="720" height="46.8"/>
  </clipPath>
 </defs>
</svg>
