<?xml version="1.0" encoding="utf-8" standalone="no"?>
<!DOCTYPE svg PUBLIC "-//W3C//DTD SVG 1.1//EN"
  "http://www.w3.org/Graphics/SVG/1.1/DTD/svg11.dtd">
<svg xmlns:xlink="http://www.w3.org/1999/xlink" width="720pt" height="46.8pt" viewBox="0 0 720 46.8" xmlns="http://www.w3.org/2000/svg" version="1.1">
 <metadata>
  <rdf:RDF xmlns:dc="http://purl.org/dc/elements/1.1/" xmlns:cc="http://creativecommons.org/ns#" xmlns:rdf="http://www.w3.org/1999/02/22-rdf-syntax-ns#">
   <cc:Work>
    <dc:type rdf:resource="http://purl.org/dc/dcmitype/StillImage"/>
    <dc:date>2024-07-07T03:30:52.929147</dc:date>
    <dc:format>image/svg+xml</dc:format>
    <dc:creator>
     <cc:Agent>
      <dc:title>Matplotlib v3.7.1, https://matplotlib.org/</dc:title>
     </cc:Agent>
    </dc:creator>
   </cc:Work>
  </rdf:RDF>
 </metadata>
 <defs>
  <style type="text/css">*{stroke-linejoin: round; stroke-linecap: butt}</style>
 </defs>
 <g id="figure_1">
  <g id="patch_1">
   <path d="M 0 46.8 
L 720 46.8 
L 720 0 
L 0 0 
z
" style="fill: #ffffff"/>
  </g>
  <g id="axes_1">
   <g id="patch_2">
    <path d="M 0 44.672727 
L 164.572174 44.672727 
L 164.572174 2.127273 
L 0 2.127273 
z
" clip-path="url(#p11fd88e06b)" style="fill: #fad46b"/>
   </g>
   <g id="patch_3">
    <path d="M 164.572174 44.672727 
L 309.705046 44.672727 
L 309.705046 2.127273 
L 164.572174 2.127273 
z
" clip-path="url(#p11fd88e06b)" style="fill: #f4cb62"/>
   </g>
   <g id="patch_4">
    <path d="M 309.705046 44.672727 
L 401.762991 44.672727 
L 401.762991 2.127273 
L 309.705046 2.127273 
z
" clip-path="url(#p11fd88e06b)" style="fill: #ecc059"/>
   </g>
   <g id="patch_5">
    <path d="M 401.762991 44.672727 
L 475.47796 44.672727 
L 475.47796 2.127273 
L 401.762991 2.127273 
z
" clip-path="url(#p11fd88e06b)" style="fill: #fcdb76"/>
   </g>
   <g id="patch_6">
    <path d="M 475.47796 44.672727 
L 528.28067 44.672727 
L 528.28067 2.127273 
L 475.47796 2.127273 
z
" clip-path="url(#p11fd88e06b)" style="fill: #e0b04e"/>
   </g>
   <g id="patch_7">
    <path d="M 528.28067 44.672727 
L 553.656548 44.672727 
L 553.656548 2.127273 
L 528.28067 2.127273 
z
" clip-path="url(#p11fd88e06b)" style="fill: #cd9a40"/>
   </g>
   <g id="patch_8">
    <path d="M 553.656548 44.672727 
L 576.936726 44.672727 
L 576.936726 2.127273 
L 553.656548 2.127273 
z
" clip-path="url(#p11fd88e06b)" style="fill: #f0c483"/>
   </g>
   <g id="patch_9">
    <path d="M 576.936726 44.672727 
L 597.56931 44.672727 
L 597.56931 2.127273 
L 576.936726 2.127273 
z
" clip-path="url(#p11fd88e06b)" style="fill: #dfaf74"/>
   </g>
   <g id="patch_10">
    <path d="M 597.56931 44.672727 
L 616.814705 44.672727 
L 616.814705 2.127273 
L 597.56931 2.127273 
z
" clip-path="url(#p11fd88e06b)" style="fill: #8e5a26"/>
   </g>
   <g id="patch_11">
    <path d="M 616.814705 44.672727 
L 636.026538 44.672727 
L 636.026538 2.127273 
L 616.814705 2.127273 
z
" clip-path="url(#p11fd88e06b)" style="fill: #f9da98"/>
   </g>
   <g id="patch_12">
    <path d="M 636.026538 44.672727 
L 655.063108 44.672727 
L 655.063108 2.127273 
L 636.026538 2.127273 
z
" clip-path="url(#p11fd88e06b)" style="fill: #cc9a64"/>
   </g>
   <g id="patch_13">
    <path d="M 655.063108 44.672727 
L 673.11895 44.672727 
L 673.11895 2.127273 
L 655.063108 2.127273 
z
" clip-path="url(#p11fd88e06b)" style="fill: #b07b30"/>
   </g>
   <g id="patch_14">
    <path d="M 673.11895 44.672727 
L 691.018174 44.672727 
L 691.018174 2.127273 
L 673.11895 2.127273 
z
" clip-path="url(#p11fd88e06b)" style="fill: #b58353"/>
   </g>
   <g id="patch_15">
    <path d="M 691.018174 44.672727 
L 706.169121 44.672727 
L 706.169121 2.127273 
L 691.018174 2.127273 
z
" clip-path="url(#p11fd88e06b)" style="fill: #794313"/>
   </g>
   <g id="patch_16">
    <path d="M 706.169121 44.672727 
L 720 44.672727 
L 720 2.127273 
L 706.169121 2.127273 
z
" clip-path="url(#p11fd88e06b)" style="fill: #966944"/>
   </g>
  </g>
 </g>
 <defs>
  <clipPath id="p11fd88e06b">
   <rect x="0" y="0" width="720" height="46.8"/>
  </clipPath>
 </defs>
</svg>
