<?xml version="1.0" encoding="utf-8" standalone="no"?>
<!DOCTYPE svg PUBLIC "-//W3C//DTD SVG 1.1//EN"
  "http://www.w3.org/Graphics/SVG/1.1/DTD/svg11.dtd">
<svg xmlns:xlink="http://www.w3.org/1999/xlink" width="720pt" height="46.8pt" viewBox="0 0 720 46.8" xmlns="http://www.w3.org/2000/svg" version="1.1">
 <metadata>
  <rdf:RDF xmlns:dc="http://purl.org/dc/elements/1.1/" xmlns:cc="http://creativecommons.org/ns#" xmlns:rdf="http://www.w3.org/1999/02/22-rdf-syntax-ns#">
   <cc:Work>
    <dc:type rdf:resource="http://purl.org/dc/dcmitype/StillImage"/>
    <dc:date>2024-07-10T15:35:03.998922</dc:date>
    <dc:format>image/svg+xml</dc:format>
    <dc:creator>
     <cc:Agent>
      <dc:title>Matplotlib v3.7.1, https://matplotlib.org/</dc:title>
     </cc:Agent>
    </dc:creator>
   </cc:Work>
  </rdf:RDF>
 </metadata>
 <defs>
  <style type="text/css">*{stroke-linejoin: round; stroke-linecap: butt}</style>
 </defs>
 <g id="figure_1">
  <g id="patch_1">
   <path d="M 0 46.8 
L 720 46.8 
L 720 0 
L 0 0 
z
" style="fill: #ffffff"/>
  </g>
  <g id="axes_1">
   <g id="patch_2">
    <path d="M 0 44.672727 
L 87.764234 44.672727 
L 87.764234 2.127273 
L 0 2.127273 
z
" clip-path="url(#p15260d0377)" style="fill: #71a4af"/>
   </g>
   <g id="patch_3">
    <path d="M 87.764234 44.672727 
L 168.640642 44.672727 
L 168.640642 2.127273 
L 87.764234 2.127273 
z
" clip-path="url(#p15260d0377)" style="fill: #74a6b2"/>
   </g>
   <g id="patch_4">
    <path d="M 168.640642 44.672727 
L 243.517976 44.672727 
L 243.517976 2.127273 
L 168.640642 2.127273 
z
" clip-path="url(#p15260d0377)" style="fill: #6da2ae"/>
   </g>
   <g id="patch_5">
    <path d="M 243.517976 44.672727 
L 305.508409 44.672727 
L 305.508409 2.127273 
L 243.517976 2.127273 
z
" clip-path="url(#p15260d0377)" style="fill: #71a9b6"/>
   </g>
   <g id="patch_6">
    <path d="M 305.508409 44.672727 
L 366.832279 44.672727 
L 366.832279 2.127273 
L 305.508409 2.127273 
z
" clip-path="url(#p15260d0377)" style="fill: #6b9fa9"/>
   </g>
   <g id="patch_7">
    <path d="M 366.832279 44.672727 
L 417.713316 44.672727 
L 417.713316 2.127273 
L 366.832279 2.127273 
z
" clip-path="url(#p15260d0377)" style="fill: #6da5b4"/>
   </g>
   <g id="patch_8">
    <path d="M 417.713316 44.672727 
L 463.706218 44.672727 
L 463.706218 2.127273 
L 417.713316 2.127273 
z
" clip-path="url(#p15260d0377)" style="fill: #6c9ca3"/>
   </g>
   <g id="patch_9">
    <path d="M 463.706218 44.672727 
L 504.588798 44.672727 
L 504.588798 2.127273 
L 463.706218 2.127273 
z
" clip-path="url(#p15260d0377)" style="fill: #71a1a9"/>
   </g>
   <g id="patch_10">
    <path d="M 504.588798 44.672727 
L 545.471378 44.672727 
L 545.471378 2.127273 
L 504.588798 2.127273 
z
" clip-path="url(#p15260d0377)" style="fill: #78a9b6"/>
   </g>
   <g id="patch_11">
    <path d="M 545.471378 44.672727 
L 585.465206 44.672727 
L 585.465206 2.127273 
L 545.471378 2.127273 
z
" clip-path="url(#p15260d0377)" style="fill: #73aabb"/>
   </g>
   <g id="patch_12">
    <path d="M 585.465206 44.672727 
L 624.570282 44.672727 
L 624.570282 2.127273 
L 585.465206 2.127273 
z
" clip-path="url(#p15260d0377)" style="fill: #669aa6"/>
   </g>
   <g id="patch_13">
    <path d="M 624.570282 44.672727 
L 656.232063 44.672727 
L 656.232063 2.127273 
L 624.570282 2.127273 
z
" clip-path="url(#p15260d0377)" style="fill: #68979e"/>
   </g>
   <g id="patch_14">
    <path d="M 656.232063 44.672727 
L 681.672581 44.672727 
L 681.672581 2.127273 
L 656.232063 2.127273 
z
" clip-path="url(#p15260d0377)" style="fill: #68a0ae"/>
   </g>
   <g id="patch_15">
    <path d="M 681.672581 44.672727 
L 701.114026 44.672727 
L 701.114026 2.127273 
L 681.672581 2.127273 
z
" clip-path="url(#p15260d0377)" style="fill: #7bafbd"/>
   </g>
   <g id="patch_16">
    <path d="M 701.114026 44.672727 
L 720 44.672727 
L 720 2.127273 
L 701.114026 2.127273 
z
" clip-path="url(#p15260d0377)" style="fill: #61929d"/>
   </g>
  </g>
 </g>
 <defs>
  <clipPath id="p15260d0377">
   <rect x="0" y="0" width="720" height="46.8"/>
  </clipPath>
 </defs>
</svg>
