<?xml version="1.0" encoding="utf-8" standalone="no"?>
<!DOCTYPE svg PUBLIC "-//W3C//DTD SVG 1.1//EN"
  "http://www.w3.org/Graphics/SVG/1.1/DTD/svg11.dtd">
<svg xmlns:xlink="http://www.w3.org/1999/xlink" width="720pt" height="46.8pt" viewBox="0 0 720 46.8" xmlns="http://www.w3.org/2000/svg" version="1.1">
 <metadata>
  <rdf:RDF xmlns:dc="http://purl.org/dc/elements/1.1/" xmlns:cc="http://creativecommons.org/ns#" xmlns:rdf="http://www.w3.org/1999/02/22-rdf-syntax-ns#">
   <cc:Work>
    <dc:type rdf:resource="http://purl.org/dc/dcmitype/StillImage"/>
    <dc:date>2024-07-11T14:29:00.266381</dc:date>
    <dc:format>image/svg+xml</dc:format>
    <dc:creator>
     <cc:Agent>
      <dc:title>Matplotlib v3.7.1, https://matplotlib.org/</dc:title>
     </cc:Agent>
    </dc:creator>
   </cc:Work>
  </rdf:RDF>
 </metadata>
 <defs>
  <style type="text/css">*{stroke-linejoin: round; stroke-linecap: butt}</style>
 </defs>
 <g id="figure_1">
  <g id="patch_1">
   <path d="M 0 46.8 
L 720 46.8 
L 720 0 
L 0 0 
z
" style="fill: #ffffff"/>
  </g>
  <g id="axes_1">
   <g id="patch_2">
    <path d="M 0 44.672727 
L 159.448642 44.672727 
L 159.448642 2.127273 
L 0 2.127273 
z
" clip-path="url(#pfce1f6d837)" style="fill: #db9aab"/>
   </g>
   <g id="patch_3">
    <path d="M 159.448642 44.672727 
L 296.207701 44.672727 
L 296.207701 2.127273 
L 159.448642 2.127273 
z
" clip-path="url(#pfce1f6d837)" style="fill: #d492a2"/>
   </g>
   <g id="patch_4">
    <path d="M 296.207701 44.672727 
L 376.055307 44.672727 
L 376.055307 2.127273 
L 296.207701 2.127273 
z
" clip-path="url(#pfce1f6d837)" style="fill: #e2a3b5"/>
   </g>
   <g id="patch_5">
    <path d="M 376.055307 44.672727 
L 444.907429 44.672727 
L 444.907429 2.127273 
L 376.055307 2.127273 
z
" clip-path="url(#pfce1f6d837)" style="fill: #ca8998"/>
   </g>
   <g id="patch_6">
    <path d="M 444.907429 44.672727 
L 497.986773 44.672727 
L 497.986773 2.127273 
L 444.907429 2.127273 
z
" clip-path="url(#pfce1f6d837)" style="fill: #120a0e"/>
   </g>
   <g id="patch_7">
    <path d="M 497.986773 44.672727 
L 549.640633 44.672727 
L 549.640633 2.127273 
L 497.986773 2.127273 
z
" clip-path="url(#pfce1f6d837)" style="fill: #060407"/>
   </g>
   <g id="patch_8">
    <path d="M 549.640633 44.672727 
L 588.177479 44.672727 
L 588.177479 2.127273 
L 549.640633 2.127273 
z
" clip-path="url(#pfce1f6d837)" style="fill: #bb7e8d"/>
   </g>
   <g id="patch_9">
    <path d="M 588.177479 44.672727 
L 616.563858 44.672727 
L 616.563858 2.127273 
L 588.177479 2.127273 
z
" clip-path="url(#pfce1f6d837)" style="fill: #1f1319"/>
   </g>
   <g id="patch_10">
    <path d="M 616.563858 44.672727 
L 642.471694 44.672727 
L 642.471694 2.127273 
L 616.563858 2.127273 
z
" clip-path="url(#pfce1f6d837)" style="fill: #a87280"/>
   </g>
   <g id="patch_11">
    <path d="M 642.471694 44.672727 
L 661.172492 44.672727 
L 661.172492 2.127273 
L 642.471694 2.127273 
z
" clip-path="url(#pfce1f6d837)" style="fill: #936471"/>
   </g>
   <g id="patch_12">
    <path d="M 661.172492 44.672727 
L 677.235504 44.672727 
L 677.235504 2.127273 
L 661.172492 2.127273 
z
" clip-path="url(#pfce1f6d837)" style="fill: #311f27"/>
   </g>
   <g id="patch_13">
    <path d="M 677.235504 44.672727 
L 690.799426 44.672727 
L 690.799426 2.127273 
L 677.235504 2.127273 
z
" clip-path="url(#pfce1f6d837)" style="fill: #472e38"/>
   </g>
   <g id="patch_14">
    <path d="M 690.799426 44.672727 
L 704.204105 44.672727 
L 704.204105 2.127273 
L 690.799426 2.127273 
z
" clip-path="url(#pfce1f6d837)" style="fill: #7a535f"/>
   </g>
   <g id="patch_15">
    <path d="M 704.204105 44.672727 
L 716.301449 44.672727 
L 716.301449 2.127273 
L 704.204105 2.127273 
z
" clip-path="url(#pfce1f6d837)" style="fill: #60404c"/>
   </g>
   <g id="patch_16">
    <path d="M 716.301449 44.672727 
L 720 44.672727 
L 720 2.127273 
L 716.301449 2.127273 
z
" clip-path="url(#pfce1f6d837)" style="fill: #9d222c"/>
   </g>
  </g>
 </g>
 <defs>
  <clipPath id="pfce1f6d837">
   <rect x="0" y="0" width="720" height="46.8"/>
  </clipPath>
 </defs>
</svg>
