<?xml version="1.0" encoding="utf-8" standalone="no"?>
<!DOCTYPE svg PUBLIC "-//W3C//DTD SVG 1.1//EN"
  "http://www.w3.org/Graphics/SVG/1.1/DTD/svg11.dtd">
<svg xmlns:xlink="http://www.w3.org/1999/xlink" width="720pt" height="46.8pt" viewBox="0 0 720 46.8" xmlns="http://www.w3.org/2000/svg" version="1.1">
 <metadata>
  <rdf:RDF xmlns:dc="http://purl.org/dc/elements/1.1/" xmlns:cc="http://creativecommons.org/ns#" xmlns:rdf="http://www.w3.org/1999/02/22-rdf-syntax-ns#">
   <cc:Work>
    <dc:type rdf:resource="http://purl.org/dc/dcmitype/StillImage"/>
    <dc:date>2024-07-07T03:35:45.372226</dc:date>
    <dc:format>image/svg+xml</dc:format>
    <dc:creator>
     <cc:Agent>
      <dc:title>Matplotlib v3.7.1, https://matplotlib.org/</dc:title>
     </cc:Agent>
    </dc:creator>
   </cc:Work>
  </rdf:RDF>
 </metadata>
 <defs>
  <style type="text/css">*{stroke-linejoin: round; stroke-linecap: butt}</style>
 </defs>
 <g id="figure_1">
  <g id="patch_1">
   <path d="M 0 46.8 
L 720 46.8 
L 720 0 
L 0 0 
z
" style="fill: #ffffff"/>
  </g>
  <g id="axes_1">
   <g id="patch_2">
    <path d="M 0 44.672727 
L 94.485014 44.672727 
L 94.485014 2.127273 
L 0 2.127273 
z
" clip-path="url(#p552bf6f76e)" style="fill: #9fc8c0"/>
   </g>
   <g id="patch_3">
    <path d="M 94.485014 44.672727 
L 188.616051 44.672727 
L 188.616051 2.127273 
L 94.485014 2.127273 
z
" clip-path="url(#p552bf6f76e)" style="fill: #a2cac2"/>
   </g>
   <g id="patch_4">
    <path d="M 188.616051 44.672727 
L 274.923241 44.672727 
L 274.923241 2.127273 
L 188.616051 2.127273 
z
" clip-path="url(#p552bf6f76e)" style="fill: #9cc5bc"/>
   </g>
   <g id="patch_5">
    <path d="M 274.923241 44.672727 
L 360.597638 44.672727 
L 360.597638 2.127273 
L 274.923241 2.127273 
z
" clip-path="url(#p552bf6f76e)" style="fill: #a4ccc3"/>
   </g>
   <g id="patch_6">
    <path d="M 360.597638 44.672727 
L 432.258451 44.672727 
L 432.258451 2.127273 
L 360.597638 2.127273 
z
" clip-path="url(#p552bf6f76e)" style="fill: #9fc9bf"/>
   </g>
   <g id="patch_7">
    <path d="M 432.258451 44.672727 
L 501.763888 44.672727 
L 501.763888 2.127273 
L 432.258451 2.127273 
z
" clip-path="url(#p552bf6f76e)" style="fill: #9ec7be"/>
   </g>
   <g id="patch_8">
    <path d="M 501.763888 44.672727 
L 560.346972 44.672727 
L 560.346972 2.127273 
L 501.763888 2.127273 
z
" clip-path="url(#p552bf6f76e)" style="fill: #a0cac1"/>
   </g>
   <g id="patch_9">
    <path d="M 560.346972 44.672727 
L 597.036862 44.672727 
L 597.036862 2.127273 
L 560.346972 2.127273 
z
" clip-path="url(#p552bf6f76e)" style="fill: #a6cec6"/>
   </g>
   <g id="patch_10">
    <path d="M 597.036862 44.672727 
L 628.135866 44.672727 
L 628.135866 2.127273 
L 597.036862 2.127273 
z
" clip-path="url(#p552bf6f76e)" style="fill: #a4c9bf"/>
   </g>
   <g id="patch_11">
    <path d="M 628.135866 44.672727 
L 654.01978 44.672727 
L 654.01978 2.127273 
L 628.135866 2.127273 
z
" clip-path="url(#p552bf6f76e)" style="fill: #a1cac5"/>
   </g>
   <g id="patch_12">
    <path d="M 654.01978 44.672727 
L 677.884089 44.672727 
L 677.884089 2.127273 
L 654.01978 2.127273 
z
" clip-path="url(#p552bf6f76e)" style="fill: #99c2b9"/>
   </g>
   <g id="patch_13">
    <path d="M 677.884089 44.672727 
L 699.081453 44.672727 
L 699.081453 2.127273 
L 677.884089 2.127273 
z
" clip-path="url(#p552bf6f76e)" style="fill: #a2c6bb"/>
   </g>
   <g id="patch_14">
    <path d="M 699.081453 44.672727 
L 707.884796 44.672727 
L 707.884796 2.127273 
L 699.081453 2.127273 
z
" clip-path="url(#p552bf6f76e)" style="fill: #9ec1b6"/>
   </g>
   <g id="patch_15">
    <path d="M 707.884796 44.672727 
L 715.524381 44.672727 
L 715.524381 2.127273 
L 707.884796 2.127273 
z
" clip-path="url(#p552bf6f76e)" style="fill: #96bcb3"/>
   </g>
   <g id="patch_16">
    <path d="M 715.524381 44.672727 
L 720 44.672727 
L 720 2.127273 
L 715.524381 2.127273 
z
" clip-path="url(#p552bf6f76e)" style="fill: #8fb5ad"/>
   </g>
  </g>
 </g>
 <defs>
  <clipPath id="p552bf6f76e">
   <rect x="0" y="0" width="720" height="46.8"/>
  </clipPath>
 </defs>
</svg>
