<?xml version="1.0" encoding="utf-8" standalone="no"?>
<!DOCTYPE svg PUBLIC "-//W3C//DTD SVG 1.1//EN"
  "http://www.w3.org/Graphics/SVG/1.1/DTD/svg11.dtd">
<svg xmlns:xlink="http://www.w3.org/1999/xlink" width="720pt" height="46.8pt" viewBox="0 0 720 46.8" xmlns="http://www.w3.org/2000/svg" version="1.1">
 <metadata>
  <rdf:RDF xmlns:dc="http://purl.org/dc/elements/1.1/" xmlns:cc="http://creativecommons.org/ns#" xmlns:rdf="http://www.w3.org/1999/02/22-rdf-syntax-ns#">
   <cc:Work>
    <dc:type rdf:resource="http://purl.org/dc/dcmitype/StillImage"/>
    <dc:date>2024-07-06T02:36:31.055005</dc:date>
    <dc:format>image/svg+xml</dc:format>
    <dc:creator>
     <cc:Agent>
      <dc:title>Matplotlib v3.7.1, https://matplotlib.org/</dc:title>
     </cc:Agent>
    </dc:creator>
   </cc:Work>
  </rdf:RDF>
 </metadata>
 <defs>
  <style type="text/css">*{stroke-linejoin: round; stroke-linecap: butt}</style>
 </defs>
 <g id="figure_1">
  <g id="patch_1">
   <path d="M 0 46.8 
L 720 46.8 
L 720 0 
L 0 0 
z
" style="fill: #ffffff"/>
  </g>
  <g id="axes_1">
   <g id="patch_2">
    <path d="M 0 44.672727 
L 134.848339 44.672727 
L 134.848339 2.127273 
L 0 2.127273 
z
" clip-path="url(#pbba4fd7289)" style="fill: #da9399"/>
   </g>
   <g id="patch_3">
    <path d="M 134.848339 44.672727 
L 260.770342 44.672727 
L 260.770342 2.127273 
L 134.848339 2.127273 
z
" clip-path="url(#pbba4fd7289)" style="fill: #d68f95"/>
   </g>
   <g id="patch_4">
    <path d="M 260.770342 44.672727 
L 362.943224 44.672727 
L 362.943224 2.127273 
L 260.770342 2.127273 
z
" clip-path="url(#pbba4fd7289)" style="fill: #d18c91"/>
   </g>
   <g id="patch_5">
    <path d="M 362.943224 44.672727 
L 460.09296 44.672727 
L 460.09296 2.127273 
L 362.943224 2.127273 
z
" clip-path="url(#pbba4fd7289)" style="fill: #dd969e"/>
   </g>
   <g id="patch_6">
    <path d="M 460.09296 44.672727 
L 528.57709 44.672727 
L 528.57709 2.127273 
L 460.09296 2.127273 
z
" clip-path="url(#pbba4fd7289)" style="fill: #cb878d"/>
   </g>
   <g id="patch_7">
    <path d="M 528.57709 44.672727 
L 574.325395 44.672727 
L 574.325395 2.127273 
L 528.57709 2.127273 
z
" clip-path="url(#pbba4fd7289)" style="fill: #c38389"/>
   </g>
   <g id="patch_8">
    <path d="M 574.325395 44.672727 
L 609.337432 44.672727 
L 609.337432 2.127273 
L 574.325395 2.127273 
z
" clip-path="url(#pbba4fd7289)" style="fill: #b97f84"/>
   </g>
   <g id="patch_9">
    <path d="M 609.337432 44.672727 
L 642.24288 44.672727 
L 642.24288 2.127273 
L 609.337432 2.127273 
z
" clip-path="url(#pbba4fd7289)" style="fill: #d0919b"/>
   </g>
   <g id="patch_10">
    <path d="M 642.24288 44.672727 
L 670.361838 44.672727 
L 670.361838 2.127273 
L 642.24288 2.127273 
z
" clip-path="url(#pbba4fd7289)" style="fill: #af7a7e"/>
   </g>
   <g id="patch_11">
    <path d="M 670.361838 44.672727 
L 691.424392 44.672727 
L 691.424392 2.127273 
L 670.361838 2.127273 
z
" clip-path="url(#pbba4fd7289)" style="fill: #a37478"/>
   </g>
   <g id="patch_12">
    <path d="M 691.424392 44.672727 
L 704.333914 44.672727 
L 704.333914 2.127273 
L 691.424392 2.127273 
z
" clip-path="url(#pbba4fd7289)" style="fill: #966d6f"/>
   </g>
   <g id="patch_13">
    <path d="M 704.333914 44.672727 
L 710.953668 44.672727 
L 710.953668 2.127273 
L 704.333914 2.127273 
z
" clip-path="url(#pbba4fd7289)" style="fill: #856163"/>
   </g>
   <g id="patch_14">
    <path d="M 710.953668 44.672727 
L 715.053517 44.672727 
L 715.053517 2.127273 
L 710.953668 2.127273 
z
" clip-path="url(#pbba4fd7289)" style="fill: #32262a"/>
   </g>
   <g id="patch_15">
    <path d="M 715.053517 44.672727 
L 718.406726 44.672727 
L 718.406726 2.127273 
L 715.053517 2.127273 
z
" clip-path="url(#pbba4fd7289)" style="fill: #6e5052"/>
   </g>
   <g id="patch_16">
    <path d="M 718.406726 44.672727 
L 720 44.672727 
L 720 2.127273 
L 718.406726 2.127273 
z
" clip-path="url(#pbba4fd7289)" style="fill: #53373a"/>
   </g>
  </g>
 </g>
 <defs>
  <clipPath id="pbba4fd7289">
   <rect x="0" y="0" width="720" height="46.8"/>
  </clipPath>
 </defs>
</svg>
