<?xml version="1.0" encoding="utf-8" standalone="no"?>
<!DOCTYPE svg PUBLIC "-//W3C//DTD SVG 1.1//EN"
  "http://www.w3.org/Graphics/SVG/1.1/DTD/svg11.dtd">
<svg xmlns:xlink="http://www.w3.org/1999/xlink" width="392.14375pt" height="294.23625pt" viewBox="0 0 392.14375 294.23625" xmlns="http://www.w3.org/2000/svg" version="1.1">
 <metadata>
  <rdf:RDF xmlns:dc="http://purl.org/dc/elements/1.1/" xmlns:cc="http://creativecommons.org/ns#" xmlns:rdf="http://www.w3.org/1999/02/22-rdf-syntax-ns#">
   <cc:Work>
    <dc:type rdf:resource="http://purl.org/dc/dcmitype/StillImage"/>
    <dc:date>2024-07-07T02:08:11.569812</dc:date>
    <dc:format>image/svg+xml</dc:format>
    <dc:creator>
     <cc:Agent>
      <dc:title>Matplotlib v3.7.1, https://matplotlib.org/</dc:title>
     </cc:Agent>
    </dc:creator>
   </cc:Work>
  </rdf:RDF>
 </metadata>
 <defs>
  <style type="text/css">*{stroke-linejoin: round; stroke-linecap: butt}</style>
 </defs>
 <g id="figure_1">
  <g id="patch_1">
   <path d="M 0 294.23625 
L 392.14375 294.23625 
L 392.14375 0 
L 0 0 
z
" style="fill: #ffffff"/>
  </g>
  <g id="axes_1">
   <g id="patch_2">
    <path d="M 50.14375 256.68 
L 384.94375 256.68 
L 384.94375 7.2 
L 50.14375 7.2 
z
" style="fill: #ffffff"/>
   </g>
   <g id="matplotlib.axis_1">
    <g id="xtick_1">
     <g id="line2d_1">
      <defs>
       <path id="mcdcc68de73" d="M 0 0 
L 0 3.5 
" style="stroke: #000000; stroke-width: 0.8"/>
      </defs>
      <g>
       <use xlink:href="#mcdcc68de73" x="65.361932" y="256.68" style="stroke: #000000; stroke-width: 0.8"/>
      </g>
     </g>
     <g id="text_1">
      <!-- 0 -->
      <g transform="translate(62.180682 271.278438) scale(0.1 -0.1)">
       <defs>
        <path id="DejaVuSans-30" d="M 2034 4250 
Q 1547 4250 1301 3770 
Q 1056 3291 1056 2328 
Q 1056 1369 1301 889 
Q 1547 409 2034 409 
Q 2525 409 2770 889 
Q 3016 1369 3016 2328 
Q 3016 3291 2770 3770 
Q 2525 4250 2034 4250 
z
M 2034 4750 
Q 2819 4750 3233 4129 
Q 3647 3509 3647 2328 
Q 3647 1150 3233 529 
Q 2819 -91 2034 -91 
Q 1250 -91 836 529 
Q 422 1150 422 2328 
Q 422 3509 836 4129 
Q 1250 4750 2034 4750 
z
" transform="scale(0.015625)"/>
       </defs>
       <use xlink:href="#DejaVuSans-30"/>
      </g>
     </g>
    </g>
    <g id="xtick_2">
     <g id="line2d_2">
      <g>
       <use xlink:href="#mcdcc68de73" x="125.041076" y="256.68" style="stroke: #000000; stroke-width: 0.8"/>
      </g>
     </g>
     <g id="text_2">
      <!-- 50 -->
      <g transform="translate(118.678576 271.278438) scale(0.1 -0.1)">
       <defs>
        <path id="DejaVuSans-35" d="M 691 4666 
L 3169 4666 
L 3169 4134 
L 1269 4134 
L 1269 2991 
Q 1406 3038 1543 3061 
Q 1681 3084 1819 3084 
Q 2600 3084 3056 2656 
Q 3513 2228 3513 1497 
Q 3513 744 3044 326 
Q 2575 -91 1722 -91 
Q 1428 -91 1123 -41 
Q 819 9 494 109 
L 494 744 
Q 775 591 1075 516 
Q 1375 441 1709 441 
Q 2250 441 2565 725 
Q 2881 1009 2881 1497 
Q 2881 1984 2565 2268 
Q 2250 2553 1709 2553 
Q 1456 2553 1204 2497 
Q 953 2441 691 2322 
L 691 4666 
z
" transform="scale(0.015625)"/>
       </defs>
       <use xlink:href="#DejaVuSans-35"/>
       <use xlink:href="#DejaVuSans-30" x="63.623047"/>
      </g>
     </g>
    </g>
    <g id="xtick_3">
     <g id="line2d_3">
      <g>
       <use xlink:href="#mcdcc68de73" x="184.720221" y="256.68" style="stroke: #000000; stroke-width: 0.8"/>
      </g>
     </g>
     <g id="text_3">
      <!-- 100 -->
      <g transform="translate(175.176471 271.278438) scale(0.1 -0.1)">
       <defs>
        <path id="DejaVuSans-31" d="M 794 531 
L 1825 531 
L 1825 4091 
L 703 3866 
L 703 4441 
L 1819 4666 
L 2450 4666 
L 2450 531 
L 3481 531 
L 3481 0 
L 794 0 
L 794 531 
z
" transform="scale(0.015625)"/>
       </defs>
       <use xlink:href="#DejaVuSans-31"/>
       <use xlink:href="#DejaVuSans-30" x="63.623047"/>
       <use xlink:href="#DejaVuSans-30" x="127.246094"/>
      </g>
     </g>
    </g>
    <g id="xtick_4">
     <g id="line2d_4">
      <g>
       <use xlink:href="#mcdcc68de73" x="244.399365" y="256.68" style="stroke: #000000; stroke-width: 0.8"/>
      </g>
     </g>
     <g id="text_4">
      <!-- 150 -->
      <g transform="translate(234.855615 271.278438) scale(0.1 -0.1)">
       <use xlink:href="#DejaVuSans-31"/>
       <use xlink:href="#DejaVuSans-35" x="63.623047"/>
       <use xlink:href="#DejaVuSans-30" x="127.246094"/>
      </g>
     </g>
    </g>
    <g id="xtick_5">
     <g id="line2d_5">
      <g>
       <use xlink:href="#mcdcc68de73" x="304.078509" y="256.68" style="stroke: #000000; stroke-width: 0.8"/>
      </g>
     </g>
     <g id="text_5">
      <!-- 200 -->
      <g transform="translate(294.534759 271.278438) scale(0.1 -0.1)">
       <defs>
        <path id="DejaVuSans-32" d="M 1228 531 
L 3431 531 
L 3431 0 
L 469 0 
L 469 531 
Q 828 903 1448 1529 
Q 2069 2156 2228 2338 
Q 2531 2678 2651 2914 
Q 2772 3150 2772 3378 
Q 2772 3750 2511 3984 
Q 2250 4219 1831 4219 
Q 1534 4219 1204 4116 
Q 875 4013 500 3803 
L 500 4441 
Q 881 4594 1212 4672 
Q 1544 4750 1819 4750 
Q 2544 4750 2975 4387 
Q 3406 4025 3406 3419 
Q 3406 3131 3298 2873 
Q 3191 2616 2906 2266 
Q 2828 2175 2409 1742 
Q 1991 1309 1228 531 
z
" transform="scale(0.015625)"/>
       </defs>
       <use xlink:href="#DejaVuSans-32"/>
       <use xlink:href="#DejaVuSans-30" x="63.623047"/>
       <use xlink:href="#DejaVuSans-30" x="127.246094"/>
      </g>
     </g>
    </g>
    <g id="xtick_6">
     <g id="line2d_6">
      <g>
       <use xlink:href="#mcdcc68de73" x="363.757654" y="256.68" style="stroke: #000000; stroke-width: 0.8"/>
      </g>
     </g>
     <g id="text_6">
      <!-- 250 -->
      <g transform="translate(354.213904 271.278438) scale(0.1 -0.1)">
       <use xlink:href="#DejaVuSans-32"/>
       <use xlink:href="#DejaVuSans-35" x="63.623047"/>
       <use xlink:href="#DejaVuSans-30" x="127.246094"/>
      </g>
     </g>
    </g>
    <g id="text_7">
     <!-- Channel -->
     <g transform="translate(197.016406 284.956563) scale(0.1 -0.1)">
      <defs>
       <path id="DejaVuSans-43" d="M 4122 4306 
L 4122 3641 
Q 3803 3938 3442 4084 
Q 3081 4231 2675 4231 
Q 1875 4231 1450 3742 
Q 1025 3253 1025 2328 
Q 1025 1406 1450 917 
Q 1875 428 2675 428 
Q 3081 428 3442 575 
Q 3803 722 4122 1019 
L 4122 359 
Q 3791 134 3420 21 
Q 3050 -91 2638 -91 
Q 1578 -91 968 557 
Q 359 1206 359 2328 
Q 359 3453 968 4101 
Q 1578 4750 2638 4750 
Q 3056 4750 3426 4639 
Q 3797 4528 4122 4306 
z
" transform="scale(0.015625)"/>
       <path id="DejaVuSans-68" d="M 3513 2113 
L 3513 0 
L 2938 0 
L 2938 2094 
Q 2938 2591 2744 2837 
Q 2550 3084 2163 3084 
Q 1697 3084 1428 2787 
Q 1159 2491 1159 1978 
L 1159 0 
L 581 0 
L 581 4863 
L 1159 4863 
L 1159 2956 
Q 1366 3272 1645 3428 
Q 1925 3584 2291 3584 
Q 2894 3584 3203 3211 
Q 3513 2838 3513 2113 
z
" transform="scale(0.015625)"/>
       <path id="DejaVuSans-61" d="M 2194 1759 
Q 1497 1759 1228 1600 
Q 959 1441 959 1056 
Q 959 750 1161 570 
Q 1363 391 1709 391 
Q 2188 391 2477 730 
Q 2766 1069 2766 1631 
L 2766 1759 
L 2194 1759 
z
M 3341 1997 
L 3341 0 
L 2766 0 
L 2766 531 
Q 2569 213 2275 61 
Q 1981 -91 1556 -91 
Q 1019 -91 701 211 
Q 384 513 384 1019 
Q 384 1609 779 1909 
Q 1175 2209 1959 2209 
L 2766 2209 
L 2766 2266 
Q 2766 2663 2505 2880 
Q 2244 3097 1772 3097 
Q 1472 3097 1187 3025 
Q 903 2953 641 2809 
L 641 3341 
Q 956 3463 1253 3523 
Q 1550 3584 1831 3584 
Q 2591 3584 2966 3190 
Q 3341 2797 3341 1997 
z
" transform="scale(0.015625)"/>
       <path id="DejaVuSans-6e" d="M 3513 2113 
L 3513 0 
L 2938 0 
L 2938 2094 
Q 2938 2591 2744 2837 
Q 2550 3084 2163 3084 
Q 1697 3084 1428 2787 
Q 1159 2491 1159 1978 
L 1159 0 
L 581 0 
L 581 3500 
L 1159 3500 
L 1159 2956 
Q 1366 3272 1645 3428 
Q 1925 3584 2291 3584 
Q 2894 3584 3203 3211 
Q 3513 2838 3513 2113 
z
" transform="scale(0.015625)"/>
       <path id="DejaVuSans-65" d="M 3597 1894 
L 3597 1613 
L 953 1613 
Q 991 1019 1311 708 
Q 1631 397 2203 397 
Q 2534 397 2845 478 
Q 3156 559 3463 722 
L 3463 178 
Q 3153 47 2828 -22 
Q 2503 -91 2169 -91 
Q 1331 -91 842 396 
Q 353 884 353 1716 
Q 353 2575 817 3079 
Q 1281 3584 2069 3584 
Q 2775 3584 3186 3129 
Q 3597 2675 3597 1894 
z
M 3022 2063 
Q 3016 2534 2758 2815 
Q 2500 3097 2075 3097 
Q 1594 3097 1305 2825 
Q 1016 2553 972 2059 
L 3022 2063 
z
" transform="scale(0.015625)"/>
       <path id="DejaVuSans-6c" d="M 603 4863 
L 1178 4863 
L 1178 0 
L 603 0 
L 603 4863 
z
" transform="scale(0.015625)"/>
      </defs>
      <use xlink:href="#DejaVuSans-43"/>
      <use xlink:href="#DejaVuSans-68" x="69.824219"/>
      <use xlink:href="#DejaVuSans-61" x="133.203125"/>
      <use xlink:href="#DejaVuSans-6e" x="194.482422"/>
      <use xlink:href="#DejaVuSans-6e" x="257.861328"/>
      <use xlink:href="#DejaVuSans-65" x="321.240234"/>
      <use xlink:href="#DejaVuSans-6c" x="382.763672"/>
     </g>
    </g>
   </g>
   <g id="matplotlib.axis_2">
    <g id="ytick_1">
     <g id="line2d_7">
      <defs>
       <path id="m8308a1c2e2" d="M 0 0 
L -3.5 0 
" style="stroke: #000000; stroke-width: 0.8"/>
      </defs>
      <g>
       <use xlink:href="#m8308a1c2e2" x="50.14375" y="256.68" style="stroke: #000000; stroke-width: 0.8"/>
      </g>
     </g>
     <g id="text_8">
      <!-- 0.00 -->
      <g transform="translate(20.878125 260.479219) scale(0.1 -0.1)">
       <defs>
        <path id="DejaVuSans-2e" d="M 684 794 
L 1344 794 
L 1344 0 
L 684 0 
L 684 794 
z
" transform="scale(0.015625)"/>
       </defs>
       <use xlink:href="#DejaVuSans-30"/>
       <use xlink:href="#DejaVuSans-2e" x="63.623047"/>
       <use xlink:href="#DejaVuSans-30" x="95.410156"/>
       <use xlink:href="#DejaVuSans-30" x="159.033203"/>
      </g>
     </g>
    </g>
    <g id="ytick_2">
     <g id="line2d_8">
      <g>
       <use xlink:href="#m8308a1c2e2" x="50.14375" y="207.74625" style="stroke: #000000; stroke-width: 0.8"/>
      </g>
     </g>
     <g id="text_9">
      <!-- 0.01 -->
      <g transform="translate(20.878125 211.545469) scale(0.1 -0.1)">
       <use xlink:href="#DejaVuSans-30"/>
       <use xlink:href="#DejaVuSans-2e" x="63.623047"/>
       <use xlink:href="#DejaVuSans-30" x="95.410156"/>
       <use xlink:href="#DejaVuSans-31" x="159.033203"/>
      </g>
     </g>
    </g>
    <g id="ytick_3">
     <g id="line2d_9">
      <g>
       <use xlink:href="#m8308a1c2e2" x="50.14375" y="158.812501" style="stroke: #000000; stroke-width: 0.8"/>
      </g>
     </g>
     <g id="text_10">
      <!-- 0.02 -->
      <g transform="translate(20.878125 162.61172) scale(0.1 -0.1)">
       <use xlink:href="#DejaVuSans-30"/>
       <use xlink:href="#DejaVuSans-2e" x="63.623047"/>
       <use xlink:href="#DejaVuSans-30" x="95.410156"/>
       <use xlink:href="#DejaVuSans-32" x="159.033203"/>
      </g>
     </g>
    </g>
    <g id="ytick_4">
     <g id="line2d_10">
      <g>
       <use xlink:href="#m8308a1c2e2" x="50.14375" y="109.878751" style="stroke: #000000; stroke-width: 0.8"/>
      </g>
     </g>
     <g id="text_11">
      <!-- 0.03 -->
      <g transform="translate(20.878125 113.67797) scale(0.1 -0.1)">
       <defs>
        <path id="DejaVuSans-33" d="M 2597 2516 
Q 3050 2419 3304 2112 
Q 3559 1806 3559 1356 
Q 3559 666 3084 287 
Q 2609 -91 1734 -91 
Q 1441 -91 1130 -33 
Q 819 25 488 141 
L 488 750 
Q 750 597 1062 519 
Q 1375 441 1716 441 
Q 2309 441 2620 675 
Q 2931 909 2931 1356 
Q 2931 1769 2642 2001 
Q 2353 2234 1838 2234 
L 1294 2234 
L 1294 2753 
L 1863 2753 
Q 2328 2753 2575 2939 
Q 2822 3125 2822 3475 
Q 2822 3834 2567 4026 
Q 2313 4219 1838 4219 
Q 1578 4219 1281 4162 
Q 984 4106 628 3988 
L 628 4550 
Q 988 4650 1302 4700 
Q 1616 4750 1894 4750 
Q 2613 4750 3031 4423 
Q 3450 4097 3450 3541 
Q 3450 3153 3228 2886 
Q 3006 2619 2597 2516 
z
" transform="scale(0.015625)"/>
       </defs>
       <use xlink:href="#DejaVuSans-30"/>
       <use xlink:href="#DejaVuSans-2e" x="63.623047"/>
       <use xlink:href="#DejaVuSans-30" x="95.410156"/>
       <use xlink:href="#DejaVuSans-33" x="159.033203"/>
      </g>
     </g>
    </g>
    <g id="ytick_5">
     <g id="line2d_11">
      <g>
       <use xlink:href="#m8308a1c2e2" x="50.14375" y="60.945002" style="stroke: #000000; stroke-width: 0.8"/>
      </g>
     </g>
     <g id="text_12">
      <!-- 0.04 -->
      <g transform="translate(20.878125 64.744221) scale(0.1 -0.1)">
       <defs>
        <path id="DejaVuSans-34" d="M 2419 4116 
L 825 1625 
L 2419 1625 
L 2419 4116 
z
M 2253 4666 
L 3047 4666 
L 3047 1625 
L 3713 1625 
L 3713 1100 
L 3047 1100 
L 3047 0 
L 2419 0 
L 2419 1100 
L 313 1100 
L 313 1709 
L 2253 4666 
z
" transform="scale(0.015625)"/>
       </defs>
       <use xlink:href="#DejaVuSans-30"/>
       <use xlink:href="#DejaVuSans-2e" x="63.623047"/>
       <use xlink:href="#DejaVuSans-30" x="95.410156"/>
       <use xlink:href="#DejaVuSans-34" x="159.033203"/>
      </g>
     </g>
    </g>
    <g id="ytick_6">
     <g id="line2d_12">
      <g>
       <use xlink:href="#m8308a1c2e2" x="50.14375" y="12.011252" style="stroke: #000000; stroke-width: 0.8"/>
      </g>
     </g>
     <g id="text_13">
      <!-- 0.05 -->
      <g transform="translate(20.878125 15.810471) scale(0.1 -0.1)">
       <use xlink:href="#DejaVuSans-30"/>
       <use xlink:href="#DejaVuSans-2e" x="63.623047"/>
       <use xlink:href="#DejaVuSans-30" x="95.410156"/>
       <use xlink:href="#DejaVuSans-35" x="159.033203"/>
      </g>
     </g>
    </g>
    <g id="text_14">
     <!-- Probability -->
     <g transform="translate(14.798438 158.368906) rotate(-90) scale(0.1 -0.1)">
      <defs>
       <path id="DejaVuSans-50" d="M 1259 4147 
L 1259 2394 
L 2053 2394 
Q 2494 2394 2734 2622 
Q 2975 2850 2975 3272 
Q 2975 3691 2734 3919 
Q 2494 4147 2053 4147 
L 1259 4147 
z
M 628 4666 
L 2053 4666 
Q 2838 4666 3239 4311 
Q 3641 3956 3641 3272 
Q 3641 2581 3239 2228 
Q 2838 1875 2053 1875 
L 1259 1875 
L 1259 0 
L 628 0 
L 628 4666 
z
" transform="scale(0.015625)"/>
       <path id="DejaVuSans-72" d="M 2631 2963 
Q 2534 3019 2420 3045 
Q 2306 3072 2169 3072 
Q 1681 3072 1420 2755 
Q 1159 2438 1159 1844 
L 1159 0 
L 581 0 
L 581 3500 
L 1159 3500 
L 1159 2956 
Q 1341 3275 1631 3429 
Q 1922 3584 2338 3584 
Q 2397 3584 2469 3576 
Q 2541 3569 2628 3553 
L 2631 2963 
z
" transform="scale(0.015625)"/>
       <path id="DejaVuSans-6f" d="M 1959 3097 
Q 1497 3097 1228 2736 
Q 959 2375 959 1747 
Q 959 1119 1226 758 
Q 1494 397 1959 397 
Q 2419 397 2687 759 
Q 2956 1122 2956 1747 
Q 2956 2369 2687 2733 
Q 2419 3097 1959 3097 
z
M 1959 3584 
Q 2709 3584 3137 3096 
Q 3566 2609 3566 1747 
Q 3566 888 3137 398 
Q 2709 -91 1959 -91 
Q 1206 -91 779 398 
Q 353 888 353 1747 
Q 353 2609 779 3096 
Q 1206 3584 1959 3584 
z
" transform="scale(0.015625)"/>
       <path id="DejaVuSans-62" d="M 3116 1747 
Q 3116 2381 2855 2742 
Q 2594 3103 2138 3103 
Q 1681 3103 1420 2742 
Q 1159 2381 1159 1747 
Q 1159 1113 1420 752 
Q 1681 391 2138 391 
Q 2594 391 2855 752 
Q 3116 1113 3116 1747 
z
M 1159 2969 
Q 1341 3281 1617 3432 
Q 1894 3584 2278 3584 
Q 2916 3584 3314 3078 
Q 3713 2572 3713 1747 
Q 3713 922 3314 415 
Q 2916 -91 2278 -91 
Q 1894 -91 1617 61 
Q 1341 213 1159 525 
L 1159 0 
L 581 0 
L 581 4863 
L 1159 4863 
L 1159 2969 
z
" transform="scale(0.015625)"/>
       <path id="DejaVuSans-69" d="M 603 3500 
L 1178 3500 
L 1178 0 
L 603 0 
L 603 3500 
z
M 603 4863 
L 1178 4863 
L 1178 4134 
L 603 4134 
L 603 4863 
z
" transform="scale(0.015625)"/>
       <path id="DejaVuSans-74" d="M 1172 4494 
L 1172 3500 
L 2356 3500 
L 2356 3053 
L 1172 3053 
L 1172 1153 
Q 1172 725 1289 603 
Q 1406 481 1766 481 
L 2356 481 
L 2356 0 
L 1766 0 
Q 1100 0 847 248 
Q 594 497 594 1153 
L 594 3053 
L 172 3053 
L 172 3500 
L 594 3500 
L 594 4494 
L 1172 4494 
z
" transform="scale(0.015625)"/>
       <path id="DejaVuSans-79" d="M 2059 -325 
Q 1816 -950 1584 -1140 
Q 1353 -1331 966 -1331 
L 506 -1331 
L 506 -850 
L 844 -850 
Q 1081 -850 1212 -737 
Q 1344 -625 1503 -206 
L 1606 56 
L 191 3500 
L 800 3500 
L 1894 763 
L 2988 3500 
L 3597 3500 
L 2059 -325 
z
" transform="scale(0.015625)"/>
      </defs>
      <use xlink:href="#DejaVuSans-50"/>
      <use xlink:href="#DejaVuSans-72" x="58.552734"/>
      <use xlink:href="#DejaVuSans-6f" x="97.416016"/>
      <use xlink:href="#DejaVuSans-62" x="158.597656"/>
      <use xlink:href="#DejaVuSans-61" x="222.074219"/>
      <use xlink:href="#DejaVuSans-62" x="283.353516"/>
      <use xlink:href="#DejaVuSans-69" x="346.830078"/>
      <use xlink:href="#DejaVuSans-6c" x="374.613281"/>
      <use xlink:href="#DejaVuSans-69" x="402.396484"/>
      <use xlink:href="#DejaVuSans-74" x="430.179688"/>
      <use xlink:href="#DejaVuSans-79" x="469.388672"/>
     </g>
    </g>
   </g>
   <g id="line2d_13">
    <path d="M 65.361932 217.278845 
L 66.555515 234.390082 
L 67.749098 239.478499 
L 68.94268 243.437729 
L 70.136263 245.457166 
L 71.329846 246.242995 
L 72.523429 247.547399 
L 73.717012 248.60225 
L 74.910595 249.460644 
L 77.297761 250.653545 
L 78.491344 251.147343 
L 79.684926 252.005737 
L 80.878509 252.494225 
L 82.072092 252.632276 
L 83.265675 253.239346 
L 84.459258 253.384476 
L 85.652841 253.685356 
L 86.846424 253.834027 
L 89.23359 254.318975 
L 91.620755 254.485344 
L 94.007921 254.671182 
L 95.201504 254.934894 
L 96.395087 254.710119 
L 97.58867 254.943744 
L 99.975836 255.021619 
L 101.169418 255.15613 
L 102.363001 255.072945 
L 104.750167 255.133121 
L 105.94375 255.297721 
L 110.718082 255.280022 
L 113.105247 255.430462 
L 114.29883 255.350817 
L 116.685996 255.418073 
L 123.847493 255.426922 
L 132.202574 255.501257 
L 133.396156 255.655237 
L 134.589739 255.513647 
L 138.170488 255.621609 
L 140.557654 255.504797 
L 141.751237 255.490638 
L 142.94482 255.61099 
L 147.719151 255.527806 
L 148.912734 255.625149 
L 150.106317 255.492408 
L 152.493483 255.637538 
L 154.880648 255.543735 
L 158.461397 255.641078 
L 159.65498 255.554354 
L 162.042146 255.60568 
L 165.622894 255.543735 
L 166.816477 255.587982 
L 168.01006 255.504797 
L 169.203643 255.568513 
L 171.590809 255.526036 
L 172.784392 255.46232 
L 175.171557 255.587982 
L 176.36514 255.387985 
L 179.945889 255.472939 
L 183.526638 255.269403 
L 185.913803 255.403914 
L 190.688135 255.019849 
L 191.881718 255.087105 
L 193.075301 254.973832 
L 195.462467 254.462335 
L 196.656049 254.506583 
L 197.849632 254.318975 
L 199.043215 253.741993 
L 200.236798 253.310141 
L 201.430381 253.262354 
L 202.623964 253.453502 
L 203.817547 253.761461 
L 205.01113 253.757922 
L 206.204713 253.982697 
L 207.398295 254.533131 
L 209.785461 255.00569 
L 214.559793 255.106573 
L 215.753376 255.018079 
L 216.946959 255.118962 
L 219.334124 254.832241 
L 225.302039 254.653483 
L 226.495622 254.756136 
L 228.882787 254.69242 
L 236.044285 255.076485 
L 237.237868 255.065866 
L 238.431451 254.904806 
L 240.818616 254.966752 
L 243.205782 254.745517 
L 246.786531 254.743747 
L 256.335194 252.782716 
L 257.528777 252.464137 
L 258.72236 252.343784 
L 259.915943 251.506629 
L 262.303108 251.287164 
L 263.496691 249.611084 
L 264.690274 249.409317 
L 265.883857 249.455334 
L 267.07744 249.127905 
L 268.271023 247.027053 
L 269.464606 245.963353 
L 270.658189 246.906701 
L 273.045354 244.715585 
L 274.238937 245.839461 
L 275.43252 245.131508 
L 276.626103 245.211152 
L 277.819686 244.986377 
L 279.013269 245.39876 
L 280.206852 244.503199 
L 281.400434 244.48727 
L 282.594017 244.595233 
L 283.7876 243.699672 
L 284.981183 243.147468 
L 286.174766 242.894374 
L 287.368349 241.949256 
L 288.561932 241.549263 
L 292.14268 237.963478 
L 293.336263 237.427203 
L 294.529846 239.101513 
L 295.723429 241.464308 
L 296.917012 240.605915 
L 298.110595 241.906779 
L 299.304178 244.096126 
L 300.497761 244.657179 
L 301.691344 243.697902 
L 302.884926 242.972249 
L 304.078509 243.995242 
L 305.272092 242.250137 
L 306.465675 242.676679 
L 307.659258 243.843032 
L 308.852841 244.63594 
L 310.046424 244.542136 
L 311.240007 243.977543 
L 312.43359 244.204089 
L 313.627172 243.706751 
L 314.820755 244.246566 
L 316.014338 245.179295 
L 318.401504 245.713799 
L 319.595087 245.441237 
L 320.78867 245.561589 
L 321.982253 245.85362 
L 323.175836 245.825302 
L 325.563001 245.273098 
L 327.950167 244.319131 
L 331.530916 240.83246 
L 332.724499 239.246644 
L 333.918082 237.251985 
L 335.111664 235.834308 
L 336.305247 233.997168 
L 337.49883 232.919309 
L 338.692413 231.119337 
L 339.885996 230.200767 
L 341.079579 229.515822 
L 342.273162 229.843251 
L 343.466745 228.703445 
L 344.660328 229.124678 
L 345.85391 229.273348 
L 347.047493 229.800774 
L 348.241076 231.425527 
L 349.434659 231.807822 
L 350.628242 234.650255 
L 354.208991 244.63417 
L 355.402574 249.011093 
L 356.596156 252.055293 
L 357.789739 253.897743 
L 358.983322 254.885338 
L 360.176905 255.419843 
L 361.370488 255.830456 
L 363.757654 256.202131 
L 366.14482 256.352571 
L 368.531985 256.444605 
L 369.725568 256.019833 
L 369.725568 256.019833 
" clip-path="url(#p3ee1fe8153)" style="fill: none; stroke: #ff0000; stroke-width: 1.5; stroke-linecap: square"/>
   </g>
   <g id="line2d_14">
    <path d="M 65.361932 206.716178 
L 66.555515 223.592021 
L 68.94268 219.900043 
L 71.329846 231.590126 
L 72.523429 236.375892 
L 74.910595 241.998813 
L 76.104178 244.427094 
L 77.297761 246.050077 
L 78.491344 246.221756 
L 79.684926 247.120857 
L 80.878509 247.023514 
L 82.072092 246.487239 
L 83.265675 243.340385 
L 84.459258 239.037797 
L 85.652841 238.028964 
L 86.846424 236.636065 
L 89.23359 237.832507 
L 90.427172 237.345788 
L 91.620755 236.444918 
L 92.814338 237.828967 
L 94.007921 238.582937 
L 95.201504 239.480268 
L 96.395087 239.600621 
L 97.58867 240.505031 
L 99.975836 240.078489 
L 101.169418 240.080259 
L 102.363001 240.478483 
L 103.556584 241.579351 
L 104.750167 243.959845 
L 105.94375 245.053633 
L 107.137333 247.483683 
L 108.330916 249.106667 
L 109.524499 251.081857 
L 110.718082 251.867686 
L 111.911664 253.051738 
L 113.105247 253.708365 
L 116.685996 254.731358 
L 117.879579 254.740207 
L 119.073162 255.088874 
L 126.234659 255.418073 
L 127.428242 255.31365 
L 131.008991 255.478249 
L 132.202574 255.389755 
L 136.976905 255.511877 
L 139.364071 255.373826 
L 154.880648 255.520726 
L 156.074231 255.423382 
L 162.042146 255.469399 
L 163.235729 255.350817 
L 165.622894 255.492408 
L 169.203643 255.370286 
L 171.590809 255.425152 
L 173.977975 255.480019 
L 175.171557 255.518956 
L 176.36514 255.364976 
L 177.558723 255.432232 
L 178.752306 255.352587 
L 179.945889 255.449931 
L 187.107386 255.324269 
L 188.300969 255.426922 
L 189.494552 255.299491 
L 193.075301 255.299491 
L 201.430381 255.202147 
L 208.591878 255.15967 
L 209.785461 255.030468 
L 210.979044 255.094184 
L 212.172627 254.903037 
L 213.36621 255.035778 
L 232.463536 254.384461 
L 233.657119 254.195083 
L 237.237868 254.110129 
L 243.205782 253.444652 
L 244.399365 253.33138 
L 245.592948 253.032269 
L 250.367279 252.403961 
L 253.948028 251.414595 
L 255.141611 251.04469 
L 258.72236 248.90667 
L 261.109525 248.058896 
L 262.303108 247.204042 
L 263.496691 246.76688 
L 264.690274 245.584598 
L 265.883857 244.720895 
L 267.07744 243.558081 
L 268.271023 242.228898 
L 269.464606 240.22185 
L 270.658189 237.536936 
L 271.851771 235.167061 
L 273.045354 233.779472 
L 274.238937 234.413091 
L 275.43252 235.299803 
L 276.626103 237.076766 
L 277.819686 238.002415 
L 279.013269 238.54577 
L 280.206852 238.765235 
L 281.400434 239.418323 
L 282.594017 240.632463 
L 283.7876 240.841309 
L 284.981183 241.189976 
L 286.174766 241.800586 
L 287.368349 243.807635 
L 288.561932 246.570423 
L 289.755515 247.862439 
L 290.949098 248.710213 
L 292.14268 248.570392 
L 293.336263 248.674815 
L 294.529846 248.278361 
L 295.723429 248.115532 
L 296.917012 248.158009 
L 298.110595 247.563328 
L 299.304178 248.101373 
L 300.497761 247.68722 
L 301.691344 247.419968 
L 304.078509 246.481929 
L 305.272092 246.496088 
L 306.465675 246.234145 
L 307.659258 246.304941 
L 308.852841 246.16866 
L 310.046424 246.269543 
L 311.240007 245.55805 
L 312.43359 244.547446 
L 313.627172 243.86958 
L 314.820755 243.625336 
L 316.014338 244.009401 
L 318.401504 246.177509 
L 320.78867 247.658902 
L 321.982253 249.025252 
L 323.175836 250.665935 
L 325.563001 252.745548 
L 326.756584 253.278283 
L 327.950167 254.308356 
L 331.530916 255.441081 
L 332.724499 255.570283 
L 335.111664 256.210981 
L 339.885996 256.480003 
L 343.466745 256.448145 
L 354.208991 256.619824 
L 357.789739 256.641063 
L 368.531985 256.67823 
L 369.725568 256.67823 
L 369.725568 256.67823 
" clip-path="url(#p3ee1fe8153)" style="fill: none; stroke: #008000; stroke-width: 1.5; stroke-linecap: square"/>
   </g>
   <g id="line2d_15">
    <path d="M 65.361932 29.88 
L 66.555515 100.087754 
L 67.749098 105.79209 
L 70.136263 179.047583 
L 71.329846 200.732201 
L 72.523429 215.002774 
L 73.717012 224.659261 
L 76.104178 234.388313 
L 77.297761 237.93693 
L 79.684926 242.266066 
L 80.878509 243.906748 
L 83.265675 246.253614 
L 85.652841 247.99164 
L 86.846424 248.372165 
L 88.040007 249.074809 
L 89.23359 249.547368 
L 90.427172 250.154438 
L 91.620755 250.391603 
L 92.814338 250.867701 
L 95.201504 251.432294 
L 96.395087 251.871225 
L 97.58867 251.938481 
L 98.782253 252.366793 
L 101.169418 252.506614 
L 103.556584 253.030499 
L 104.750167 253.058818 
L 107.137333 253.47474 
L 113.105247 254.035793 
L 114.29883 254.366762 
L 116.685996 254.444637 
L 119.073162 254.657023 
L 120.266745 254.867639 
L 125.041076 255.097724 
L 128.621825 255.398604 
L 129.815408 255.349047 
L 132.202574 255.480019 
L 134.589739 255.591521 
L 136.976905 255.572053 
L 138.170488 255.76143 
L 141.751237 255.839305 
L 153.687066 256.025143 
L 158.461397 256.06762 
L 159.65498 256.110097 
L 162.042146 256.081779 
L 166.816477 256.122487 
L 195.462467 256.099478 
L 203.817547 256.058771 
L 206.204713 256.06408 
L 212.172627 255.998595 
L 220.527707 255.950808 
L 244.399365 255.400374 
L 245.592948 255.257013 
L 247.980114 255.248164 
L 249.173697 255.15436 
L 250.367279 255.173829 
L 252.754445 254.897727 
L 253.948028 254.910116 
L 257.528777 254.464105 
L 258.72236 254.499503 
L 263.496691 253.823407 
L 264.690274 253.453502 
L 265.883857 253.465891 
L 267.07744 253.136692 
L 268.271023 253.041119 
L 269.464606 252.361483 
L 270.658189 251.881845 
L 273.045354 251.273005 
L 275.43252 250.016387 
L 276.626103 249.602234 
L 277.819686 249.703118 
L 279.013269 249.51374 
L 280.206852 250.018157 
L 281.400434 249.582766 
L 283.7876 248.589861 
L 284.981183 248.566852 
L 286.174766 248.276591 
L 287.368349 247.581027 
L 289.755515 244.694346 
L 292.14268 244.313821 
L 293.336263 243.007647 
L 294.529846 243.014727 
L 295.723429 242.80942 
L 296.917012 241.850143 
L 298.110595 242.704997 
L 300.497761 244.046569 
L 301.691344 244.439483 
L 302.884926 244.531517 
L 304.078509 245.444777 
L 305.272092 245.843001 
L 306.465675 245.299647 
L 308.852841 245.158056 
L 310.046424 246.278392 
L 313.627172 251.841137 
L 314.820755 252.267679 
L 316.014338 254.159685 
L 317.207921 255.327809 
L 318.401504 255.695945 
L 320.78867 255.7632 
L 323.175836 256.136646 
L 324.369418 256.159654 
L 325.563001 256.37381 
L 329.14375 256.559648 
L 369.725568 256.68 
L 369.725568 256.68 
" clip-path="url(#p3ee1fe8153)" style="fill: none; stroke: #0000ff; stroke-width: 1.5; stroke-linecap: square"/>
   </g>
   <g id="patch_3">
    <path d="M 50.14375 256.68 
L 50.14375 7.2 
" style="fill: none; stroke: #000000; stroke-width: 0.8; stroke-linejoin: miter; stroke-linecap: square"/>
   </g>
   <g id="patch_4">
    <path d="M 384.94375 256.68 
L 384.94375 7.2 
" style="fill: none; stroke: #000000; stroke-width: 0.8; stroke-linejoin: miter; stroke-linecap: square"/>
   </g>
   <g id="patch_5">
    <path d="M 50.14375 256.68 
L 384.94375 256.68 
" style="fill: none; stroke: #000000; stroke-width: 0.8; stroke-linejoin: miter; stroke-linecap: square"/>
   </g>
   <g id="patch_6">
    <path d="M 50.14375 7.2 
L 384.94375 7.2 
" style="fill: none; stroke: #000000; stroke-width: 0.8; stroke-linejoin: miter; stroke-linecap: square"/>
   </g>
  </g>
 </g>
 <defs>
  <clipPath id="p3ee1fe8153">
   <rect x="50.14375" y="7.2" width="334.8" height="249.48"/>
  </clipPath>
 </defs>
</svg>
