<?xml version="1.0" encoding="utf-8" standalone="no"?>
<!DOCTYPE svg PUBLIC "-//W3C//DTD SVG 1.1//EN"
  "http://www.w3.org/Graphics/SVG/1.1/DTD/svg11.dtd">
<svg xmlns:xlink="http://www.w3.org/1999/xlink" width="398.50625pt" height="294.23625pt" viewBox="0 0 398.50625 294.23625" xmlns="http://www.w3.org/2000/svg" version="1.1">
 <metadata>
  <rdf:RDF xmlns:dc="http://purl.org/dc/elements/1.1/" xmlns:cc="http://creativecommons.org/ns#" xmlns:rdf="http://www.w3.org/1999/02/22-rdf-syntax-ns#">
   <cc:Work>
    <dc:type rdf:resource="http://purl.org/dc/dcmitype/StillImage"/>
    <dc:date>2024-07-11T03:05:59.418115</dc:date>
    <dc:format>image/svg+xml</dc:format>
    <dc:creator>
     <cc:Agent>
      <dc:title>Matplotlib v3.7.1, https://matplotlib.org/</dc:title>
     </cc:Agent>
    </dc:creator>
   </cc:Work>
  </rdf:RDF>
 </metadata>
 <defs>
  <style type="text/css">*{stroke-linejoin: round; stroke-linecap: butt}</style>
 </defs>
 <g id="figure_1">
  <g id="patch_1">
   <path d="M 0 294.23625 
L 398.50625 294.23625 
L 398.50625 0 
L 0 0 
z
" style="fill: #ffffff"/>
  </g>
  <g id="axes_1">
   <g id="patch_2">
    <path d="M 56.50625 256.68 
L 391.30625 256.68 
L 391.30625 7.2 
L 56.50625 7.2 
z
" style="fill: #ffffff"/>
   </g>
   <g id="matplotlib.axis_1">
    <g id="xtick_1">
     <g id="line2d_1">
      <defs>
       <path id="mf696f8e468" d="M 0 0 
L 0 3.5 
" style="stroke: #000000; stroke-width: 0.8"/>
      </defs>
      <g>
       <use xlink:href="#mf696f8e468" x="71.724432" y="256.68" style="stroke: #000000; stroke-width: 0.8"/>
      </g>
     </g>
     <g id="text_1">
      <!-- 0 -->
      <g transform="translate(68.543182 271.278437) scale(0.1 -0.1)">
       <defs>
        <path id="DejaVuSans-30" d="M 2034 4250 
Q 1547 4250 1301 3770 
Q 1056 3291 1056 2328 
Q 1056 1369 1301 889 
Q 1547 409 2034 409 
Q 2525 409 2770 889 
Q 3016 1369 3016 2328 
Q 3016 3291 2770 3770 
Q 2525 4250 2034 4250 
z
M 2034 4750 
Q 2819 4750 3233 4129 
Q 3647 3509 3647 2328 
Q 3647 1150 3233 529 
Q 2819 -91 2034 -91 
Q 1250 -91 836 529 
Q 422 1150 422 2328 
Q 422 3509 836 4129 
Q 1250 4750 2034 4750 
z
" transform="scale(0.015625)"/>
       </defs>
       <use xlink:href="#DejaVuSans-30"/>
      </g>
     </g>
    </g>
    <g id="xtick_2">
     <g id="line2d_2">
      <g>
       <use xlink:href="#mf696f8e468" x="131.403576" y="256.68" style="stroke: #000000; stroke-width: 0.8"/>
      </g>
     </g>
     <g id="text_2">
      <!-- 50 -->
      <g transform="translate(125.041076 271.278437) scale(0.1 -0.1)">
       <defs>
        <path id="DejaVuSans-35" d="M 691 4666 
L 3169 4666 
L 3169 4134 
L 1269 4134 
L 1269 2991 
Q 1406 3038 1543 3061 
Q 1681 3084 1819 3084 
Q 2600 3084 3056 2656 
Q 3513 2228 3513 1497 
Q 3513 744 3044 326 
Q 2575 -91 1722 -91 
Q 1428 -91 1123 -41 
Q 819 9 494 109 
L 494 744 
Q 775 591 1075 516 
Q 1375 441 1709 441 
Q 2250 441 2565 725 
Q 2881 1009 2881 1497 
Q 2881 1984 2565 2268 
Q 2250 2553 1709 2553 
Q 1456 2553 1204 2497 
Q 953 2441 691 2322 
L 691 4666 
z
" transform="scale(0.015625)"/>
       </defs>
       <use xlink:href="#DejaVuSans-35"/>
       <use xlink:href="#DejaVuSans-30" x="63.623047"/>
      </g>
     </g>
    </g>
    <g id="xtick_3">
     <g id="line2d_3">
      <g>
       <use xlink:href="#mf696f8e468" x="191.082721" y="256.68" style="stroke: #000000; stroke-width: 0.8"/>
      </g>
     </g>
     <g id="text_3">
      <!-- 100 -->
      <g transform="translate(181.538971 271.278437) scale(0.1 -0.1)">
       <defs>
        <path id="DejaVuSans-31" d="M 794 531 
L 1825 531 
L 1825 4091 
L 703 3866 
L 703 4441 
L 1819 4666 
L 2450 4666 
L 2450 531 
L 3481 531 
L 3481 0 
L 794 0 
L 794 531 
z
" transform="scale(0.015625)"/>
       </defs>
       <use xlink:href="#DejaVuSans-31"/>
       <use xlink:href="#DejaVuSans-30" x="63.623047"/>
       <use xlink:href="#DejaVuSans-30" x="127.246094"/>
      </g>
     </g>
    </g>
    <g id="xtick_4">
     <g id="line2d_4">
      <g>
       <use xlink:href="#mf696f8e468" x="250.761865" y="256.68" style="stroke: #000000; stroke-width: 0.8"/>
      </g>
     </g>
     <g id="text_4">
      <!-- 150 -->
      <g transform="translate(241.218115 271.278437) scale(0.1 -0.1)">
       <use xlink:href="#DejaVuSans-31"/>
       <use xlink:href="#DejaVuSans-35" x="63.623047"/>
       <use xlink:href="#DejaVuSans-30" x="127.246094"/>
      </g>
     </g>
    </g>
    <g id="xtick_5">
     <g id="line2d_5">
      <g>
       <use xlink:href="#mf696f8e468" x="310.441009" y="256.68" style="stroke: #000000; stroke-width: 0.8"/>
      </g>
     </g>
     <g id="text_5">
      <!-- 200 -->
      <g transform="translate(300.897259 271.278437) scale(0.1 -0.1)">
       <defs>
        <path id="DejaVuSans-32" d="M 1228 531 
L 3431 531 
L 3431 0 
L 469 0 
L 469 531 
Q 828 903 1448 1529 
Q 2069 2156 2228 2338 
Q 2531 2678 2651 2914 
Q 2772 3150 2772 3378 
Q 2772 3750 2511 3984 
Q 2250 4219 1831 4219 
Q 1534 4219 1204 4116 
Q 875 4013 500 3803 
L 500 4441 
Q 881 4594 1212 4672 
Q 1544 4750 1819 4750 
Q 2544 4750 2975 4387 
Q 3406 4025 3406 3419 
Q 3406 3131 3298 2873 
Q 3191 2616 2906 2266 
Q 2828 2175 2409 1742 
Q 1991 1309 1228 531 
z
" transform="scale(0.015625)"/>
       </defs>
       <use xlink:href="#DejaVuSans-32"/>
       <use xlink:href="#DejaVuSans-30" x="63.623047"/>
       <use xlink:href="#DejaVuSans-30" x="127.246094"/>
      </g>
     </g>
    </g>
    <g id="xtick_6">
     <g id="line2d_6">
      <g>
       <use xlink:href="#mf696f8e468" x="370.120154" y="256.68" style="stroke: #000000; stroke-width: 0.8"/>
      </g>
     </g>
     <g id="text_6">
      <!-- 250 -->
      <g transform="translate(360.576404 271.278437) scale(0.1 -0.1)">
       <use xlink:href="#DejaVuSans-32"/>
       <use xlink:href="#DejaVuSans-35" x="63.623047"/>
       <use xlink:href="#DejaVuSans-30" x="127.246094"/>
      </g>
     </g>
    </g>
    <g id="text_7">
     <!-- Channel -->
     <g transform="translate(203.378906 284.956562) scale(0.1 -0.1)">
      <defs>
       <path id="DejaVuSans-43" d="M 4122 4306 
L 4122 3641 
Q 3803 3938 3442 4084 
Q 3081 4231 2675 4231 
Q 1875 4231 1450 3742 
Q 1025 3253 1025 2328 
Q 1025 1406 1450 917 
Q 1875 428 2675 428 
Q 3081 428 3442 575 
Q 3803 722 4122 1019 
L 4122 359 
Q 3791 134 3420 21 
Q 3050 -91 2638 -91 
Q 1578 -91 968 557 
Q 359 1206 359 2328 
Q 359 3453 968 4101 
Q 1578 4750 2638 4750 
Q 3056 4750 3426 4639 
Q 3797 4528 4122 4306 
z
" transform="scale(0.015625)"/>
       <path id="DejaVuSans-68" d="M 3513 2113 
L 3513 0 
L 2938 0 
L 2938 2094 
Q 2938 2591 2744 2837 
Q 2550 3084 2163 3084 
Q 1697 3084 1428 2787 
Q 1159 2491 1159 1978 
L 1159 0 
L 581 0 
L 581 4863 
L 1159 4863 
L 1159 2956 
Q 1366 3272 1645 3428 
Q 1925 3584 2291 3584 
Q 2894 3584 3203 3211 
Q 3513 2838 3513 2113 
z
" transform="scale(0.015625)"/>
       <path id="DejaVuSans-61" d="M 2194 1759 
Q 1497 1759 1228 1600 
Q 959 1441 959 1056 
Q 959 750 1161 570 
Q 1363 391 1709 391 
Q 2188 391 2477 730 
Q 2766 1069 2766 1631 
L 2766 1759 
L 2194 1759 
z
M 3341 1997 
L 3341 0 
L 2766 0 
L 2766 531 
Q 2569 213 2275 61 
Q 1981 -91 1556 -91 
Q 1019 -91 701 211 
Q 384 513 384 1019 
Q 384 1609 779 1909 
Q 1175 2209 1959 2209 
L 2766 2209 
L 2766 2266 
Q 2766 2663 2505 2880 
Q 2244 3097 1772 3097 
Q 1472 3097 1187 3025 
Q 903 2953 641 2809 
L 641 3341 
Q 956 3463 1253 3523 
Q 1550 3584 1831 3584 
Q 2591 3584 2966 3190 
Q 3341 2797 3341 1997 
z
" transform="scale(0.015625)"/>
       <path id="DejaVuSans-6e" d="M 3513 2113 
L 3513 0 
L 2938 0 
L 2938 2094 
Q 2938 2591 2744 2837 
Q 2550 3084 2163 3084 
Q 1697 3084 1428 2787 
Q 1159 2491 1159 1978 
L 1159 0 
L 581 0 
L 581 3500 
L 1159 3500 
L 1159 2956 
Q 1366 3272 1645 3428 
Q 1925 3584 2291 3584 
Q 2894 3584 3203 3211 
Q 3513 2838 3513 2113 
z
" transform="scale(0.015625)"/>
       <path id="DejaVuSans-65" d="M 3597 1894 
L 3597 1613 
L 953 1613 
Q 991 1019 1311 708 
Q 1631 397 2203 397 
Q 2534 397 2845 478 
Q 3156 559 3463 722 
L 3463 178 
Q 3153 47 2828 -22 
Q 2503 -91 2169 -91 
Q 1331 -91 842 396 
Q 353 884 353 1716 
Q 353 2575 817 3079 
Q 1281 3584 2069 3584 
Q 2775 3584 3186 3129 
Q 3597 2675 3597 1894 
z
M 3022 2063 
Q 3016 2534 2758 2815 
Q 2500 3097 2075 3097 
Q 1594 3097 1305 2825 
Q 1016 2553 972 2059 
L 3022 2063 
z
" transform="scale(0.015625)"/>
       <path id="DejaVuSans-6c" d="M 603 4863 
L 1178 4863 
L 1178 0 
L 603 0 
L 603 4863 
z
" transform="scale(0.015625)"/>
      </defs>
      <use xlink:href="#DejaVuSans-43"/>
      <use xlink:href="#DejaVuSans-68" x="69.824219"/>
      <use xlink:href="#DejaVuSans-61" x="133.203125"/>
      <use xlink:href="#DejaVuSans-6e" x="194.482422"/>
      <use xlink:href="#DejaVuSans-6e" x="257.861328"/>
      <use xlink:href="#DejaVuSans-65" x="321.240234"/>
      <use xlink:href="#DejaVuSans-6c" x="382.763672"/>
     </g>
    </g>
   </g>
   <g id="matplotlib.axis_2">
    <g id="ytick_1">
     <g id="line2d_7">
      <defs>
       <path id="m9df3a507d4" d="M 0 0 
L -3.5 0 
" style="stroke: #000000; stroke-width: 0.8"/>
      </defs>
      <g>
       <use xlink:href="#m9df3a507d4" x="56.50625" y="256.68" style="stroke: #000000; stroke-width: 0.8"/>
      </g>
     </g>
     <g id="text_8">
      <!-- 0.000 -->
      <g transform="translate(20.878125 260.479219) scale(0.1 -0.1)">
       <defs>
        <path id="DejaVuSans-2e" d="M 684 794 
L 1344 794 
L 1344 0 
L 684 0 
L 684 794 
z
" transform="scale(0.015625)"/>
       </defs>
       <use xlink:href="#DejaVuSans-30"/>
       <use xlink:href="#DejaVuSans-2e" x="63.623047"/>
       <use xlink:href="#DejaVuSans-30" x="95.410156"/>
       <use xlink:href="#DejaVuSans-30" x="159.033203"/>
       <use xlink:href="#DejaVuSans-30" x="222.65625"/>
      </g>
     </g>
    </g>
    <g id="ytick_2">
     <g id="line2d_8">
      <g>
       <use xlink:href="#m9df3a507d4" x="56.50625" y="227.484701" style="stroke: #000000; stroke-width: 0.8"/>
      </g>
     </g>
     <g id="text_9">
      <!-- 0.002 -->
      <g transform="translate(20.878125 231.283919) scale(0.1 -0.1)">
       <use xlink:href="#DejaVuSans-30"/>
       <use xlink:href="#DejaVuSans-2e" x="63.623047"/>
       <use xlink:href="#DejaVuSans-30" x="95.410156"/>
       <use xlink:href="#DejaVuSans-30" x="159.033203"/>
       <use xlink:href="#DejaVuSans-32" x="222.65625"/>
      </g>
     </g>
    </g>
    <g id="ytick_3">
     <g id="line2d_9">
      <g>
       <use xlink:href="#m9df3a507d4" x="56.50625" y="198.289401" style="stroke: #000000; stroke-width: 0.8"/>
      </g>
     </g>
     <g id="text_10">
      <!-- 0.004 -->
      <g transform="translate(20.878125 202.08862) scale(0.1 -0.1)">
       <defs>
        <path id="DejaVuSans-34" d="M 2419 4116 
L 825 1625 
L 2419 1625 
L 2419 4116 
z
M 2253 4666 
L 3047 4666 
L 3047 1625 
L 3713 1625 
L 3713 1100 
L 3047 1100 
L 3047 0 
L 2419 0 
L 2419 1100 
L 313 1100 
L 313 1709 
L 2253 4666 
z
" transform="scale(0.015625)"/>
       </defs>
       <use xlink:href="#DejaVuSans-30"/>
       <use xlink:href="#DejaVuSans-2e" x="63.623047"/>
       <use xlink:href="#DejaVuSans-30" x="95.410156"/>
       <use xlink:href="#DejaVuSans-30" x="159.033203"/>
       <use xlink:href="#DejaVuSans-34" x="222.65625"/>
      </g>
     </g>
    </g>
    <g id="ytick_4">
     <g id="line2d_10">
      <g>
       <use xlink:href="#m9df3a507d4" x="56.50625" y="169.094102" style="stroke: #000000; stroke-width: 0.8"/>
      </g>
     </g>
     <g id="text_11">
      <!-- 0.006 -->
      <g transform="translate(20.878125 172.893321) scale(0.1 -0.1)">
       <defs>
        <path id="DejaVuSans-36" d="M 2113 2584 
Q 1688 2584 1439 2293 
Q 1191 2003 1191 1497 
Q 1191 994 1439 701 
Q 1688 409 2113 409 
Q 2538 409 2786 701 
Q 3034 994 3034 1497 
Q 3034 2003 2786 2293 
Q 2538 2584 2113 2584 
z
M 3366 4563 
L 3366 3988 
Q 3128 4100 2886 4159 
Q 2644 4219 2406 4219 
Q 1781 4219 1451 3797 
Q 1122 3375 1075 2522 
Q 1259 2794 1537 2939 
Q 1816 3084 2150 3084 
Q 2853 3084 3261 2657 
Q 3669 2231 3669 1497 
Q 3669 778 3244 343 
Q 2819 -91 2113 -91 
Q 1303 -91 875 529 
Q 447 1150 447 2328 
Q 447 3434 972 4092 
Q 1497 4750 2381 4750 
Q 2619 4750 2861 4703 
Q 3103 4656 3366 4563 
z
" transform="scale(0.015625)"/>
       </defs>
       <use xlink:href="#DejaVuSans-30"/>
       <use xlink:href="#DejaVuSans-2e" x="63.623047"/>
       <use xlink:href="#DejaVuSans-30" x="95.410156"/>
       <use xlink:href="#DejaVuSans-30" x="159.033203"/>
       <use xlink:href="#DejaVuSans-36" x="222.65625"/>
      </g>
     </g>
    </g>
    <g id="ytick_5">
     <g id="line2d_11">
      <g>
       <use xlink:href="#m9df3a507d4" x="56.50625" y="139.898802" style="stroke: #000000; stroke-width: 0.8"/>
      </g>
     </g>
     <g id="text_12">
      <!-- 0.008 -->
      <g transform="translate(20.878125 143.698021) scale(0.1 -0.1)">
       <defs>
        <path id="DejaVuSans-38" d="M 2034 2216 
Q 1584 2216 1326 1975 
Q 1069 1734 1069 1313 
Q 1069 891 1326 650 
Q 1584 409 2034 409 
Q 2484 409 2743 651 
Q 3003 894 3003 1313 
Q 3003 1734 2745 1975 
Q 2488 2216 2034 2216 
z
M 1403 2484 
Q 997 2584 770 2862 
Q 544 3141 544 3541 
Q 544 4100 942 4425 
Q 1341 4750 2034 4750 
Q 2731 4750 3128 4425 
Q 3525 4100 3525 3541 
Q 3525 3141 3298 2862 
Q 3072 2584 2669 2484 
Q 3125 2378 3379 2068 
Q 3634 1759 3634 1313 
Q 3634 634 3220 271 
Q 2806 -91 2034 -91 
Q 1263 -91 848 271 
Q 434 634 434 1313 
Q 434 1759 690 2068 
Q 947 2378 1403 2484 
z
M 1172 3481 
Q 1172 3119 1398 2916 
Q 1625 2713 2034 2713 
Q 2441 2713 2670 2916 
Q 2900 3119 2900 3481 
Q 2900 3844 2670 4047 
Q 2441 4250 2034 4250 
Q 1625 4250 1398 4047 
Q 1172 3844 1172 3481 
z
" transform="scale(0.015625)"/>
       </defs>
       <use xlink:href="#DejaVuSans-30"/>
       <use xlink:href="#DejaVuSans-2e" x="63.623047"/>
       <use xlink:href="#DejaVuSans-30" x="95.410156"/>
       <use xlink:href="#DejaVuSans-30" x="159.033203"/>
       <use xlink:href="#DejaVuSans-38" x="222.65625"/>
      </g>
     </g>
    </g>
    <g id="ytick_6">
     <g id="line2d_12">
      <g>
       <use xlink:href="#m9df3a507d4" x="56.50625" y="110.703503" style="stroke: #000000; stroke-width: 0.8"/>
      </g>
     </g>
     <g id="text_13">
      <!-- 0.010 -->
      <g transform="translate(20.878125 114.502722) scale(0.1 -0.1)">
       <use xlink:href="#DejaVuSans-30"/>
       <use xlink:href="#DejaVuSans-2e" x="63.623047"/>
       <use xlink:href="#DejaVuSans-30" x="95.410156"/>
       <use xlink:href="#DejaVuSans-31" x="159.033203"/>
       <use xlink:href="#DejaVuSans-30" x="222.65625"/>
      </g>
     </g>
    </g>
    <g id="ytick_7">
     <g id="line2d_13">
      <g>
       <use xlink:href="#m9df3a507d4" x="56.50625" y="81.508204" style="stroke: #000000; stroke-width: 0.8"/>
      </g>
     </g>
     <g id="text_14">
      <!-- 0.012 -->
      <g transform="translate(20.878125 85.307422) scale(0.1 -0.1)">
       <use xlink:href="#DejaVuSans-30"/>
       <use xlink:href="#DejaVuSans-2e" x="63.623047"/>
       <use xlink:href="#DejaVuSans-30" x="95.410156"/>
       <use xlink:href="#DejaVuSans-31" x="159.033203"/>
       <use xlink:href="#DejaVuSans-32" x="222.65625"/>
      </g>
     </g>
    </g>
    <g id="ytick_8">
     <g id="line2d_14">
      <g>
       <use xlink:href="#m9df3a507d4" x="56.50625" y="52.312904" style="stroke: #000000; stroke-width: 0.8"/>
      </g>
     </g>
     <g id="text_15">
      <!-- 0.014 -->
      <g transform="translate(20.878125 56.112123) scale(0.1 -0.1)">
       <use xlink:href="#DejaVuSans-30"/>
       <use xlink:href="#DejaVuSans-2e" x="63.623047"/>
       <use xlink:href="#DejaVuSans-30" x="95.410156"/>
       <use xlink:href="#DejaVuSans-31" x="159.033203"/>
       <use xlink:href="#DejaVuSans-34" x="222.65625"/>
      </g>
     </g>
    </g>
    <g id="ytick_9">
     <g id="line2d_15">
      <g>
       <use xlink:href="#m9df3a507d4" x="56.50625" y="23.117605" style="stroke: #000000; stroke-width: 0.8"/>
      </g>
     </g>
     <g id="text_16">
      <!-- 0.016 -->
      <g transform="translate(20.878125 26.916824) scale(0.1 -0.1)">
       <use xlink:href="#DejaVuSans-30"/>
       <use xlink:href="#DejaVuSans-2e" x="63.623047"/>
       <use xlink:href="#DejaVuSans-30" x="95.410156"/>
       <use xlink:href="#DejaVuSans-31" x="159.033203"/>
       <use xlink:href="#DejaVuSans-36" x="222.65625"/>
      </g>
     </g>
    </g>
    <g id="text_17">
     <!-- Probability -->
     <g transform="translate(14.798437 158.368906) rotate(-90) scale(0.1 -0.1)">
      <defs>
       <path id="DejaVuSans-50" d="M 1259 4147 
L 1259 2394 
L 2053 2394 
Q 2494 2394 2734 2622 
Q 2975 2850 2975 3272 
Q 2975 3691 2734 3919 
Q 2494 4147 2053 4147 
L 1259 4147 
z
M 628 4666 
L 2053 4666 
Q 2838 4666 3239 4311 
Q 3641 3956 3641 3272 
Q 3641 2581 3239 2228 
Q 2838 1875 2053 1875 
L 1259 1875 
L 1259 0 
L 628 0 
L 628 4666 
z
" transform="scale(0.015625)"/>
       <path id="DejaVuSans-72" d="M 2631 2963 
Q 2534 3019 2420 3045 
Q 2306 3072 2169 3072 
Q 1681 3072 1420 2755 
Q 1159 2438 1159 1844 
L 1159 0 
L 581 0 
L 581 3500 
L 1159 3500 
L 1159 2956 
Q 1341 3275 1631 3429 
Q 1922 3584 2338 3584 
Q 2397 3584 2469 3576 
Q 2541 3569 2628 3553 
L 2631 2963 
z
" transform="scale(0.015625)"/>
       <path id="DejaVuSans-6f" d="M 1959 3097 
Q 1497 3097 1228 2736 
Q 959 2375 959 1747 
Q 959 1119 1226 758 
Q 1494 397 1959 397 
Q 2419 397 2687 759 
Q 2956 1122 2956 1747 
Q 2956 2369 2687 2733 
Q 2419 3097 1959 3097 
z
M 1959 3584 
Q 2709 3584 3137 3096 
Q 3566 2609 3566 1747 
Q 3566 888 3137 398 
Q 2709 -91 1959 -91 
Q 1206 -91 779 398 
Q 353 888 353 1747 
Q 353 2609 779 3096 
Q 1206 3584 1959 3584 
z
" transform="scale(0.015625)"/>
       <path id="DejaVuSans-62" d="M 3116 1747 
Q 3116 2381 2855 2742 
Q 2594 3103 2138 3103 
Q 1681 3103 1420 2742 
Q 1159 2381 1159 1747 
Q 1159 1113 1420 752 
Q 1681 391 2138 391 
Q 2594 391 2855 752 
Q 3116 1113 3116 1747 
z
M 1159 2969 
Q 1341 3281 1617 3432 
Q 1894 3584 2278 3584 
Q 2916 3584 3314 3078 
Q 3713 2572 3713 1747 
Q 3713 922 3314 415 
Q 2916 -91 2278 -91 
Q 1894 -91 1617 61 
Q 1341 213 1159 525 
L 1159 0 
L 581 0 
L 581 4863 
L 1159 4863 
L 1159 2969 
z
" transform="scale(0.015625)"/>
       <path id="DejaVuSans-69" d="M 603 3500 
L 1178 3500 
L 1178 0 
L 603 0 
L 603 3500 
z
M 603 4863 
L 1178 4863 
L 1178 4134 
L 603 4134 
L 603 4863 
z
" transform="scale(0.015625)"/>
       <path id="DejaVuSans-74" d="M 1172 4494 
L 1172 3500 
L 2356 3500 
L 2356 3053 
L 1172 3053 
L 1172 1153 
Q 1172 725 1289 603 
Q 1406 481 1766 481 
L 2356 481 
L 2356 0 
L 1766 0 
Q 1100 0 847 248 
Q 594 497 594 1153 
L 594 3053 
L 172 3053 
L 172 3500 
L 594 3500 
L 594 4494 
L 1172 4494 
z
" transform="scale(0.015625)"/>
       <path id="DejaVuSans-79" d="M 2059 -325 
Q 1816 -950 1584 -1140 
Q 1353 -1331 966 -1331 
L 506 -1331 
L 506 -850 
L 844 -850 
Q 1081 -850 1212 -737 
Q 1344 -625 1503 -206 
L 1606 56 
L 191 3500 
L 800 3500 
L 1894 763 
L 2988 3500 
L 3597 3500 
L 2059 -325 
z
" transform="scale(0.015625)"/>
      </defs>
      <use xlink:href="#DejaVuSans-50"/>
      <use xlink:href="#DejaVuSans-72" x="58.552734"/>
      <use xlink:href="#DejaVuSans-6f" x="97.416016"/>
      <use xlink:href="#DejaVuSans-62" x="158.597656"/>
      <use xlink:href="#DejaVuSans-61" x="222.074219"/>
      <use xlink:href="#DejaVuSans-62" x="283.353516"/>
      <use xlink:href="#DejaVuSans-69" x="346.830078"/>
      <use xlink:href="#DejaVuSans-6c" x="374.613281"/>
      <use xlink:href="#DejaVuSans-69" x="402.396484"/>
      <use xlink:href="#DejaVuSans-74" x="430.179688"/>
      <use xlink:href="#DejaVuSans-79" x="469.388672"/>
     </g>
    </g>
   </g>
   <g id="line2d_16">
    <path d="M 71.724432 256.68 
L 100.370421 256.579683 
L 103.95117 256.257614 
L 105.144753 255.983064 
L 106.338336 255.328366 
L 107.531918 254.969338 
L 108.725501 254.3252 
L 109.919084 253.306194 
L 111.112667 252.091835 
L 113.499833 248.40124 
L 117.080582 241.896501 
L 120.66133 235.70327 
L 121.854913 235.317843 
L 123.048496 233.686379 
L 124.242079 233.64942 
L 125.435662 232.788809 
L 126.629245 233.200635 
L 127.822828 233.015841 
L 129.01641 233.791975 
L 130.209993 234.108764 
L 131.403576 235.053852 
L 133.790742 237.688483 
L 134.984325 237.662084 
L 136.177908 239.441384 
L 138.565074 240.476229 
L 139.758656 241.817303 
L 140.952239 242.545919 
L 142.145822 243.98731 
L 143.339405 245.064393 
L 144.532988 245.713811 
L 145.726571 246.511064 
L 149.30732 248.332603 
L 150.500902 248.554355 
L 151.694485 249.061218 
L 152.888068 249.261851 
L 154.081651 249.763434 
L 155.275234 249.974627 
L 157.6624 250.059104 
L 158.855983 250.069664 
L 161.243148 250.719082 
L 162.436731 250.48677 
L 163.630314 250.914435 
L 164.823897 250.967233 
L 167.211063 250.740201 
L 169.598229 251.310422 
L 170.791811 251.109789 
L 171.985394 251.331541 
L 175.566143 251.173146 
L 176.759726 251.37378 
L 177.953309 251.004192 
L 179.146892 251.600812 
L 180.340475 251.294582 
L 181.534057 251.621931 
L 182.72764 251.284023 
L 183.921223 251.37378 
L 185.114806 251.262903 
L 187.501972 251.225945 
L 188.695555 251.563853 
L 189.889138 251.08339 
L 191.082721 251.06227 
L 192.276303 250.877476 
L 193.469886 251.220665 
L 195.857052 250.576527 
L 197.050635 250.798279 
L 198.244218 250.650444 
L 199.437801 250.222779 
L 200.631384 250.333655 
L 203.018549 248.158369 
L 204.212132 246.136197 
L 206.599298 245.655733 
L 207.792881 245.951403 
L 208.986464 246.896491 
L 210.180047 247.450873 
L 211.37363 248.485717 
L 212.567213 249.89543 
L 213.760795 249.795113 
L 214.954378 250.286137 
L 216.147961 250.507889 
L 217.341544 251.07283 
L 218.535127 250.961954 
L 219.72871 251.146747 
L 220.922293 251.452977 
L 222.115876 251.294582 
L 223.309459 251.437138 
L 224.503041 251.452977 
L 225.696624 250.935555 
L 226.890207 251.310422 
L 228.08379 251.199546 
L 229.277373 251.204825 
L 232.858122 250.560687 
L 234.051705 250.645164 
L 235.245287 250.613485 
L 236.43887 249.911269 
L 237.632453 250.233338 
L 238.826036 249.731755 
L 240.019619 249.610319 
L 242.406785 249.00842 
L 243.600368 248.70747 
L 244.793951 249.066498 
L 245.987533 248.11085 
L 247.181116 248.010534 
L 249.568282 246.93345 
L 251.955448 244.927118 
L 253.149031 241.093968 
L 254.342614 235.154169 
L 255.536197 225.138348 
L 256.729779 209.378082 
L 257.923362 182.54603 
L 261.504111 70.756376 
L 262.697694 61.17878 
L 263.891277 77.197758 
L 265.08486 87.968593 
L 266.278443 92.113253 
L 267.472025 115.112154 
L 268.665608 159.943116 
L 269.859191 200.307349 
L 271.052774 224.721242 
L 272.246357 238.121428 
L 273.43994 243.934512 
L 274.633523 246.152037 
L 275.827106 247.2344 
L 277.020689 246.822574 
L 278.214271 246.917611 
L 279.407854 246.743376 
L 280.601437 246.231234 
L 282.988603 246.35267 
L 284.182186 245.866926 
L 285.375769 245.550137 
L 286.569352 245.624054 
L 287.762934 245.576536 
L 288.956517 245.14887 
L 290.1501 244.525852 
L 291.343683 245.122471 
L 292.537266 244.024269 
L 293.730849 244.161544 
L 294.924432 244.077067 
L 296.118015 242.947185 
L 297.311598 243.459328 
L 298.50518 241.954579 
L 299.698763 241.706427 
L 300.892346 241.04117 
L 302.085929 240.771899 
L 303.279512 239.937687 
L 304.473095 238.813085 
L 305.666678 238.168947 
L 306.860261 236.790913 
L 308.053844 235.882784 
L 310.441009 232.952483 
L 311.634592 231.537491 
L 312.828175 229.20909 
L 314.021758 226.072876 
L 315.215341 223.390727 
L 316.408924 220.117238 
L 318.79609 212.007433 
L 321.183255 201.938814 
L 323.570421 189.884982 
L 324.764004 181.944131 
L 325.957587 175.671703 
L 328.344753 159.953675 
L 329.538336 153.644289 
L 330.731918 149.056124 
L 331.925501 151.405645 
L 333.119084 159.383455 
L 334.312667 169.536551 
L 337.893416 203.839549 
L 339.086999 220.375949 
L 340.280582 232.656813 
L 341.474164 239.948247 
L 343.86133 247.424473 
L 345.054913 250.534288 
L 346.248496 252.699015 
L 347.442079 254.414957 
L 348.635662 255.407563 
L 349.829245 255.882747 
L 352.21641 256.39489 
L 354.603576 256.590243 
L 360.571491 256.66944 
L 374.894485 256.574404 
L 376.088068 256.08866 
L 376.088068 256.08866 
" clip-path="url(#p72731232fb)" style="fill: none; stroke: #ff0000; stroke-width: 1.5; stroke-linecap: square"/>
   </g>
   <g id="line2d_17">
    <path d="M 71.724432 256.68 
L 94.402507 256.590243 
L 99.176838 256.257614 
L 101.564004 255.79299 
L 102.757587 255.338925 
L 105.144753 253.818337 
L 106.338336 252.978845 
L 107.531918 251.299862 
L 108.725501 249.30937 
L 109.919084 247.699024 
L 112.30625 242.487841 
L 117.080582 234.436113 
L 118.274164 232.963043 
L 119.467747 232.007395 
L 120.66133 231.643088 
L 121.854913 230.940872 
L 123.048496 230.914472 
L 124.242079 230.745518 
L 125.435662 231.225982 
L 127.822828 233.000002 
L 129.01641 233.549103 
L 130.209993 234.2302 
L 131.403576 235.391761 
L 132.597159 235.930303 
L 133.790742 237.318896 
L 134.984325 239.214351 
L 138.565074 242.318886 
L 139.758656 243.570204 
L 140.952239 244.430815 
L 142.145822 245.602935 
L 143.339405 245.903885 
L 144.532988 247.313597 
L 146.920154 248.026373 
L 148.113737 248.744429 
L 149.30732 248.42236 
L 151.694485 249.488884 
L 152.888068 249.499443 
L 157.6624 250.286137 
L 160.049566 250.46565 
L 161.243148 250.312536 
L 162.436731 250.47621 
L 163.630314 250.460371 
L 164.823897 250.17526 
L 166.01748 250.835238 
L 169.598229 250.977793 
L 170.791811 251.231225 
L 171.985394 251.183706 
L 173.178977 251.262903 
L 174.37256 251.157307 
L 175.566143 251.220665 
L 176.759726 251.104509 
L 179.146892 251.569133 
L 180.340475 251.273463 
L 181.534057 251.183706 
L 182.72764 251.632491 
L 183.921223 251.843684 
L 187.501972 251.326261 
L 188.695555 251.342101 
L 189.889138 251.484656 
L 191.082721 251.167867 
L 193.469886 251.37906 
L 194.663469 251.320981 
L 195.857052 251.009472 
L 197.050635 251.278743 
L 200.631384 250.111902 
L 201.824967 250.243898 
L 203.018549 250.217499 
L 204.212132 249.261851 
L 205.405715 249.034819 
L 206.599298 248.459318 
L 207.792881 248.464598 
L 208.986464 247.920777 
L 210.180047 247.693744 
L 211.37363 247.123524 
L 212.567213 246.157316 
L 213.760795 246.004202 
L 214.954378 245.074953 
L 216.147961 244.425535 
L 217.341544 244.045388 
L 218.535127 243.491007 
L 220.922293 241.389638 
L 222.115876 240.940853 
L 224.503041 238.982039 
L 225.696624 237.49313 
L 226.890207 236.627239 
L 230.470956 232.503699 
L 231.664539 229.652595 
L 232.858122 228.200644 
L 234.051705 225.513215 
L 235.245287 221.701184 
L 236.43887 217.292534 
L 237.632453 213.681136 
L 238.826036 209.003214 
L 240.019619 201.315795 
L 241.213202 194.821615 
L 242.406785 189.119408 
L 243.600368 184.415087 
L 244.793951 180.719212 
L 245.987533 180.143712 
L 247.181116 182.208122 
L 248.374699 185.185941 
L 249.568282 188.918775 
L 250.761865 194.536504 
L 253.149031 224.715962 
L 254.342614 235.750789 
L 255.536197 241.447716 
L 256.729779 243.707479 
L 257.923362 245.44454 
L 259.116945 245.270306 
L 260.310528 245.682132 
L 261.504111 244.974636 
L 262.697694 245.022155 
L 263.891277 244.436095 
L 265.08486 244.610329 
L 266.278443 243.184777 
L 267.472025 242.79935 
L 268.665608 242.577598 
L 269.859191 241.173165 
L 271.052774 240.196398 
L 272.246357 239.441384 
L 273.43994 238.480456 
L 274.633523 236.384367 
L 275.827106 234.013728 
L 277.020689 231.014789 
L 278.214271 228.802544 
L 279.407854 227.128841 
L 280.601437 226.25239 
L 281.79502 224.335815 
L 282.988603 224.768761 
L 284.182186 222.978901 
L 285.375769 219.921885 
L 286.569352 217.186937 
L 287.762934 213.174273 
L 290.1501 206.326345 
L 291.343683 201.870176 
L 292.537266 201.537547 
L 293.730849 204.087701 
L 294.924432 209.890224 
L 297.311598 223.923989 
L 298.50518 228.401278 
L 299.698763 232.398102 
L 302.085929 236.421326 
L 303.279512 234.916577 
L 304.473095 229.024296 
L 305.666678 214.969412 
L 306.860261 193.237668 
L 308.053844 157.577756 
L 310.441009 71.500831 
L 311.634592 38.987692 
L 312.828175 29.88 
L 314.021758 52.841942 
L 315.215341 104.225162 
L 316.408924 165.059263 
L 317.602507 209.520637 
L 318.79609 236.495244 
L 319.989672 249.710636 
L 321.183255 254.546952 
L 322.376838 255.539559 
L 325.957587 256.09922 
L 328.344753 256.273454 
L 329.538336 256.458248 
L 334.312667 256.637761 
L 340.280582 256.632482 
L 351.022828 256.67472 
L 373.700902 256.616642 
L 374.894485 256.38961 
L 376.088068 256.38433 
L 376.088068 256.38433 
" clip-path="url(#p72731232fb)" style="fill: none; stroke: #008000; stroke-width: 1.5; stroke-linecap: square"/>
   </g>
   <g id="line2d_18">
    <path d="M 71.724432 256.664161 
L 78.885929 256.66944 
L 88.434592 256.468807 
L 92.015341 256.09394 
L 93.208924 255.898586 
L 95.59609 255.19109 
L 96.789672 254.678948 
L 99.176838 253.110841 
L 100.370421 251.827844 
L 102.757587 248.179488 
L 103.95117 245.76661 
L 107.531918 237.097143 
L 108.725501 234.715944 
L 111.112667 229.341086 
L 112.30625 227.345313 
L 113.499833 225.925041 
L 114.693416 225.861684 
L 115.886999 224.50477 
L 117.080582 224.642045 
L 118.274164 225.001073 
L 119.467747 226.537501 
L 120.66133 227.345313 
L 121.854913 228.015851 
L 123.048496 229.314687 
L 124.242079 229.990504 
L 125.435662 230.98839 
L 127.822828 232.651534 
L 129.01641 233.6547 
L 130.209993 233.786695 
L 131.403576 234.108764 
L 132.597159 234.019007 
L 133.790742 233.686379 
L 134.984325 232.630414 
L 136.177908 232.15523 
L 137.371491 231.014789 
L 138.565074 230.249215 
L 139.758656 228.501594 
L 140.952239 227.102442 
L 142.145822 224.103503 
L 143.339405 222.751869 
L 144.532988 219.974683 
L 146.920154 213.596659 
L 148.113737 210.576601 
L 149.30732 206.600896 
L 151.694485 201.775139 
L 154.081651 194.826894 
L 156.468817 184.177495 
L 157.6624 180.20707 
L 158.855983 182.646347 
L 160.049566 194.293633 
L 162.436731 225.470977 
L 163.630314 237.260818 
L 164.823897 244.087626 
L 166.01748 247.292478 
L 167.211063 249.668397 
L 168.404646 251.35266 
L 170.791811 252.662056 
L 171.985394 252.878529 
L 173.178977 253.353713 
L 174.37256 253.691621 
L 185.114806 254.372718 
L 187.501972 254.161525 
L 188.695555 254.251282 
L 189.889138 254.124567 
L 191.082721 254.161525 
L 192.276303 253.749699 
L 194.663469 254.129846 
L 195.857052 253.802497 
L 200.631384 253.448749 
L 201.824967 253.110841 
L 203.018549 253.190038 
L 204.212132 252.567019 
L 205.405715 252.266069 
L 206.599298 252.234391 
L 207.792881 252.456143 
L 208.986464 251.769766 
L 210.180047 251.685289 
L 211.37363 251.130908 
L 213.760795 250.78772 
L 216.147961 249.58392 
L 219.72871 248.322043 
L 220.922293 247.709584 
L 222.115876 247.741263 
L 223.309459 247.070725 
L 224.503041 246.65362 
L 225.696624 246.030601 
L 226.890207 244.895439 
L 231.664539 242.392804 
L 232.858122 241.600831 
L 234.051705 239.895448 
L 235.245287 238.976759 
L 236.43887 237.524809 
L 237.632453 235.41816 
L 240.019619 230.228096 
L 241.213202 226.600859 
L 242.406785 223.718076 
L 244.793951 215.265082 
L 245.987533 210.170055 
L 247.181116 205.993716 
L 250.761865 188.010645 
L 251.955448 186.864924 
L 253.149031 187.044438 
L 254.342614 187.725535 
L 256.729779 198.559728 
L 257.923362 208.83954 
L 259.116945 215.476275 
L 260.310528 225.750807 
L 261.504111 233.702218 
L 262.697694 239.906008 
L 263.891277 244.552251 
L 265.08486 247.672625 
L 267.472025 251.516335 
L 268.665608 252.635657 
L 269.859191 253.12668 
L 271.052774 253.781378 
L 272.246357 253.929213 
L 273.43994 253.865855 
L 274.633523 254.129846 
L 277.020689 254.140406 
L 280.601437 253.237557 
L 281.79502 253.290355 
L 282.988603 252.640937 
L 284.182186 252.435024 
L 285.375769 251.416018 
L 287.762934 250.323095 
L 288.956517 248.770828 
L 290.1501 246.94401 
L 291.343683 242.978864 
L 292.537266 235.793027 
L 293.730849 223.939829 
L 294.924432 208.24292 
L 296.118015 185.21234 
L 299.698763 95.867206 
L 300.892346 71.791221 
L 302.085929 69.668733 
L 303.279512 76.785932 
L 304.473095 98.665511 
L 306.860261 183.982142 
L 308.053844 210.275651 
L 309.247426 230.856394 
L 310.441009 243.902833 
L 311.634592 250.523728 
L 312.828175 253.797218 
L 314.021758 255.265008 
L 315.215341 255.977784 
L 316.408924 256.247055 
L 318.79609 256.458248 
L 327.15117 256.632482 
L 330.731918 256.658881 
L 341.474164 256.664161 
L 349.829245 256.67472 
L 372.50732 256.616642 
L 373.700902 256.38961 
L 374.894485 256.606083 
L 376.088068 256.452968 
L 376.088068 256.452968 
" clip-path="url(#p72731232fb)" style="fill: none; stroke: #0000ff; stroke-width: 1.5; stroke-linecap: square"/>
   </g>
   <g id="patch_3">
    <path d="M 56.50625 256.68 
L 56.50625 7.2 
" style="fill: none; stroke: #000000; stroke-width: 0.8; stroke-linejoin: miter; stroke-linecap: square"/>
   </g>
   <g id="patch_4">
    <path d="M 391.30625 256.68 
L 391.30625 7.2 
" style="fill: none; stroke: #000000; stroke-width: 0.8; stroke-linejoin: miter; stroke-linecap: square"/>
   </g>
   <g id="patch_5">
    <path d="M 56.50625 256.68 
L 391.30625 256.68 
" style="fill: none; stroke: #000000; stroke-width: 0.8; stroke-linejoin: miter; stroke-linecap: square"/>
   </g>
   <g id="patch_6">
    <path d="M 56.50625 7.2 
L 391.30625 7.2 
" style="fill: none; stroke: #000000; stroke-width: 0.8; stroke-linejoin: miter; stroke-linecap: square"/>
   </g>
  </g>
 </g>
 <defs>
  <clipPath id="p72731232fb">
   <rect x="56.50625" y="7.2" width="334.8" height="249.48"/>
  </clipPath>
 </defs>
</svg>
