<?xml version="1.0" encoding="utf-8" standalone="no"?>
<!DOCTYPE svg PUBLIC "-//W3C//DTD SVG 1.1//EN"
  "http://www.w3.org/Graphics/SVG/1.1/DTD/svg11.dtd">
<svg xmlns:xlink="http://www.w3.org/1999/xlink" width="720pt" height="46.8pt" viewBox="0 0 720 46.8" xmlns="http://www.w3.org/2000/svg" version="1.1">
 <metadata>
  <rdf:RDF xmlns:dc="http://purl.org/dc/elements/1.1/" xmlns:cc="http://creativecommons.org/ns#" xmlns:rdf="http://www.w3.org/1999/02/22-rdf-syntax-ns#">
   <cc:Work>
    <dc:type rdf:resource="http://purl.org/dc/dcmitype/StillImage"/>
    <dc:date>2024-07-06T02:15:14.228593</dc:date>
    <dc:format>image/svg+xml</dc:format>
    <dc:creator>
     <cc:Agent>
      <dc:title>Matplotlib v3.7.1, https://matplotlib.org/</dc:title>
     </cc:Agent>
    </dc:creator>
   </cc:Work>
  </rdf:RDF>
 </metadata>
 <defs>
  <style type="text/css">*{stroke-linejoin: round; stroke-linecap: butt}</style>
 </defs>
 <g id="figure_1">
  <g id="patch_1">
   <path d="M 0 46.8 
L 720 46.8 
L 720 0 
L 0 0 
z
" style="fill: #ffffff"/>
  </g>
  <g id="axes_1">
   <g id="patch_2">
    <path d="M 0 44.672727 
L 259.160937 44.672727 
L 259.160937 2.127273 
L 0 2.127273 
z
" clip-path="url(#pbb1620c626)" style="fill: #e27a53"/>
   </g>
   <g id="patch_3">
    <path d="M 259.160937 44.672727 
L 389.348437 44.672727 
L 389.348437 2.127273 
L 259.160937 2.127273 
z
" clip-path="url(#pbb1620c626)" style="fill: #e1acb9"/>
   </g>
   <g id="patch_4">
    <path d="M 389.348437 44.672727 
L 517.883594 44.672727 
L 517.883594 2.127273 
L 389.348437 2.127273 
z
" clip-path="url(#pbb1620c626)" style="fill: #efc058"/>
   </g>
   <g id="patch_5">
    <path d="M 517.883594 44.672727 
L 570.564062 44.672727 
L 570.564062 2.127273 
L 517.883594 2.127273 
z
" clip-path="url(#pbb1620c626)" style="fill: #0b0e10"/>
   </g>
   <g id="patch_6">
    <path d="M 570.564062 44.672727 
L 609.761719 44.672727 
L 609.761719 2.127273 
L 570.564062 2.127273 
z
" clip-path="url(#pbb1620c626)" style="fill: #312e2c"/>
   </g>
   <g id="patch_7">
    <path d="M 609.761719 44.672727 
L 638.932031 44.672727 
L 638.932031 2.127273 
L 609.761719 2.127273 
z
" clip-path="url(#pbb1620c626)" style="fill: #6e5441"/>
   </g>
   <g id="patch_8">
    <path d="M 638.932031 44.672727 
L 666.1125 44.672727 
L 666.1125 2.127273 
L 638.932031 2.127273 
z
" clip-path="url(#pbb1620c626)" style="fill: #c4929d"/>
   </g>
   <g id="patch_9">
    <path d="M 666.1125 44.672727 
L 689.942969 44.672727 
L 689.942969 2.127273 
L 666.1125 2.127273 
z
" clip-path="url(#pbb1620c626)" style="fill: #b79149"/>
   </g>
   <g id="patch_10">
    <path d="M 689.942969 44.672727 
L 707.915625 44.672727 
L 707.915625 2.127273 
L 689.942969 2.127273 
z
" clip-path="url(#pbb1620c626)" style="fill: #7e7a92"/>
   </g>
   <g id="patch_11">
    <path d="M 707.915625 44.672727 
L 720 44.672727 
L 720 2.127273 
L 707.915625 2.127273 
z
" clip-path="url(#pbb1620c626)" style="fill: #a2c9c9"/>
   </g>
  </g>
 </g>
 <defs>
  <clipPath id="pbb1620c626">
   <rect x="0" y="0" width="720" height="46.8"/>
  </clipPath>
 </defs>
</svg>
