<?xml version="1.0" encoding="utf-8" standalone="no"?>
<!DOCTYPE svg PUBLIC "-//W3C//DTD SVG 1.1//EN"
  "http://www.w3.org/Graphics/SVG/1.1/DTD/svg11.dtd">
<svg xmlns:xlink="http://www.w3.org/1999/xlink" width="720pt" height="46.8pt" viewBox="0 0 720 46.8" xmlns="http://www.w3.org/2000/svg" version="1.1">
 <metadata>
  <rdf:RDF xmlns:dc="http://purl.org/dc/elements/1.1/" xmlns:cc="http://creativecommons.org/ns#" xmlns:rdf="http://www.w3.org/1999/02/22-rdf-syntax-ns#">
   <cc:Work>
    <dc:type rdf:resource="http://purl.org/dc/dcmitype/StillImage"/>
    <dc:date>2024-07-06T02:15:14.320596</dc:date>
    <dc:format>image/svg+xml</dc:format>
    <dc:creator>
     <cc:Agent>
      <dc:title>Matplotlib v3.7.1, https://matplotlib.org/</dc:title>
     </cc:Agent>
    </dc:creator>
   </cc:Work>
  </rdf:RDF>
 </metadata>
 <defs>
  <style type="text/css">*{stroke-linejoin: round; stroke-linecap: butt}</style>
 </defs>
 <g id="figure_1">
  <g id="patch_1">
   <path d="M 0 46.8 
L 720 46.8 
L 720 0 
L 0 0 
z
" style="fill: #ffffff"/>
  </g>
  <g id="axes_1">
   <g id="patch_2">
    <path d="M 0 44.672727 
L 207.203906 44.672727 
L 207.203906 2.127273 
L 0 2.127273 
z
" clip-path="url(#p060c4d511a)" style="fill: #ba1402"/>
   </g>
   <g id="patch_3">
    <path d="M 207.203906 44.672727 
L 347.624219 44.672727 
L 347.624219 2.127273 
L 207.203906 2.127273 
z
" clip-path="url(#p060c4d511a)" style="fill: #e7b0c2"/>
   </g>
   <g id="patch_4">
    <path d="M 347.624219 44.672727 
L 464.607031 44.672727 
L 464.607031 2.127273 
L 347.624219 2.127273 
z
" clip-path="url(#p060c4d511a)" style="fill: #e3cb07"/>
   </g>
   <g id="patch_5">
    <path d="M 464.607031 44.672727 
L 561.352344 44.672727 
L 561.352344 2.127273 
L 464.607031 2.127273 
z
" clip-path="url(#p060c4d511a)" style="fill: #090504"/>
   </g>
   <g id="patch_6">
    <path d="M 561.352344 44.672727 
L 601.425 44.672727 
L 601.425 2.127273 
L 561.352344 2.127273 
z
" clip-path="url(#p060c4d511a)" style="fill: #c0a715"/>
   </g>
   <g id="patch_7">
    <path d="M 601.425 44.672727 
L 636.570312 44.672727 
L 636.570312 2.127273 
L 601.425 2.127273 
z
" clip-path="url(#p060c4d511a)" style="fill: #cd99a1"/>
   </g>
   <g id="patch_8">
    <path d="M 636.570313 44.672727 
L 665.542969 44.672727 
L 665.542969 2.127273 
L 636.570313 2.127273 
z
" clip-path="url(#p060c4d511a)" style="fill: #45331a"/>
   </g>
   <g id="patch_9">
    <path d="M 665.542969 44.672727 
L 686.3875 44.672727 
L 686.3875 2.127273 
L 665.542969 2.127273 
z
" clip-path="url(#p060c4d511a)" style="fill: #887114"/>
   </g>
   <g id="patch_10">
    <path d="M 686.3875 44.672727 
L 705.546094 44.672727 
L 705.546094 2.127273 
L 686.3875 2.127273 
z
" clip-path="url(#p060c4d511a)" style="fill: #78c5b3"/>
   </g>
   <g id="patch_11">
    <path d="M 705.546094 44.672727 
L 720 44.672727 
L 720 2.127273 
L 705.546094 2.127273 
z
" clip-path="url(#p060c4d511a)" style="fill: #836c69"/>
   </g>
  </g>
 </g>
 <defs>
  <clipPath id="p060c4d511a">
   <rect x="0" y="0" width="720" height="46.8"/>
  </clipPath>
 </defs>
</svg>
