<?xml version="1.0" encoding="utf-8" standalone="no"?>
<!DOCTYPE svg PUBLIC "-//W3C//DTD SVG 1.1//EN"
  "http://www.w3.org/Graphics/SVG/1.1/DTD/svg11.dtd">
<svg xmlns:xlink="http://www.w3.org/1999/xlink" width="720pt" height="46.8pt" viewBox="0 0 720 46.8" xmlns="http://www.w3.org/2000/svg" version="1.1">
 <metadata>
  <rdf:RDF xmlns:dc="http://purl.org/dc/elements/1.1/" xmlns:cc="http://creativecommons.org/ns#" xmlns:rdf="http://www.w3.org/1999/02/22-rdf-syntax-ns#">
   <cc:Work>
    <dc:type rdf:resource="http://purl.org/dc/dcmitype/StillImage"/>
    <dc:date>2024-07-06T02:15:14.491835</dc:date>
    <dc:format>image/svg+xml</dc:format>
    <dc:creator>
     <cc:Agent>
      <dc:title>Matplotlib v3.7.1, https://matplotlib.org/</dc:title>
     </cc:Agent>
    </dc:creator>
   </cc:Work>
  </rdf:RDF>
 </metadata>
 <defs>
  <style type="text/css">*{stroke-linejoin: round; stroke-linecap: butt}</style>
 </defs>
 <g id="figure_1">
  <g id="patch_1">
   <path d="M 0 46.8 
L 720 46.8 
L 720 0 
L 0 0 
z
" style="fill: #ffffff"/>
  </g>
  <g id="axes_1">
   <g id="patch_2">
    <path d="M 0 44.672727 
L 249.135156 44.672727 
L 249.135156 2.127273 
L 0 2.127273 
z
" clip-path="url(#pa48b7bcb5c)" style="fill: #568cc7"/>
   </g>
   <g id="patch_3">
    <path d="M 249.135156 44.672727 
L 375.65625 44.672727 
L 375.65625 2.127273 
L 249.135156 2.127273 
z
" clip-path="url(#pa48b7bcb5c)" style="fill: #d99aa9"/>
   </g>
   <g id="patch_4">
    <path d="M 375.65625 44.672727 
L 476.007812 44.672727 
L 476.007812 2.127273 
L 375.65625 2.127273 
z
" clip-path="url(#pa48b7bcb5c)" style="fill: #f7d06b"/>
   </g>
   <g id="patch_5">
    <path d="M 476.007812 44.672727 
L 560.653906 44.672727 
L 560.653906 2.127273 
L 476.007812 2.127273 
z
" clip-path="url(#pa48b7bcb5c)" style="fill: #130c0d"/>
   </g>
   <g id="patch_6">
    <path d="M 560.653906 44.672727 
L 598.835938 44.672727 
L 598.835938 2.127273 
L 560.653906 2.127273 
z
" clip-path="url(#pa48b7bcb5c)" style="fill: #bc818c"/>
   </g>
   <g id="patch_7">
    <path d="M 598.835937 44.672727 
L 631.561719 44.672727 
L 631.561719 2.127273 
L 598.835937 2.127273 
z
" clip-path="url(#pa48b7bcb5c)" style="fill: #dcab52"/>
   </g>
   <g id="patch_8">
    <path d="M 631.561719 44.672727 
L 662.682031 44.672727 
L 662.682031 2.127273 
L 631.561719 2.127273 
z
" clip-path="url(#pa48b7bcb5c)" style="fill: #4e2c23"/>
   </g>
   <g id="patch_9">
    <path d="M 662.682031 44.672727 
L 684.214844 44.672727 
L 684.214844 2.127273 
L 662.682031 2.127273 
z
" clip-path="url(#pa48b7bcb5c)" style="fill: #709ca8"/>
   </g>
   <g id="patch_10">
    <path d="M 684.214844 44.672727 
L 702.909375 44.672727 
L 702.909375 2.127273 
L 684.214844 2.127273 
z
" clip-path="url(#pa48b7bcb5c)" style="fill: #795d64"/>
   </g>
   <g id="patch_11">
    <path d="M 702.909375 44.672727 
L 720 44.672727 
L 720 2.127273 
L 702.909375 2.127273 
z
" clip-path="url(#pa48b7bcb5c)" style="fill: #9a5e31"/>
   </g>
  </g>
 </g>
 <defs>
  <clipPath id="pa48b7bcb5c">
   <rect x="0" y="0" width="720" height="46.8"/>
  </clipPath>
 </defs>
</svg>
