<?xml version="1.0" encoding="utf-8" standalone="no"?>
<!DOCTYPE svg PUBLIC "-//W3C//DTD SVG 1.1//EN"
  "http://www.w3.org/Graphics/SVG/1.1/DTD/svg11.dtd">
<svg xmlns:xlink="http://www.w3.org/1999/xlink" width="720pt" height="46.8pt" viewBox="0 0 720 46.8" xmlns="http://www.w3.org/2000/svg" version="1.1">
 <metadata>
  <rdf:RDF xmlns:dc="http://purl.org/dc/elements/1.1/" xmlns:cc="http://creativecommons.org/ns#" xmlns:rdf="http://www.w3.org/1999/02/22-rdf-syntax-ns#">
   <cc:Work>
    <dc:type rdf:resource="http://purl.org/dc/dcmitype/StillImage"/>
    <dc:date>2024-07-06T02:15:14.578826</dc:date>
    <dc:format>image/svg+xml</dc:format>
    <dc:creator>
     <cc:Agent>
      <dc:title>Matplotlib v3.7.1, https://matplotlib.org/</dc:title>
     </cc:Agent>
    </dc:creator>
   </cc:Work>
  </rdf:RDF>
 </metadata>
 <defs>
  <style type="text/css">*{stroke-linejoin: round; stroke-linecap: butt}</style>
 </defs>
 <g id="figure_1">
  <g id="patch_1">
   <path d="M 0 46.8 
L 720 46.8 
L 720 0 
L 0 0 
z
" style="fill: #ffffff"/>
  </g>
  <g id="axes_1">
   <g id="patch_2">
    <path d="M 0 44.672727 
L 241.239844 44.672727 
L 241.239844 2.127273 
L 0 2.127273 
z
" clip-path="url(#p5d149eea3d)" style="fill: #a0c8c0"/>
   </g>
   <g id="patch_3">
    <path d="M 241.239844 44.672727 
L 373.559375 44.672727 
L 373.559375 2.127273 
L 241.239844 2.127273 
z
" clip-path="url(#p5d149eea3d)" style="fill: #d69096"/>
   </g>
   <g id="patch_4">
    <path d="M 373.559375 44.672727 
L 483.121094 44.672727 
L 483.121094 2.127273 
L 373.559375 2.127273 
z
" clip-path="url(#p5d149eea3d)" style="fill: #d6b545"/>
   </g>
   <g id="patch_5">
    <path d="M 483.121094 44.672727 
L 562.921875 44.672727 
L 562.921875 2.127273 
L 483.121094 2.127273 
z
" clip-path="url(#p5d149eea3d)" style="fill: #302c25"/>
   </g>
   <g id="patch_6">
    <path d="M 562.921875 44.672727 
L 599.305469 44.672727 
L 599.305469 2.127273 
L 562.921875 2.127273 
z
" clip-path="url(#p5d149eea3d)" style="fill: #b97f83"/>
   </g>
   <g id="patch_7">
    <path d="M 599.305469 44.672727 
L 633.2875 44.672727 
L 633.2875 2.127273 
L 599.305469 2.127273 
z
" clip-path="url(#p5d149eea3d)" style="fill: #b3993d"/>
   </g>
   <g id="patch_8">
    <path d="M 633.2875 44.672727 
L 666.401562 44.672727 
L 666.401562 2.127273 
L 633.2875 2.127273 
z
" clip-path="url(#p5d149eea3d)" style="fill: #544839"/>
   </g>
   <g id="patch_9">
    <path d="M 666.401563 44.672727 
L 686.173438 44.672727 
L 686.173438 2.127273 
L 666.401563 2.127273 
z
" clip-path="url(#p5d149eea3d)" style="fill: #79a599"/>
   </g>
   <g id="patch_10">
    <path d="M 686.173437 44.672727 
L 705.142969 44.672727 
L 705.142969 2.127273 
L 686.173437 2.127273 
z
" clip-path="url(#p5d149eea3d)" style="fill: #876936"/>
   </g>
   <g id="patch_11">
    <path d="M 705.142969 44.672727 
L 720 44.672727 
L 720 2.127273 
L 705.142969 2.127273 
z
" clip-path="url(#p5d149eea3d)" style="fill: #836a69"/>
   </g>
  </g>
 </g>
 <defs>
  <clipPath id="p5d149eea3d">
   <rect x="0" y="0" width="720" height="46.8"/>
  </clipPath>
 </defs>
</svg>
